<svg width="40" height="40" viewBox="0 0 40 40" fill="none" xmlns="http://www.w3.org/2000/svg">
<g filter="url(#filter0_d_1166_3965)">
<path fill-rule="evenodd" clip-rule="evenodd" d="M20 32C27.732 32 34 25.732 34 18C34 10.268 27.732 4 20 4C12.268 4 6 10.268 6 18C6 25.732 12.268 32 20 32Z" fill="#27AE60"/>
<path fill-rule="evenodd" clip-rule="evenodd" d="M20 32C27.732 32 34 25.732 34 18C34 10.268 27.732 4 20 4C12.268 4 6 10.268 6 18C6 25.732 12.268 32 20 32Z" stroke="white" stroke-width="3"/>
</g>
<path fill-rule="evenodd" clip-rule="evenodd" d="M20.0007 24.1401C23.3919 24.1401 26.1411 21.3909 26.1411 17.9997C26.1411 14.6085 23.3919 11.8594 20.0007 11.8594C16.6095 11.8594 13.8604 14.6085 13.8604 17.9997C13.8604 21.3909 16.6095 24.1401 20.0007 24.1401Z" fill="white"/>
<defs>
<filter id="filter0_d_1166_3965" x="0.5" y="0.5" width="39" height="39" filterUnits="userSpaceOnUse" color-interpolation-filters="sRGB">
<feFlood flood-opacity="0" result="BackgroundImageFix"/>
<feColorMatrix in="SourceAlpha" type="matrix" values="0 0 0 0 0 0 0 0 0 0 0 0 0 0 0 0 0 0 127 0" result="hardAlpha"/>
<feOffset dy="2"/>
<feGaussianBlur stdDeviation="2"/>
<feColorMatrix type="matrix" values="0 0 0 0 0 0 0 0 0 0 0 0 0 0 0 0 0 0 0.1 0"/>
<feBlend mode="normal" in2="BackgroundImageFix" result="effect1_dropShadow_1166_3965"/>
<feBlend mode="normal" in="SourceGraphic" in2="effect1_dropShadow_1166_3965" result="shape"/>
</filter>
</defs>
</svg>
