<svg width="23" height="33" viewBox="0 0 23 33" fill="none" xmlns="http://www.w3.org/2000/svg">
<path d="M11.2425 27.4675C7.47412 24.688 4.66094 21.9887 2.80296 19.3695C0.946037 16.7504 0.0175781 14.1847 0.0175781 11.6725C0.0175781 9.77492 0.358601 8.11096 1.04065 6.68059C1.72162 5.25129 2.59663 4.05557 3.66567 3.09343C4.73471 2.1313 5.93737 1.4097 7.27367 0.928632C8.60997 0.447565 9.9329 0.207031 11.2425 0.207031C12.552 0.207031 13.875 0.447565 15.2113 0.928632C16.5476 1.4097 17.7502 2.1313 18.8193 3.09343C19.8883 4.05557 20.7639 5.25129 21.4459 6.68059C22.1269 8.11096 22.4674 9.77492 22.4674 11.6725C22.4674 14.1847 21.5384 16.7504 19.6804 19.3695C17.8235 21.9887 15.0108 24.688 11.2425 27.4675ZM11.2425 14.639C12.1244 14.639 12.8797 14.3247 13.5083 13.6961C14.1358 13.0686 14.4496 12.3139 14.4496 11.4319C14.4496 10.55 14.1358 9.79469 13.5083 9.1661C12.8797 8.53858 12.1244 8.22481 11.2425 8.22481C10.3605 8.22481 9.60578 8.53858 8.97825 9.1661C8.34966 9.79469 8.03536 10.55 8.03536 11.4319C8.03536 12.3139 8.34966 13.0686 8.97825 13.6961C9.60578 14.3247 10.3605 14.639 11.2425 14.639ZM0.0175781 32.2782V29.071H22.4674V32.2782H0.0175781Z" fill="#1C1B1F"/>
</svg>
