<svg width="35" height="22" viewBox="0 0 35 22" fill="none" xmlns="http://www.w3.org/2000/svg">
<path d="M12.2954 2.31299H22.7088V19.3211H12.2954V2.31299Z" fill="#FF5F00"/>
<path d="M13.3681 10.8189C13.3668 9.18113 13.7381 7.56456 14.4538 6.0915C15.1695 4.61844 16.2109 3.32748 17.4992 2.31631C15.9036 1.06233 13.9874 0.28255 11.9695 0.0660977C9.95172 -0.150355 7.91371 0.205252 6.08843 1.09228C4.26315 1.9793 2.72424 3.36195 1.6476 5.08221C0.57095 6.80247 0 8.79093 0 10.8203C0 12.8497 0.57095 14.8382 1.6476 16.5585C2.72424 18.2787 4.26315 19.6614 6.08843 20.5484C7.91371 21.4354 9.95172 21.791 11.9695 21.5746C13.9874 21.3581 15.9036 20.5783 17.4992 19.3244C16.2105 18.3129 15.1689 17.0214 14.4531 15.5478C13.7374 14.0742 13.3664 12.457 13.3681 10.8188V10.8189Z" fill="#EB001B"/>
<path d="M34.9999 10.8187C34.9998 12.8483 34.4287 14.8369 33.3519 16.5572C32.2751 18.2775 30.7359 19.6602 28.9104 20.5471C27.0849 21.434 25.0467 21.7893 23.0287 21.5726C21.0108 21.3558 19.0945 20.5756 17.499 19.3212C18.7868 18.3092 19.8279 17.0179 20.5438 15.5447C21.2597 14.0716 21.6317 12.4551 21.6317 10.8172C21.6317 9.17934 21.2597 7.56285 20.5438 6.08971C19.8279 4.61657 18.7868 3.32526 17.499 2.3132C19.0945 1.05881 21.0108 0.278642 23.0287 0.0618738C25.0467 -0.154894 27.0849 0.200484 28.9104 1.08739C30.7359 1.97429 32.2751 3.35693 33.3519 5.07725C34.4288 6.79758 34.9998 8.78618 34.9999 10.8157V10.8187Z" fill="#F79E1B"/>
</svg>
