<svg width="55" height="29" viewBox="0 0 55 29" fill="none" xmlns="http://www.w3.org/2000/svg">
<path d="M29.5249 0H20.1168C19.8009 0 19.5317 0.269155 19.5317 0.596826V1.66176C19.5317 1.98943 19.8009 2.25859 20.1168 2.25859H29.5249C29.8525 2.25859 30.1099 1.98943 30.1216 1.66176V0.608529C30.1216 0.269156 29.8525 0 29.5249 0ZM29.5249 5.90978H20.1168C19.9647 5.90978 19.8126 5.96829 19.7073 6.08531C19.5902 6.20234 19.5317 6.34277 19.5317 6.5066V7.57153C19.5317 7.8992 19.8009 8.16836 20.1168 8.16836H29.5249C29.8525 8.16836 30.1099 7.91091 30.1216 7.57153V6.5066C30.1099 6.16723 29.8525 5.90978 29.5249 5.90978ZM25.4176 8.85881H20.1168C19.9647 8.85881 19.8126 8.91732 19.7073 9.03435C19.6019 9.15137 19.5317 9.2918 19.5317 9.45564V10.5206C19.5317 10.8482 19.8009 11.1174 20.1168 11.1174H25.4059C25.7336 11.1174 25.991 10.8482 25.991 10.5323V9.46734C26.0027 9.11627 25.7453 8.85881 25.4176 8.85881ZM30.1216 2.94903H20.1168C19.9647 2.94903 19.8126 3.00755 19.7073 3.12457C19.6019 3.2416 19.5317 3.38203 19.5317 3.54586V4.61079C19.5317 4.93847 19.8009 5.20762 20.1168 5.20762H30.1099C30.4376 5.20762 30.695 4.93847 30.695 4.61079V3.54586C30.7067 3.2299 30.4376 2.96074 30.1216 2.94903Z" fill="#2DBDEF"/>
<path d="M6.06361 19.5693C5.77107 19.265 5.43173 19.031 5.04558 18.8671C4.65943 18.7033 4.24988 18.6214 3.82862 18.6214C3.41907 18.6097 3.02121 18.7033 2.64676 18.8788C2.40103 18.9958 2.1787 19.1597 1.99148 19.3586V19.1714C1.99148 19.0778 1.95637 18.9841 1.89787 18.9139C1.83936 18.8437 1.74575 18.7969 1.64043 18.7969H0.341561C0.247949 18.7969 0.154336 18.832 0.0958284 18.9139C0.0256192 18.9841 -0.00948403 19.0778 0.00221751 19.1714V27.9249C0.00221751 28.0185 0.0373207 28.1121 0.0958284 28.1823C0.166038 28.2525 0.247949 28.2877 0.341561 28.2877H1.67554C1.76915 28.2877 1.85106 28.2525 1.92127 28.1823C1.99148 28.1238 2.03828 28.0302 2.02658 27.9249V24.929C2.21381 25.1397 2.45954 25.2918 2.72867 25.3854C3.07972 25.5142 3.44247 25.5844 3.81692 25.5844C4.23817 25.5844 4.65943 25.5024 5.04558 25.3386C5.43173 25.1748 5.78278 24.9407 6.07531 24.6365C6.37955 24.3205 6.61359 23.946 6.77741 23.5364C6.96463 23.08 7.04654 22.5885 7.03484 22.097C7.04654 21.6055 6.95293 21.114 6.77741 20.6459C6.60188 20.2597 6.36785 19.8852 6.06361 19.5693ZM4.87006 22.7407C4.79985 22.9279 4.69453 23.0917 4.55411 23.2439C4.28498 23.5364 3.89883 23.7003 3.50098 23.7003C3.30205 23.7003 3.10312 23.6652 2.9159 23.5715C2.74038 23.4896 2.57655 23.3843 2.43614 23.2439C2.29572 23.1034 2.1904 22.9279 2.12019 22.7407C1.96807 22.3428 1.96807 21.9098 2.12019 21.5119C2.1904 21.3247 2.30742 21.1608 2.43614 21.0204C2.57655 20.88 2.74038 20.7629 2.9159 20.681C3.10312 20.5991 3.30205 20.5523 3.50098 20.5523C3.7116 20.5523 3.89883 20.5874 4.09776 20.681C4.27328 20.7629 4.4371 20.8682 4.56582 21.0087C4.70624 21.1491 4.79985 21.3129 4.88176 21.5002C5.02218 21.9098 5.01047 22.3428 4.87006 22.7407ZM14.1845 18.8086H12.8622C12.7686 18.8086 12.675 18.8437 12.6165 18.9139C12.5463 18.9841 12.5112 19.0778 12.5112 19.1831V19.3469C12.3473 19.148 12.1367 18.9958 11.9144 18.8905C11.5516 18.715 11.1538 18.6331 10.7559 18.6331C9.90172 18.6331 9.09431 18.9724 8.48583 19.5693C8.16989 19.8852 7.92416 20.2597 7.76034 20.6693C7.57311 21.1257 7.4795 21.6172 7.4912 22.1204C7.4795 22.6119 7.57311 23.1034 7.76034 23.5715C7.93586 23.9811 8.16989 24.3556 8.48583 24.6716C9.08261 25.2801 9.90172 25.6195 10.7442 25.6195C11.1421 25.6312 11.5399 25.5376 11.9027 25.362C12.125 25.245 12.3473 25.0929 12.5112 24.9056V25.0812C12.5112 25.1748 12.5463 25.2684 12.6165 25.3386C12.6867 25.3971 12.7686 25.4439 12.8622 25.4439H14.1845C14.2781 25.4439 14.3717 25.4088 14.4302 25.3386C14.5004 25.2684 14.5355 25.1748 14.5355 25.0812V19.1948C14.5355 19.1012 14.5004 19.0076 14.4419 18.9373C14.3717 18.8554 14.2781 18.8086 14.1845 18.8086ZM12.3941 22.7407C12.3239 22.9279 12.2186 23.0917 12.0782 23.2439C11.9378 23.3843 11.7857 23.5013 11.6101 23.5832C11.2357 23.7588 10.8027 23.7588 10.4283 23.5832C10.2528 23.5013 10.0889 23.3843 9.94852 23.2439C9.80811 23.1034 9.70279 22.9279 9.63258 22.7407C9.49216 22.3428 9.49216 21.9098 9.63258 21.5119C9.70279 21.3247 9.80811 21.1725 9.94852 21.0204C10.0889 20.88 10.2411 20.7629 10.4283 20.681C10.8027 20.5055 11.2357 20.5055 11.5984 20.681C11.774 20.7629 11.9378 20.8682 12.0665 21.0087C12.1952 21.1491 12.3005 21.3129 12.3824 21.5002C12.5463 21.9098 12.5463 22.3428 12.3941 22.7407ZM27.3604 21.9449C27.1732 21.781 26.9509 21.6406 26.7168 21.547C26.4711 21.4417 26.202 21.3715 25.9445 21.3129L24.9382 21.114C24.6808 21.0672 24.4935 20.997 24.3999 20.9151C24.318 20.8565 24.2595 20.7629 24.2595 20.6576C24.2595 20.5523 24.318 20.4587 24.4467 20.3767C24.6223 20.2831 24.8095 20.2363 25.0084 20.248C25.2658 20.248 25.5233 20.3065 25.7573 20.4002C25.9913 20.5055 26.2137 20.6108 26.4243 20.7512C26.7168 20.9385 26.9743 20.9034 27.1498 20.6927L27.6295 20.1427C27.7232 20.0491 27.77 19.932 27.7817 19.8033C27.77 19.6629 27.6998 19.5459 27.5944 19.4522C27.3955 19.2767 27.0679 19.0895 26.6349 18.9022C26.202 18.715 25.652 18.6214 25.0084 18.6214C24.6105 18.6097 24.2244 18.6682 23.85 18.7852C23.534 18.8905 23.2298 19.0427 22.9606 19.2416C22.7149 19.4288 22.5277 19.6629 22.3873 19.9437C22.2585 20.2129 22.1883 20.5055 22.1883 20.798C22.1883 21.3481 22.3522 21.7927 22.6798 22.1204C23.0074 22.4481 23.4404 22.6704 23.9787 22.7758L25.0318 23.0098C25.2541 23.0449 25.4882 23.1151 25.6988 23.2205C25.8158 23.2673 25.886 23.3843 25.886 23.513C25.886 23.63 25.8275 23.7354 25.6988 23.829C25.5701 23.9226 25.3594 23.9811 25.0786 23.9811C24.7978 23.9811 24.5052 23.9226 24.2478 23.7939C24.0021 23.6769 23.7797 23.5247 23.5691 23.3492C23.4755 23.279 23.3819 23.2205 23.2649 23.1736C23.1479 23.1385 22.9957 23.1736 22.8436 23.3024L22.2702 23.7354C22.1064 23.8524 22.0245 24.0513 22.0713 24.2386C22.1064 24.4375 22.2585 24.6248 22.5511 24.8471C23.2766 25.3386 24.1425 25.5961 25.0201 25.5727C25.4297 25.5727 25.8392 25.5259 26.2254 25.4088C26.5647 25.3035 26.8806 25.1514 27.1615 24.9407C27.4189 24.7535 27.6295 24.5077 27.77 24.2152C27.9104 23.9343 27.9806 23.63 27.9806 23.3141C27.9923 23.0332 27.9338 22.7524 27.8168 22.4949C27.6998 22.3077 27.5476 22.1087 27.3604 21.9449ZM33.141 23.5481C33.0825 23.4428 32.9771 23.3726 32.8484 23.3492C32.7314 23.3492 32.6027 23.3843 32.5091 23.4545C32.3453 23.5598 32.158 23.6183 31.9708 23.63C31.9123 23.63 31.8421 23.6183 31.7836 23.6066C31.7134 23.5949 31.6549 23.5598 31.6081 23.513C31.5496 23.4545 31.5028 23.3843 31.4677 23.3141C31.4208 23.1971 31.3974 23.08 31.4091 22.963V20.564H33.1176C33.2229 20.564 33.3165 20.5172 33.3867 20.447C33.4569 20.3767 33.5037 20.2948 33.5037 20.1895V19.1714C33.5037 19.0661 33.4686 18.9724 33.3867 18.9139C33.3165 18.8437 33.2229 18.8086 33.1293 18.8086H31.4091V17.1703C31.4091 17.0766 31.374 16.9713 31.3038 16.9128C31.2336 16.8543 31.1517 16.8192 31.0581 16.8075H29.7241C29.6305 16.8075 29.5369 16.8426 29.4667 16.9128C29.3965 16.983 29.3497 17.0766 29.3497 17.1703V18.8086H28.5891C28.4955 18.8086 28.4018 18.8437 28.3316 18.9256C28.2731 18.9958 28.238 19.0895 28.238 19.1831V20.2012C28.238 20.2948 28.2731 20.3884 28.3316 20.4587C28.3901 20.5406 28.4838 20.5757 28.5891 20.5757H29.3497V23.4311C29.338 23.7705 29.4082 24.1098 29.5486 24.4141C29.6773 24.6716 29.8411 24.8939 30.0635 25.0812C30.2741 25.2567 30.5198 25.3854 30.789 25.4556C31.0581 25.5376 31.3389 25.5844 31.6198 25.5844C31.9825 25.5844 32.357 25.5259 32.708 25.4088C33.0357 25.3035 33.3282 25.1163 33.5622 24.8705C33.7143 24.7184 33.726 24.4726 33.609 24.2971L33.141 23.5481ZM40.3725 18.8086H39.0502C38.9566 18.8086 38.8747 18.8437 38.8045 18.9139C38.7343 18.9841 38.6992 19.0778 38.6992 19.1831V19.3469C38.5354 19.148 38.3365 18.9958 38.1024 18.8905C37.7397 18.715 37.3418 18.6331 36.944 18.6331C36.0898 18.6331 35.2824 18.9724 34.6739 19.5693C34.3579 19.8852 34.1122 20.2597 33.9484 20.6693C33.7612 21.1257 33.6675 21.6172 33.6792 22.1087C33.6675 22.6002 33.7612 23.0917 33.9484 23.5598C34.1122 23.9694 34.3696 24.3439 34.6739 24.6599C35.2706 25.2684 36.0781 25.6078 36.9323 25.6078C37.3301 25.6195 37.728 25.5259 38.0907 25.362C38.3248 25.245 38.5354 25.0929 38.6992 24.9056V25.0812C38.6992 25.1748 38.7343 25.2684 38.8045 25.3269C38.8747 25.3971 38.9566 25.4322 39.0502 25.4322H40.3725C40.5714 25.4322 40.7236 25.2801 40.7236 25.0812V19.1948C40.7236 19.1012 40.6885 19.0076 40.63 18.9373C40.5714 18.8554 40.4778 18.8086 40.3725 18.8086ZM38.5939 22.7524C38.5237 22.9396 38.4184 23.1034 38.2779 23.2556C38.1375 23.396 37.9854 23.513 37.8099 23.5949C37.6227 23.6769 37.4237 23.7237 37.2131 23.7237C37.0025 23.7237 36.8153 23.6769 36.628 23.5949C36.4525 23.513 36.2887 23.396 36.1483 23.2556C36.0078 23.1151 35.9025 22.9396 35.844 22.7524C35.7036 22.3545 35.7036 21.9215 35.844 21.5236C35.9142 21.3363 36.0196 21.1725 36.1483 21.0321C36.2887 20.8917 36.4525 20.7746 36.628 20.6927C36.8153 20.6108 37.0142 20.564 37.2131 20.564C37.412 20.564 37.611 20.5991 37.8099 20.6927C37.9854 20.7746 38.1375 20.88 38.2779 21.0204C38.4184 21.1608 38.5237 21.3247 38.5939 21.5119C38.746 21.8981 38.746 22.3545 38.5939 22.7524ZM47.6275 23.4662L46.8669 22.8811C46.7265 22.7641 46.586 22.729 46.469 22.7758C46.3637 22.8226 46.2701 22.8928 46.1882 22.9747C46.0244 23.1736 45.8254 23.3492 45.6148 23.5013C45.3808 23.63 45.135 23.7003 44.8776 23.6769C44.5734 23.6769 44.2925 23.5949 44.0468 23.4194C43.8011 23.2439 43.6138 23.0098 43.5202 22.7172C43.45 22.5183 43.4149 22.3194 43.4149 22.1204C43.4149 21.9098 43.45 21.7108 43.5202 21.5002C43.5904 21.3129 43.6841 21.1491 43.8245 21.0087C43.9649 20.8682 44.117 20.7512 44.2925 20.681C44.4798 20.5991 44.6787 20.5523 44.8893 20.5523C45.1468 20.5406 45.4042 20.6108 45.6265 20.7395C45.8488 20.88 46.0361 21.0555 46.1999 21.2661C46.2701 21.3481 46.3637 21.4183 46.469 21.4651C46.586 21.5119 46.7265 21.4768 46.8669 21.3598L47.6275 20.7863C47.7211 20.7278 47.7913 20.6342 47.8264 20.5289C47.8732 20.4119 47.8615 20.2831 47.7913 20.1778C47.4988 19.7214 47.1009 19.3469 46.6211 19.0778C46.118 18.7969 45.5212 18.6448 44.8542 18.6448C44.3862 18.6448 43.9181 18.7384 43.4734 18.9139C43.0522 19.0895 42.6777 19.3352 42.3618 19.6512C42.0458 19.9672 41.7884 20.3416 41.6129 20.7629C41.2501 21.6406 41.2501 22.6236 41.6129 23.5013C41.7884 23.9109 42.0341 24.2971 42.3618 24.6014C43.0288 25.2567 43.9181 25.6078 44.8542 25.6078C45.5212 25.6078 46.118 25.4556 46.6211 25.1748C47.1009 24.9056 47.5105 24.5311 47.803 24.063C47.8615 23.9577 47.8732 23.829 47.8381 23.7237C47.7913 23.63 47.7211 23.5364 47.6275 23.4662ZM54.6718 24.8354L52.5772 21.7693L54.3676 19.4054C54.4495 19.3001 54.4846 19.148 54.4378 19.0193C54.4027 18.9256 54.3208 18.832 54.0984 18.832H52.6825C52.6006 18.832 52.5187 18.8554 52.4485 18.8905C52.3549 18.9373 52.2847 19.0075 52.2379 19.0895L50.8103 21.0906H50.471V16.3628C50.471 16.2692 50.4358 16.1755 50.3656 16.1053C50.2954 16.0351 50.2135 16 50.1199 16H48.7976C48.704 16 48.6104 16.0351 48.5402 16.1053C48.47 16.1755 48.4349 16.2575 48.4349 16.3628V25.0812C48.4349 25.1865 48.47 25.2684 48.5402 25.3386C48.6104 25.4088 48.704 25.4439 48.7976 25.4439H50.1199C50.2135 25.4439 50.3071 25.4088 50.3656 25.3386C50.4358 25.2684 50.471 25.1748 50.471 25.0812V22.7758H50.8454L52.4017 25.1631C52.4953 25.3386 52.6708 25.4439 52.8581 25.4439H54.3442C54.5665 25.4439 54.6601 25.3386 54.7069 25.245C54.7654 25.0929 54.7537 24.9407 54.6718 24.8354ZM21.6969 18.8203H20.2108C20.0938 18.8203 19.9884 18.8554 19.9065 18.9373C19.8363 19.0076 19.7895 19.0895 19.7661 19.1831L18.6662 23.2556H18.397L17.2269 19.1831C17.2035 19.1012 17.1684 19.0193 17.1099 18.9373C17.0397 18.8554 16.946 18.8086 16.8407 18.8086H15.3312C15.1323 18.8086 15.0153 18.8671 14.9568 19.0075C14.9217 19.1246 14.9217 19.2533 14.9568 19.3703L16.829 25.1046C16.8641 25.1865 16.8992 25.2801 16.9694 25.3386C17.0397 25.4088 17.145 25.4439 17.2503 25.4439H18.046L17.9758 25.6312L17.8003 26.1578C17.7417 26.3216 17.6481 26.4621 17.5077 26.5674C17.379 26.661 17.2269 26.7195 17.0631 26.7078C16.9226 26.7078 16.7939 26.6727 16.6652 26.6259C16.5365 26.5674 16.4195 26.4972 16.3142 26.4152C16.2205 26.345 16.1035 26.3099 15.9748 26.3099H15.9631C15.8227 26.3216 15.694 26.3918 15.6238 26.5206L15.1557 27.211C14.9685 27.5153 15.0738 27.7025 15.1908 27.8078C15.4482 28.0419 15.7408 28.2174 16.0684 28.3228C16.4312 28.4515 16.8056 28.51 17.1801 28.51C17.8588 28.51 18.4204 28.3228 18.8534 27.96C19.2981 27.5621 19.6374 27.0472 19.8012 26.4621L21.9777 19.3703C22.0245 19.2416 22.0362 19.1129 21.9894 18.9958C21.9777 18.9139 21.8958 18.8086 21.6969 18.8203Z" fill="#131E32"/>
</svg>
