<svg width="53" height="22" viewBox="0 0 53 22" fill="none" xmlns="http://www.w3.org/2000/svg">
<path d="M3.69798 8.56148C3.69798 7.98592 4.15843 7.77008 4.93544 7.77008C6.0434 7.77008 7.43913 8.10103 8.54709 8.70537V5.28078C7.33841 4.80594 6.14412 4.60449 4.93544 4.60449C1.9713 4.60449 0 6.15851 0 8.73415C0 12.7631 5.53978 12.1156 5.53978 13.8566C5.53978 14.5329 4.94983 14.7488 4.14404 14.7488C2.93536 14.7488 1.38135 14.2595 0.158279 13.5833V17.051C1.51085 17.641 2.8922 17.8856 4.14404 17.8856C7.18013 17.8856 9.26654 16.3891 9.26654 13.7703C9.25215 9.42482 3.69798 10.2018 3.69798 8.56148ZM13.5545 1.69791L10.0004 2.44614L9.98599 14.13C9.98599 16.2884 11.612 17.8856 13.7703 17.8856C14.9646 17.8856 15.8423 17.6697 16.3172 17.4107V14.4466C15.8567 14.6337 13.5401 15.3099 13.5401 13.1516V7.97153H16.3172V4.8635H13.5401L13.5545 1.69791ZM20.8497 5.94267L20.6195 4.8635H17.4683V17.6266H21.1087V8.97876C21.9721 7.85642 23.4254 8.05786 23.8858 8.21614V4.8635C23.411 4.67644 21.7131 4.35988 20.8497 5.94267ZM24.7779 4.8635H28.4327V17.6266H24.7779V4.8635ZM24.7779 3.75554L28.4327 2.96414V0L24.7779 0.777008V3.75554ZM36.0445 4.60449C34.62 4.60449 33.6991 5.28078 33.1811 5.74123L32.9941 4.83472H29.7853V21.8426L33.4257 21.0656L33.4401 16.9359C33.9581 17.31 34.7351 17.8568 36.0158 17.8568C38.6202 17.8568 41.0088 15.756 41.0088 11.1371C41.0088 6.92113 38.6058 4.60449 36.0445 4.60449ZM35.1668 14.6624C34.3035 14.6624 33.7999 14.3603 33.4401 13.9718L33.4257 8.56148C33.7999 8.1442 34.3323 7.84203 35.1668 7.84203C36.4906 7.84203 37.4115 9.3241 37.4115 11.2378C37.4259 13.2091 36.5194 14.6624 35.1668 14.6624ZM52.52 11.2954C52.52 7.55425 50.707 4.61888 47.2536 4.61888C43.7859 4.61888 41.6851 7.56864 41.6851 11.2666C41.6851 15.6553 44.16 17.8712 47.7285 17.8712C49.4695 17.8712 50.7789 17.4827 51.7718 16.9215V14.0005C50.7789 14.4898 49.6422 14.8063 48.2033 14.8063C46.7932 14.8063 45.5269 14.3171 45.3686 12.5904H52.5056C52.4912 12.4034 52.52 11.6407 52.52 11.2954ZM45.3111 9.89966C45.3111 8.24492 46.3183 7.56864 47.2392 7.56864C48.1313 7.56864 49.081 8.25931 49.081 9.89966H45.3111Z" fill="#6772E5"/>
</svg>
