<svg width="18" height="21" viewBox="0 0 18 21" fill="none" xmlns="http://www.w3.org/2000/svg">
<path d="M9 12.7705C8.71667 12.7705 8.47933 12.6745 8.288 12.4825C8.096 12.2912 8 12.0538 8 11.7705C8 11.4872 8.096 11.2495 8.288 11.0575C8.47933 10.8662 8.71667 10.7705 9 10.7705C9.28333 10.7705 9.521 10.8662 9.713 11.0575C9.90433 11.2495 10 11.4872 10 11.7705C10 12.0538 9.90433 12.2912 9.713 12.4825C9.521 12.6745 9.28333 12.7705 9 12.7705ZM5 12.7705C4.71667 12.7705 4.479 12.6745 4.287 12.4825C4.09567 12.2912 4 12.0538 4 11.7705C4 11.4872 4.09567 11.2495 4.287 11.0575C4.479 10.8662 4.71667 10.7705 5 10.7705C5.28333 10.7705 5.521 10.8662 5.713 11.0575C5.90433 11.2495 6 11.4872 6 11.7705C6 12.0538 5.90433 12.2912 5.713 12.4825C5.521 12.6745 5.28333 12.7705 5 12.7705ZM13 12.7705C12.7167 12.7705 12.4793 12.6745 12.288 12.4825C12.096 12.2912 12 12.0538 12 11.7705C12 11.4872 12.096 11.2495 12.288 11.0575C12.4793 10.8662 12.7167 10.7705 13 10.7705C13.2833 10.7705 13.5207 10.8662 13.712 11.0575C13.904 11.2495 14 11.4872 14 11.7705C14 12.0538 13.904 12.2912 13.712 12.4825C13.5207 12.6745 13.2833 12.7705 13 12.7705ZM9 16.7705C8.71667 16.7705 8.47933 16.6745 8.288 16.4825C8.096 16.2912 8 16.0538 8 15.7705C8 15.4872 8.096 15.2498 8.288 15.0585C8.47933 14.8665 8.71667 14.7705 9 14.7705C9.28333 14.7705 9.521 14.8665 9.713 15.0585C9.90433 15.2498 10 15.4872 10 15.7705C10 16.0538 9.90433 16.2912 9.713 16.4825C9.521 16.6745 9.28333 16.7705 9 16.7705ZM5 16.7705C4.71667 16.7705 4.479 16.6745 4.287 16.4825C4.09567 16.2912 4 16.0538 4 15.7705C4 15.4872 4.09567 15.2498 4.287 15.0585C4.479 14.8665 4.71667 14.7705 5 14.7705C5.28333 14.7705 5.521 14.8665 5.713 15.0585C5.90433 15.2498 6 15.4872 6 15.7705C6 16.0538 5.90433 16.2912 5.713 16.4825C5.521 16.6745 5.28333 16.7705 5 16.7705ZM13 16.7705C12.7167 16.7705 12.4793 16.6745 12.288 16.4825C12.096 16.2912 12 16.0538 12 15.7705C12 15.4872 12.096 15.2498 12.288 15.0585C12.4793 14.8665 12.7167 14.7705 13 14.7705C13.2833 14.7705 13.5207 14.8665 13.712 15.0585C13.904 15.2498 14 15.4872 14 15.7705C14 16.0538 13.904 16.2912 13.712 16.4825C13.5207 16.6745 13.2833 16.7705 13 16.7705ZM2 20.7705C1.45 20.7705 0.979 20.5748 0.587 20.1835C0.195667 19.7915 0 19.3205 0 18.7705V4.77051C0 4.22051 0.195667 3.74984 0.587 3.35851C0.979 2.96651 1.45 2.77051 2 2.77051H3V0.770508H5V2.77051H13V0.770508H15V2.77051H16C16.55 2.77051 17.021 2.96651 17.413 3.35851C17.8043 3.74984 18 4.22051 18 4.77051V18.7705C18 19.3205 17.8043 19.7915 17.413 20.1835C17.021 20.5748 16.55 20.7705 16 20.7705H2ZM2 18.7705H16V8.77051H2V18.7705Z" fill="#828282"/>
</svg>
