<svg width="100" height="103" viewBox="0 0 100 103" fill="none" xmlns="http://www.w3.org/2000/svg">
<circle cx="49.8442" cy="49.8442" r="49.5942" fill="#BDBDBD" stroke="#BDBDBD" stroke-width="0.5"/>
<mask id="mask0_1166_2863" style="mask-type:alpha" maskUnits="userSpaceOnUse" x="33" y="34" width="33" height="32">
<rect x="33.936" y="34.1133" width="31.4806" height="31.4806" fill="white"/>
</mask>
<g mask="url(#mask0_1166_2863)">
<path d="M40.4947 61.6588C39.7733 61.6588 39.1555 61.4021 38.6413 60.8888C38.128 60.3746 37.8713 59.7568 37.8713 59.0354V40.6717C37.8713 39.9503 38.128 39.3325 38.6413 38.8183C39.1555 38.305 39.7733 38.0483 40.4947 38.0483H58.8584C59.5798 38.0483 60.1976 38.305 60.7118 38.8183C61.2251 39.3325 61.4818 39.9503 61.4818 40.6717V59.0354C61.4818 59.7568 61.2251 60.3746 60.7118 60.8888C60.1976 61.4021 59.5798 61.6588 58.8584 61.6588H40.4947ZM41.8064 50.6078L46.135 46.2792C46.2662 46.148 46.4083 46.0549 46.5613 45.9998C46.7143 45.9456 46.8783 45.9185 47.0532 45.9185C47.2281 45.9185 47.392 45.9456 47.5451 45.9998C47.6981 46.0549 47.8402 46.148 47.9714 46.2792L52.2999 50.6078L56.6285 46.2792C56.7597 46.148 56.9018 46.0549 57.0548 45.9998C57.2078 45.9456 57.3718 45.9185 57.5467 45.9185C57.7216 45.9185 57.8855 45.9456 58.0386 45.9998C58.1916 46.0549 58.3337 46.148 58.4649 46.2792L58.8584 46.6727V40.6717H40.4947V49.2961L41.8064 50.6078ZM40.4947 59.0354H58.8584V50.3782L57.5467 49.0665L53.2181 53.3951C53.1088 53.5044 52.9724 53.5919 52.8089 53.6575C52.6445 53.723 52.4748 53.7558 52.2999 53.7558C52.125 53.7558 51.9611 53.723 51.808 53.6575C51.655 53.5919 51.5129 53.5044 51.3817 53.3951L47.0532 49.0665L42.7246 53.3951C42.5934 53.5263 42.4513 53.619 42.2983 53.6732C42.1453 53.7283 41.9813 53.7558 41.8064 53.7558C41.6315 53.7558 41.4676 53.7283 41.3145 53.6732C41.1615 53.619 41.0194 53.5263 40.8882 53.3951L40.4947 53.0016V59.0354ZM40.4947 59.0354V50.3782V53.0016V59.0354Z" fill="white"/>
</g>
<circle cx="13.1169" cy="13.1169" r="14.1169" transform="matrix(-1 0 0 1 94.4417 74.7661)" fill="black" stroke="white" stroke-width="2"/>
<path d="M75.9688 84.0572H76.7339C77.1398 84.0572 77.529 83.8959 77.816 83.609C78.103 83.322 78.2642 82.9327 78.2642 82.5269C78.2642 82.3239 78.3449 82.1293 78.4883 81.9858C78.6318 81.8423 78.8265 81.7617 79.0294 81.7617H83.6203C83.8232 81.7617 84.0179 81.8423 84.1614 81.9858C84.3048 82.1293 84.3855 82.3239 84.3855 82.5269C84.3855 82.9327 84.5467 83.322 84.8337 83.609C85.1207 83.8959 85.5099 84.0572 85.9158 84.0572H86.6809C87.0868 84.0572 87.476 84.2184 87.763 84.5054C88.05 84.7924 88.2112 85.1816 88.2112 85.5875V92.4739C88.2112 92.8797 88.05 93.269 87.763 93.5559C87.476 93.8429 87.0868 94.0042 86.6809 94.0042H75.9688C75.5629 94.0042 75.1737 93.8429 74.8867 93.5559C74.5997 93.269 74.4385 92.8797 74.4385 92.4739V85.5875C74.4385 85.1816 74.5997 84.7924 74.8867 84.5054C75.1737 84.2184 75.5629 84.0572 75.9688 84.0572" stroke="white" stroke-width="1.5" stroke-linecap="round" stroke-linejoin="round"/>
<path d="M81.325 90.9435C82.5927 90.9435 83.6205 89.9157 83.6205 88.648C83.6205 87.3803 82.5927 86.3525 81.325 86.3525C80.0573 86.3525 79.0295 87.3803 79.0295 88.648C79.0295 89.9157 80.0573 90.9435 81.325 90.9435Z" stroke="white" stroke-width="1.5" stroke-linecap="round" stroke-linejoin="round"/>
</svg>
