<svg width="25" height="25" viewBox="0 0 25 25" fill="none" xmlns="http://www.w3.org/2000/svg">
<path d="M11.8569 11.4146C6.176 17.5241 1.40215 22.7351 1.25893 23.0175C1.06798 23.3769 1.11571 23.6079 1.49762 23.993C2.11822 24.6604 2.38079 24.4807 4.71997 21.965L6.58178 19.9371L8.30036 20.5532C10.4486 21.349 13.5755 21.426 15.7476 20.7585C19.7576 19.5007 23.4335 16.2663 24.1734 13.3655C24.6747 11.4403 23.4335 8.97594 20.9988 6.92233L19.7099 5.84419L21.5955 3.7649C22.6458 2.60975 23.5051 1.55727 23.5051 1.42892C23.5051 1.12088 22.7174 0.325104 22.4071 0.325104C22.3116 0.325104 17.5378 5.33078 11.8569 11.4146ZM16.8217 10.9782C17.3946 13.2115 16.6307 15.4191 14.8405 16.7027C14.0529 17.2674 13.6232 17.3958 12.4297 17.3701C11.6182 17.3701 10.6634 17.2417 10.2815 17.062L9.56543 16.7283L10.2099 16.0352C10.7589 15.4705 11.0692 15.3421 12.1672 15.3421C13.3129 15.3421 13.5516 15.2395 14.2438 14.495C14.936 13.7506 15.0315 13.4939 15.0315 12.2617C15.0315 11.1579 15.1508 10.7472 15.6044 10.2338C15.9147 9.8744 16.2488 9.64337 16.3443 9.69471C16.4398 9.74605 16.6546 10.3365 16.8217 10.9782Z" fill="#828282"/>
<path d="M10.4725 3.66222C7.63202 4.09862 4.67223 5.71583 2.61948 7.8978C-0.38805 11.1066 -0.483527 13.3912 2.28531 16.6L3.43103 17.9092L5.43605 15.7785C7.44107 13.6222 7.44107 13.6222 7.58428 12.082C7.82298 9.30965 9.42222 7.58975 12.024 7.33305C13.3606 7.2047 13.5039 7.10202 14.7928 5.71583C15.5327 4.89439 16.0579 4.17563 15.9385 4.09862C15.6521 3.89325 12.7639 3.40552 12.1672 3.43119C11.9046 3.45686 11.1408 3.55954 10.4725 3.66222Z" fill="#828282"/>
</svg>
