<svg width="62" height="62" viewBox="0 0 62 62" fill="none" xmlns="http://www.w3.org/2000/svg">
<rect width="62" height="62" rx="10" fill="#F2F2F2"/>
<path fill-rule="evenodd" clip-rule="evenodd" d="M6.93485 19.7939H5C5 21.1229 5.86475 21.5668 6.87989 21.9081L6.93485 19.7939Z" fill="#C3C3C3"/>
<path fill-rule="evenodd" clip-rule="evenodd" d="M57.3262 34.8824C57.6979 34.8824 58.0001 34.3141 58.0001 33.6171C58.0001 32.9201 57.6979 32.3518 57.3262 32.3518C56.9546 32.3518 56.6523 32.9201 56.6523 33.6171C56.6523 34.3141 56.9546 34.8824 57.3262 34.8824Z" fill="#DBDCDC"/>
<path d="M41.233 22.4055H33.3057V34.0522H41.233V22.4055Z" fill="#4F5253"/>
<path fill-rule="evenodd" clip-rule="evenodd" d="M55.9636 39.3549L8.20703 39.3853V32.0248L55.9636 31.9944L57.0308 39.3506L55.9636 39.3549Z" fill="#1B2023"/>
<path fill-rule="evenodd" clip-rule="evenodd" d="M47.7678 39.3739L40.8643 39.3841V34.0509V22.4057C41.7478 22.3956 45.7462 22.4491 46.5965 22.6183C47.9963 22.7325 52.4459 29.639 52.751 29.7648C53.341 30.0063 57.5013 30.9361 57.5201 32.4964V39.3508L55.6894 39.3566C55.6995 39.238 55.7053 39.118 55.7053 38.998C55.7053 36.8014 53.9252 35.0198 51.7272 35.0198C49.5306 35.0198 47.749 36.7999 47.749 38.998C47.7505 39.1238 47.7562 39.2496 47.7678 39.3739Z" fill="white"/>
<path fill-rule="evenodd" clip-rule="evenodd" d="M42.5502 30.6685L44.1091 30.6728C44.3188 30.6728 44.4894 30.8449 44.488 31.0546C44.488 31.2642 44.3159 31.4349 44.1062 31.4334L42.5473 31.4291C42.3377 31.4291 42.167 31.257 42.1685 31.0473C42.1699 30.8377 42.3406 30.667 42.5502 30.6685Z" fill="#EEEEEF"/>
<path fill-rule="evenodd" clip-rule="evenodd" d="M51.8309 29.7648C50.5453 27.6347 47.8209 23.7665 47.2743 23.7317L41.8602 23.6421L41.8501 29.785L51.8309 29.7648Z" fill="#485157"/>
<path fill-rule="evenodd" clip-rule="evenodd" d="M51.4713 29.5621C51.0057 28.8 47.7853 24.1162 47.2792 24.0482L42.0082 23.9614L42.0039 29.5823L51.4713 29.5621Z" fill="#80CEF3"/>
<path fill-rule="evenodd" clip-rule="evenodd" d="M6.60352 34.0521V19.2979H40.8653V34.0521V39.3852H17.6226C17.6356 39.258 17.6414 39.1278 17.6414 38.9962C17.6414 36.7997 15.8613 35.0181 13.6632 35.0181C11.4667 35.0181 9.6851 36.7997 9.6851 38.9962C9.6851 39.1278 9.69233 39.2565 9.7039 39.3852H6.60352V34.0521Z" fill="white"/>
<path fill-rule="evenodd" clip-rule="evenodd" d="M41.9344 38.7534V39.3839H17.6216C17.6346 39.2566 17.6404 39.1265 17.6404 38.9949C17.6404 38.9139 17.6375 38.8329 17.6332 38.752H41.9344V38.7534Z" fill="white"/>
<path fill-rule="evenodd" clip-rule="evenodd" d="M32.0589 21.376H38.238C38.3971 21.376 38.5402 21.441 38.6458 21.5452C38.7499 21.6493 38.815 21.7939 38.815 21.9515V37.3854C38.815 37.7021 38.5561 37.9624 38.238 37.9624H32.0589C31.8999 37.9624 31.7567 37.8974 31.6526 37.7932C31.5485 37.6891 31.4834 37.5445 31.4834 37.3869V21.953C31.4834 21.7953 31.5485 21.6507 31.6526 21.5466C31.7567 21.441 31.9013 21.376 32.0589 21.376ZM38.238 21.4671H32.0589C31.9259 21.4671 31.8044 21.522 31.7162 21.6102C31.628 21.6985 31.5731 21.8199 31.5731 21.953V37.3869C31.5731 37.5199 31.628 37.6414 31.7162 37.7296C31.8044 37.8178 31.9259 37.8728 32.0589 37.8728H38.238C38.5055 37.8728 38.7239 37.6544 38.7239 37.3869V21.953C38.7239 21.8199 38.6689 21.6985 38.5807 21.6102C38.4925 21.522 38.371 21.4671 38.238 21.4671Z" fill="#8C9798"/>
<path d="M47.5315 38.7534H17.4243V39.5285H47.5315V38.7534Z" fill="#9E9E9F"/>
<path fill-rule="evenodd" clip-rule="evenodd" d="M6.32481 37.1165H7.80848H8.38691V39.3839H6.32481C5.87363 39.3839 5.50488 39.0947 5.50488 38.7404V37.76C5.50488 37.7325 5.50777 37.705 5.51211 37.679C5.50777 37.6529 5.50488 37.6269 5.50488 37.5994V37.1165H6.32481Z" fill="#CED0D1"/>
<path d="M7.3092 34.0522H6.60352V36.8649H7.3092V34.0522Z" fill="#EE7C00"/>
<path d="M31.4832 26.6746H6.60352V31.4148H31.4832V26.6746Z" fill="#E50013"/>
<path d="M38.7241 26.6746H31.5747V31.4148H38.7241V26.6746Z" fill="#E50013"/>
<path fill-rule="evenodd" clip-rule="evenodd" d="M31.729 30.0146V28.4558C31.729 28.2461 31.8996 28.0754 32.1093 28.0754C32.319 28.0754 32.4896 28.2461 32.4896 28.4558V30.0146C32.4896 30.2243 32.319 30.3949 32.1093 30.3949C31.9011 30.3949 31.729 30.2243 31.729 30.0146Z" fill="#CE131C"/>
<path d="M40.864 26.6746H38.8149V31.4148H40.864V26.6746Z" fill="#E50013"/>
<path fill-rule="evenodd" clip-rule="evenodd" d="M56.074 32.6106H56.917C57.0313 32.6106 57.1253 32.7046 57.1253 32.8188V33.1384C57.1253 33.2527 57.0313 33.3466 56.917 33.3466H56.074C55.9597 33.3466 55.8657 33.2527 55.8657 33.1384V32.8188C55.8657 32.7046 55.9597 32.6106 56.074 32.6106Z" fill="#EF8200"/>
<path d="M30.7994 22.0527H24V25.4915H30.7994V22.0527Z" fill="#485157"/>
<path d="M23.0514 22.0527H16.252V25.4915H23.0514V22.0527Z" fill="#485157"/>
<path d="M15.3033 22.0527H8.50391V25.4915H15.3033V22.0527Z" fill="#485157"/>
<path d="M38.5489 22.0527H31.7495V25.4915H38.5489V22.0527Z" fill="#485157"/>
<path d="M38.3333 22.2681H31.9634V25.2759H38.3333V22.2681Z" fill="#80CEF3"/>
<path d="M15.0877 22.2681H8.71777V25.2759H15.0877V22.2681Z" fill="#80CEF3"/>
<path d="M22.8372 22.2681H16.4673V25.2759H22.8372V22.2681Z" fill="#80CEF3"/>
<path d="M30.5853 22.2681H24.2153V25.2759H30.5853V22.2681Z" fill="#80CEF3"/>
<path fill-rule="evenodd" clip-rule="evenodd" d="M35.298 30.9026C36.3695 30.9026 37.2444 30.0277 37.2444 28.9562C37.2444 27.8846 36.3695 27.0098 35.298 27.0098C34.2264 27.0098 33.3516 27.8846 33.3516 28.9562C33.3516 30.0292 34.2264 30.9026 35.298 30.9026Z" fill="white"/>
<path fill-rule="evenodd" clip-rule="evenodd" d="M33.7944 29.461V28.4531H34.7951V27.4524H35.8016V28.4531H36.8023V29.461H35.8016V30.4602H34.7951V29.461H33.7944Z" fill="#E50013"/>
<path fill-rule="evenodd" clip-rule="evenodd" d="M9.81264 29.8644L9.69984 30.5657H9.22119L9.73889 27.5189H10.3708L10.8813 30.5657H10.3983L10.2913 29.8644H9.81264ZM10.0512 28.2173L9.8806 29.4147H10.2219L10.0512 28.2173ZM11.7258 30.5657H11.2674V27.516H11.9268L12.3548 29.7111L12.7684 27.516H13.3989V30.5657H12.9405V28.6497L12.5399 30.5657H12.1697L11.7243 28.6555V30.5657H11.7258ZM13.8096 30.5657V27.516H14.4965C14.6772 27.516 14.8421 27.5637 14.9867 27.6591C15.111 27.7401 15.2007 27.8659 15.2542 28.0351C15.2831 28.1262 15.2976 28.2332 15.2976 28.359C15.2976 28.5629 15.2441 28.7263 15.1356 28.8507C15.0894 28.9027 15.0373 28.9432 14.9751 28.9693C15.0778 29.0083 15.1631 29.085 15.234 29.2006C15.2802 29.2787 15.3149 29.3785 15.3381 29.5029C15.3496 29.5665 15.3554 29.6359 15.3554 29.714C15.3554 29.9063 15.3193 30.0712 15.2455 30.2057C15.1891 30.3112 15.1096 30.3951 15.0055 30.4587C14.8898 30.5296 14.7727 30.5657 14.6584 30.5657H13.8096ZM14.3056 30.1102H14.4965C14.6512 30.1102 14.7582 30.0307 14.8175 29.8702C14.8392 29.8152 14.8493 29.7516 14.8493 29.6807C14.8493 29.5115 14.8175 29.3872 14.7524 29.3105C14.6946 29.2397 14.6093 29.2035 14.4965 29.2035H14.3056V30.1102ZM14.3056 28.7625H14.4965C14.6382 28.7625 14.7336 28.6916 14.7813 28.5528C14.7987 28.5007 14.8088 28.4371 14.8088 28.3605C14.8088 28.2332 14.7784 28.1378 14.7163 28.0727C14.6599 28.0134 14.5861 27.983 14.4965 27.983H14.3056V28.7625ZM16.4776 30.6004C16.2751 30.6004 16.1031 30.5296 15.9628 30.3893C15.8225 30.249 15.7517 30.077 15.7517 29.876V27.5189H16.1999V29.8716C16.1999 29.9439 16.226 30.0061 16.278 30.0582C16.3301 30.1088 16.3923 30.1348 16.4646 30.1348C16.5369 30.1348 16.5991 30.1088 16.6511 30.0582C16.7017 30.0075 16.7278 29.9439 16.7278 29.8716V27.5189H17.2064V29.8745C17.2064 30.0784 17.1355 30.2505 16.9924 30.3893C16.8507 30.531 16.6786 30.6004 16.4776 30.6004ZM18.8694 30.5657H17.6171V27.5189H18.0755V30.1059H18.8694V30.5657ZM19.7761 29.8644L19.6633 30.5657H19.1846L19.7023 27.5189H20.3343L20.8447 30.5657H20.3617L20.2547 29.8644H19.7761ZM20.0161 28.2173L19.8455 29.4147H20.1868L20.0161 28.2173ZM21.7485 27.516L22.3588 29.5622V27.516H22.8172V30.5657H22.3241L21.6921 28.6135V30.5657H21.2337V27.516H21.7485ZM23.948 30.6033C23.7455 30.6033 23.5735 30.5325 23.4317 30.3908C23.29 30.249 23.2192 30.077 23.2192 29.8774V28.2144C23.2192 28.012 23.29 27.8399 23.4332 27.6982C23.5749 27.5565 23.747 27.4856 23.948 27.4856C24.1504 27.4856 24.3225 27.5565 24.4628 27.6996C24.6031 27.8428 24.6739 28.0134 24.6739 28.2159V28.5644H24.1982V28.2072C24.1982 28.1349 24.1721 28.0727 24.1201 28.0206C24.068 27.9686 24.0058 27.9426 23.9335 27.9426C23.8612 27.9426 23.799 27.9686 23.747 28.0206C23.6964 28.0727 23.6703 28.1349 23.6703 28.2072V29.8745C23.6703 29.9483 23.6964 30.009 23.747 30.0611C23.7976 30.1117 23.8598 30.1377 23.9335 30.1377C24.0073 30.1377 24.0695 30.1117 24.1201 30.0611C24.1721 30.0104 24.1982 29.9483 24.1982 29.8745V29.4551H24.6739V29.8803C24.6739 30.0827 24.6031 30.2548 24.4599 30.3951C24.3182 30.5339 24.1476 30.6033 23.948 30.6033ZM25.0528 30.5657V27.516H26.3615V27.9787H25.5126V28.8102H26.1316V29.2729H25.5126V30.1044H26.3615V30.5672H25.0528V30.5657Z" fill="white"/>
<path fill-rule="evenodd" clip-rule="evenodd" d="M19.1255 32.9316H29.4866C29.5704 32.9316 29.6456 32.9663 29.7006 33.0213C29.7555 33.0762 29.7902 33.1514 29.7902 33.2353V37.4983C29.7902 37.5822 29.7555 37.6574 29.7006 37.7124C29.6456 37.7673 29.5704 37.802 29.4866 37.802H19.1255C19.0416 37.802 18.9664 37.7673 18.9114 37.7124C18.8565 37.6574 18.8218 37.5822 18.8218 37.4983V33.2339C18.8218 33.15 18.8565 33.0748 18.9114 33.0199C18.9664 32.9649 19.0416 32.9316 19.1255 32.9316ZM29.4851 32.9823H19.1255C19.056 32.9823 18.9939 33.0112 18.9476 33.056C18.9013 33.1023 18.8738 33.1645 18.8738 33.2339V37.4969C18.8738 37.5663 18.9028 37.6285 18.9476 37.6748C18.9939 37.721 19.056 37.7485 19.1255 37.7485H29.4866C29.556 37.7485 29.6182 37.7196 29.6644 37.6748C29.7107 37.6285 29.7382 37.5663 29.7382 37.4969V33.2339C29.7382 33.1645 29.7093 33.1023 29.6644 33.056C29.6182 33.0112 29.5545 32.9823 29.4851 32.9823Z" fill="#8C9798"/>
<path fill-rule="evenodd" clip-rule="evenodd" d="M23.3666 33.7876H25.2451C25.3535 33.7876 25.4417 33.8758 25.4417 33.9843C25.4417 34.0927 25.3535 34.1809 25.2451 34.1809H23.3666C23.2581 34.1809 23.1699 34.0927 23.1699 33.9843C23.1685 33.8758 23.2581 33.7876 23.3666 33.7876Z" fill="#595857"/>
<path fill-rule="evenodd" clip-rule="evenodd" d="M24.3052 35.0428C24.4686 35.0428 24.6017 34.9098 24.6017 34.7464C24.6017 34.583 24.4686 34.45 24.3052 34.45C24.1418 34.45 24.0088 34.583 24.0088 34.7464C24.0088 34.9098 24.1418 35.0428 24.3052 35.0428Z" fill="#3E3A39"/>
<path fill-rule="evenodd" clip-rule="evenodd" d="M51.6954 34.3965C49.1214 34.3965 47.0361 36.5468 47.0361 39.2003C47.0361 39.3146 47.0405 39.4274 47.0477 39.5387H47.9139C47.778 37.9943 48.5386 36.4456 49.9543 35.682C51.8284 34.6712 54.1436 35.4189 55.1226 37.3508C55.4769 38.0493 55.6085 38.807 55.5434 39.5387H56.3431C56.3503 39.4274 56.3546 39.3131 56.3546 39.2003C56.3546 36.5468 54.2694 34.3965 51.6954 34.3965Z" fill="#DBDCDC"/>
<path d="M46.2068 35.4209C47.2816 35.4058 48.1408 34.5222 48.1257 33.4474C48.1107 32.3725 47.2271 31.5134 46.1523 31.5284C45.0774 31.5435 44.2183 32.427 44.2333 33.5019C44.2484 34.5767 45.1319 35.4359 46.2068 35.4209Z" fill="white"/>
<path fill-rule="evenodd" clip-rule="evenodd" d="M9.55777 20.0801H11.4087C11.5881 20.0801 11.7356 20.2276 11.7356 20.4069V20.5573C11.7356 20.7366 11.5881 20.8841 11.4087 20.8841H9.55777C9.37846 20.8841 9.23096 20.7366 9.23096 20.5573V20.4069C9.23096 20.2276 9.37846 20.0801 9.55777 20.0801Z" fill="#E50728"/>
<path fill-rule="evenodd" clip-rule="evenodd" d="M12.424 20.0801H14.275C14.4543 20.0801 14.6018 20.2276 14.6018 20.4069V20.5573C14.6018 20.7366 14.4543 20.8841 14.275 20.8841H12.424C12.2447 20.8841 12.0972 20.7366 12.0972 20.5573V20.4069C12.0972 20.2276 12.2447 20.0801 12.424 20.0801Z" fill="#80CEF3"/>
<path fill-rule="evenodd" clip-rule="evenodd" d="M32.7096 20.0803H34.5606C34.7399 20.0803 34.8874 20.2278 34.8874 20.4071V20.5575C34.8874 20.7368 34.7399 20.8843 34.5606 20.8843H32.7096C32.5303 20.8843 32.3828 20.7368 32.3828 20.5575V20.4071C32.3828 20.2278 32.5303 20.0803 32.7096 20.0803Z" fill="#E50728"/>
<path fill-rule="evenodd" clip-rule="evenodd" d="M35.5758 20.0803H37.4268C37.6061 20.0803 37.7536 20.2278 37.7536 20.4071V20.5575C37.7536 20.7368 37.6061 20.8843 37.4268 20.8843H35.5758C35.3965 20.8843 35.249 20.7368 35.249 20.5575V20.4071C35.249 20.2278 35.3965 20.0803 35.5758 20.0803Z" fill="#80CEF3"/>
<path fill-rule="evenodd" clip-rule="evenodd" d="M56.6216 37.2915H57.6165C57.777 37.2915 57.9086 37.4231 57.9086 37.5836V39.2336C57.9086 39.3941 57.777 39.5257 57.6165 39.5257H56.6216V37.2915Z" fill="#CED0D1"/>
<path d="M57.9076 38.052H57.52V38.7664H57.9076V38.052Z" fill="#EF8200"/>
<path fill-rule="evenodd" clip-rule="evenodd" d="M12.8606 41.274C13.9047 41.7671 15.1497 41.3202 15.6428 40.2762C16.1359 39.2321 15.6891 37.987 14.645 37.4939C13.601 37.0008 12.3559 37.4476 11.8628 38.4917C11.3697 39.5358 11.8165 40.7808 12.8606 41.274ZM16.8894 40.8662C16.0709 42.5986 14.003 43.3404 12.2706 42.5219C10.5382 41.7034 9.79636 39.6356 10.6148 37.9032C11.4333 36.1708 13.5012 35.4289 15.235 36.2474C16.966 37.0659 17.7078 39.1338 16.8894 40.8662Z" fill="#343436"/>
<path fill-rule="evenodd" clip-rule="evenodd" d="M15.9598 40.428C15.3842 41.6471 13.928 42.1691 12.709 41.5936C11.4885 41.018 10.9679 39.5618 11.5435 38.3428C12.119 37.1223 13.5752 36.6017 14.7942 37.1773C16.0147 37.7528 16.5368 39.2075 15.9598 40.428Z" fill="#888888"/>
<path fill-rule="evenodd" clip-rule="evenodd" d="M15.7444 40.3254C16.2635 39.2264 15.7921 37.9119 14.6931 37.3927C13.594 36.8736 12.2796 37.345 11.7604 38.444C11.2413 39.5431 11.7127 40.8575 12.8117 41.3767C13.9107 41.8958 15.2252 41.4244 15.7444 40.3254Z" fill="#3E3A39"/>
<path fill-rule="evenodd" clip-rule="evenodd" d="M15.5867 38.3833C15.4377 38.2893 15.2787 38.1635 15.1268 38.0102C14.975 37.8583 14.8477 37.6993 14.7537 37.5503C14.6959 37.4592 14.6511 37.371 14.6193 37.29C14.5397 37.3247 14.4457 37.3551 14.3402 37.3797C14.1681 37.4187 13.9671 37.4404 13.7516 37.4404C13.5361 37.4404 13.3351 37.4187 13.1631 37.3797C13.0575 37.3551 12.9635 37.3262 12.884 37.29C12.8522 37.371 12.8073 37.4592 12.7495 37.5503C12.6555 37.6993 12.5297 37.8583 12.3764 38.0102C12.2246 38.162 12.0655 38.2893 11.9165 38.3833C11.8254 38.4411 11.7372 38.4859 11.6562 38.5178C11.691 38.5973 11.7213 38.6913 11.7459 38.7968C11.7849 38.9689 11.8081 39.1699 11.8081 39.3854C11.8081 39.6009 11.785 39.8019 11.7474 39.9739C11.7228 40.0795 11.6938 40.1735 11.6577 40.253C11.7387 40.2849 11.8269 40.3297 11.918 40.3875C12.0669 40.4815 12.226 40.6088 12.3778 40.7606C12.5297 40.9124 12.6569 41.0715 12.7509 41.2205C12.8088 41.3116 12.8536 41.3998 12.8854 41.4808C12.9649 41.4461 13.0589 41.4157 13.1631 41.3925C13.3351 41.3535 13.5361 41.3304 13.7531 41.3304C13.9685 41.3304 14.1695 41.3535 14.3416 41.3925C14.4472 41.4171 14.5412 41.4461 14.6207 41.4822C14.6525 41.4012 14.6973 41.313 14.7552 41.2219C14.8492 41.073 14.9764 40.9139 15.1283 40.7621C15.2801 40.6102 15.4392 40.483 15.5881 40.389C15.6792 40.3311 15.7674 40.2863 15.8484 40.2545C15.8137 40.175 15.7833 40.081 15.7602 39.9768C15.7212 39.8048 15.698 39.6038 15.698 39.3868C15.698 39.1714 15.7197 38.9704 15.7588 38.7983C15.7833 38.6927 15.8123 38.5987 15.8484 38.5192C15.766 38.4859 15.6778 38.4411 15.5867 38.3833ZM13.393 40.146C12.9722 39.9479 12.7929 39.4447 12.991 39.0253C13.1891 38.6045 13.6909 38.4252 14.1117 38.6233C14.531 38.8214 14.7118 39.3232 14.5137 39.744C14.3141 40.1648 13.8123 40.3441 13.393 40.146Z" fill="#888888"/>
<path fill-rule="evenodd" clip-rule="evenodd" d="M13.7533 38.1331C14.4445 38.1331 15.0041 38.6927 15.0041 39.3839C15.0041 40.0751 14.4445 40.6348 13.7533 40.6348C13.0621 40.6348 12.5024 40.0751 12.5024 39.3839C12.501 38.6941 13.0621 38.1331 13.7533 38.1331Z" fill="#B4B5B5"/>
<path fill-rule="evenodd" clip-rule="evenodd" d="M14.5135 39.7441C14.3154 40.1634 13.8136 40.3442 13.3928 40.1461C12.972 39.948 12.7927 39.4447 12.9908 39.0254C13.1889 38.6046 13.6907 38.4253 14.1115 38.6234C14.5309 38.8229 14.7116 39.3233 14.5135 39.7441Z" fill="#343436"/>
<path d="M13.7529 37.8162C13.8144 37.8162 13.8643 37.7663 13.8643 37.7049C13.8643 37.6434 13.8144 37.5935 13.7529 37.5935C13.6915 37.5935 13.6416 37.6434 13.6416 37.7049C13.6416 37.7663 13.6915 37.8162 13.7529 37.8162Z" fill="#B4B5B5"/>
<path fill-rule="evenodd" clip-rule="evenodd" d="M12.4847 38.1173C12.5281 38.0739 12.5989 38.0739 12.6423 38.1173C12.6857 38.1606 12.6857 38.2315 12.6423 38.2749C12.5989 38.3183 12.5281 38.3183 12.4847 38.2749C12.4413 38.2315 12.4413 38.1606 12.4847 38.1173Z" fill="#B4B5B5"/>
<path d="M12.0728 39.4966C12.1343 39.4966 12.1841 39.4468 12.1841 39.3853C12.1841 39.3238 12.1343 39.2739 12.0728 39.2739C12.0113 39.2739 11.9614 39.3238 11.9614 39.3853C11.9614 39.4468 12.0113 39.4966 12.0728 39.4966Z" fill="#B4B5B5"/>
<path fill-rule="evenodd" clip-rule="evenodd" d="M12.4847 40.6521C12.4413 40.6087 12.4413 40.5378 12.4847 40.4945C12.5281 40.4511 12.5989 40.4511 12.6423 40.4945C12.6857 40.5378 12.6857 40.6087 12.6423 40.6521C12.5989 40.6955 12.5281 40.6955 12.4847 40.6521Z" fill="#B4B5B5"/>
<path fill-rule="evenodd" clip-rule="evenodd" d="M13.7529 41.177C13.6908 41.177 13.6416 41.1264 13.6416 41.0657C13.6416 41.0035 13.6922 40.9543 13.7529 40.9543C13.8151 40.9543 13.8643 41.005 13.8643 41.0657C13.8643 41.1264 13.8137 41.177 13.7529 41.177Z" fill="#B4B5B5"/>
<path fill-rule="evenodd" clip-rule="evenodd" d="M15.0197 40.6521C14.9764 40.6955 14.9055 40.6955 14.8621 40.6521C14.8187 40.6087 14.8187 40.5378 14.8621 40.4945C14.9055 40.4511 14.9764 40.4511 15.0197 40.4945C15.0631 40.5378 15.0631 40.6087 15.0197 40.6521Z" fill="#B4B5B5"/>
<path fill-rule="evenodd" clip-rule="evenodd" d="M15.5445 39.3853C15.5445 39.4475 15.4939 39.4967 15.4331 39.4967C15.3709 39.4967 15.3218 39.446 15.3218 39.3853C15.3218 39.3231 15.3724 39.274 15.4331 39.274C15.4939 39.2725 15.5445 39.3231 15.5445 39.3853Z" fill="#B4B5B5"/>
<path fill-rule="evenodd" clip-rule="evenodd" d="M15.0197 38.1173C15.0631 38.1606 15.0631 38.2315 15.0197 38.2749C14.9764 38.3183 14.9055 38.3183 14.8621 38.2749C14.8187 38.2315 14.8187 38.1606 14.8621 38.1173C14.9055 38.0739 14.9764 38.0739 15.0197 38.1173Z" fill="#B4B5B5"/>
<path fill-rule="evenodd" clip-rule="evenodd" d="M50.8899 41.274C51.934 41.7671 53.179 41.3202 53.6722 40.2762C54.1653 39.2321 53.7184 37.987 52.6744 37.4939C51.6303 37.0008 50.3852 37.4476 49.8921 38.4917C49.4005 39.5358 49.8458 40.7808 50.8899 41.274ZM54.9201 40.8662C54.1016 42.5986 52.0338 43.3404 50.3014 42.5219C48.569 41.7034 47.8271 39.6356 48.6456 37.9032C49.4641 36.1708 51.532 35.4289 53.2658 36.2474C54.9968 37.0659 55.7386 39.1338 54.9201 40.8662Z" fill="#343436"/>
<path fill-rule="evenodd" clip-rule="evenodd" d="M53.99 40.428C53.4145 41.6471 51.9583 42.1691 50.7393 41.5936C49.5188 41.018 48.9982 39.5618 49.5737 38.3428C50.1493 37.1223 51.6055 36.6017 52.8245 37.1773C54.045 37.7528 54.567 39.2075 53.99 40.428Z" fill="#888888"/>
<path fill-rule="evenodd" clip-rule="evenodd" d="M53.7746 40.3254C54.2938 39.2264 53.8223 37.9119 52.7233 37.3927C51.6243 36.8736 50.3098 37.345 49.7907 38.444C49.2716 39.5431 49.743 40.8575 50.842 41.3767C51.9396 41.8958 53.2555 41.4244 53.7746 40.3254Z" fill="#3E3A39"/>
<path fill-rule="evenodd" clip-rule="evenodd" d="M53.6169 38.3833C53.468 38.2893 53.3089 38.1635 53.1571 38.0102C53.0053 37.8583 52.878 37.6993 52.784 37.5503C52.7262 37.4592 52.6813 37.371 52.6495 37.29C52.57 37.3247 52.476 37.3551 52.3704 37.3797C52.1984 37.4187 51.9973 37.4404 51.7819 37.4404C51.5664 37.4404 51.3654 37.4187 51.1933 37.3797C51.0878 37.3551 50.9938 37.3262 50.9142 37.29C50.8824 37.371 50.8376 37.4592 50.7798 37.5503C50.6858 37.6993 50.5599 37.8583 50.4067 38.0102C50.2548 38.162 50.0958 38.2893 49.9468 38.3833C49.8557 38.4411 49.7675 38.4859 49.6865 38.5178C49.7212 38.5973 49.7516 38.6913 49.7762 38.7968C49.8152 38.9689 49.8384 39.1699 49.8384 39.3854C49.8384 39.6009 49.8152 39.8019 49.7776 39.9739C49.753 40.0795 49.7241 40.1735 49.688 40.253C49.7689 40.2849 49.8572 40.3297 49.9483 40.3875C50.0972 40.4815 50.2563 40.6088 50.4081 40.7606C50.5599 40.9124 50.6872 41.0715 50.7812 41.2205C50.839 41.3116 50.8839 41.3998 50.9157 41.4808C50.9952 41.4461 51.0892 41.4157 51.1933 41.3925C51.3654 41.3535 51.5664 41.3304 51.7833 41.3304C51.9988 41.3304 52.1998 41.3535 52.3719 41.3925C52.4774 41.4171 52.5714 41.4461 52.651 41.4822C52.6828 41.4012 52.7276 41.313 52.7855 41.2219C52.8795 41.073 53.0067 40.9139 53.1585 40.7621C53.3104 40.6102 53.4694 40.483 53.6184 40.389C53.7095 40.3311 53.7977 40.2863 53.8787 40.2545C53.844 40.175 53.8136 40.081 53.7905 39.9768C53.7514 39.8048 53.7283 39.6038 53.7283 39.3868C53.7283 39.1714 53.7514 38.9704 53.789 38.7983C53.8136 38.6927 53.8425 38.5987 53.8787 38.5192C53.7963 38.4859 53.708 38.4411 53.6169 38.3833ZM51.4233 40.146C51.0024 39.9479 50.8231 39.4447 51.0212 39.0253C51.2194 38.6045 51.7211 38.4252 52.142 38.6233C52.5613 38.8214 52.7421 39.3232 52.544 39.744C52.3444 40.1648 51.8426 40.3441 51.4233 40.146Z" fill="#888888"/>
<path d="M53.0211 39.5834C53.1315 38.9014 52.6682 38.2591 51.9862 38.1487C51.3042 38.0383 50.6618 38.5016 50.5514 39.1836C50.4411 39.8656 50.9044 40.5079 51.5864 40.6183C52.2684 40.7287 52.9107 40.2654 53.0211 39.5834Z" fill="#B4B5B5"/>
<path fill-rule="evenodd" clip-rule="evenodd" d="M52.5428 39.7441C52.3447 40.1634 51.8429 40.3442 51.4221 40.1461C51.0013 39.948 50.822 39.4447 51.0201 39.0254C51.2182 38.6046 51.72 38.4253 52.1408 38.6234C52.5616 38.8229 52.7424 39.3233 52.5428 39.7441Z" fill="#343436"/>
<path fill-rule="evenodd" clip-rule="evenodd" d="M51.7818 37.5923C51.8439 37.5923 51.8931 37.6429 51.8931 37.7036C51.8931 37.7658 51.8425 37.815 51.7818 37.815C51.7196 37.815 51.6704 37.7644 51.6704 37.7036C51.6704 37.6429 51.7196 37.5923 51.7818 37.5923Z" fill="#B4B5B5"/>
<path fill-rule="evenodd" clip-rule="evenodd" d="M50.515 38.1173C50.5583 38.0739 50.6292 38.0739 50.6726 38.1173C50.716 38.1606 50.716 38.2315 50.6726 38.2749C50.6292 38.3183 50.5583 38.3183 50.515 38.2749C50.4716 38.2315 50.4716 38.1606 50.515 38.1173Z" fill="#B4B5B5"/>
<path d="M50.1016 39.4966C50.1631 39.4966 50.2129 39.4468 50.2129 39.3853C50.2129 39.3238 50.1631 39.2739 50.1016 39.2739C50.0401 39.2739 49.9902 39.3238 49.9902 39.3853C49.9902 39.4468 50.0401 39.4966 50.1016 39.4966Z" fill="#B4B5B5"/>
<path fill-rule="evenodd" clip-rule="evenodd" d="M50.515 40.6521C50.4716 40.6087 50.4716 40.5378 50.515 40.4945C50.5583 40.4511 50.6292 40.4511 50.6726 40.4945C50.716 40.5378 50.716 40.6087 50.6726 40.6521C50.6292 40.6955 50.5583 40.6955 50.515 40.6521Z" fill="#B4B5B5"/>
<path fill-rule="evenodd" clip-rule="evenodd" d="M51.7818 41.177C51.7196 41.177 51.6704 41.1264 51.6704 41.0657C51.6704 41.0035 51.721 40.9543 51.7818 40.9543C51.8439 40.9543 51.8931 41.005 51.8931 41.0657C51.8945 41.1264 51.8439 41.177 51.7818 41.177Z" fill="#B4B5B5"/>
<path fill-rule="evenodd" clip-rule="evenodd" d="M53.05 40.6521C53.0066 40.6955 52.9358 40.6955 52.8924 40.6521C52.849 40.6087 52.849 40.5378 52.8924 40.4945C52.9358 40.4511 53.0066 40.4511 53.05 40.4945C53.0934 40.5378 53.0934 40.6087 53.05 40.6521Z" fill="#B4B5B5"/>
<path d="M53.4619 39.4966C53.5234 39.4966 53.5733 39.4468 53.5733 39.3853C53.5733 39.3238 53.5234 39.2739 53.4619 39.2739C53.4004 39.2739 53.3506 39.3238 53.3506 39.3853C53.3506 39.4468 53.4004 39.4966 53.4619 39.4966Z" fill="#B4B5B5"/>
<path fill-rule="evenodd" clip-rule="evenodd" d="M53.05 38.1173C53.0934 38.1606 53.0934 38.2315 53.05 38.2749C53.0066 38.3183 52.9358 38.3183 52.8924 38.2749C52.849 38.2315 52.849 38.1606 52.8924 38.1173C52.9343 38.0739 53.0052 38.0739 53.05 38.1173Z" fill="#B4B5B5"/>
<path d="M41.1502 19H6.41699V19.6536H41.1502V19Z" fill="#8AA1C1"/>
<path fill-rule="evenodd" clip-rule="evenodd" d="M56.4977 32.9952C56.2836 32.9952 56.0725 32.9894 55.8657 32.9792V33.1369C55.8657 33.2511 55.9597 33.3451 56.074 33.3451H56.6929H56.917C57.0313 33.3451 57.1253 33.2511 57.1253 33.1369V32.9792C56.9937 32.9865 56.8606 32.9908 56.7261 32.9923C56.6509 32.9952 56.5743 32.9952 56.4977 32.9952Z" fill="#CC6716"/>
<path fill-rule="evenodd" clip-rule="evenodd" d="M11.4092 20.8842C11.5885 20.8842 11.736 20.7367 11.736 20.5574V20.4822H9.23145V20.5574C9.23145 20.7367 9.37895 20.8842 9.55826 20.8842H11.4092Z" fill="#C6171F"/>
<path fill-rule="evenodd" clip-rule="evenodd" d="M12.0977 20.5574C12.0977 20.7367 12.2452 20.8842 12.4245 20.8842H14.2754C14.4548 20.8842 14.6023 20.7367 14.6023 20.5574V20.4822H12.0977V20.5574Z" fill="#61B6DB"/>
<path fill-rule="evenodd" clip-rule="evenodd" d="M32.3828 20.5574C32.3828 20.7367 32.5303 20.8842 32.7096 20.8842H34.5606C34.7399 20.8842 34.8874 20.7367 34.8874 20.5574V20.4822H32.3828V20.5574Z" fill="#C6171F"/>
<path fill-rule="evenodd" clip-rule="evenodd" d="M35.249 20.5574C35.249 20.7367 35.3965 20.8842 35.5758 20.8842H37.4268C37.6061 20.8842 37.7536 20.7367 37.7536 20.5574V20.4822H35.249V20.5574Z" fill="#61B6DB"/>
<path fill-rule="evenodd" clip-rule="evenodd" d="M12.1104 25.2759L13.9267 22.2681H11.7489L9.93262 25.2759H12.1104Z" fill="#B7E1F8"/>
<path fill-rule="evenodd" clip-rule="evenodd" d="M18.5785 22.2681L16.7622 25.2759H18.94L20.7563 22.2681H18.5785Z" fill="#B7E1F8"/>
<path fill-rule="evenodd" clip-rule="evenodd" d="M26.3529 22.2681L24.5366 25.2759H26.7144L28.5307 22.2681H26.3529Z" fill="#B7E1F8"/>
<path fill-rule="evenodd" clip-rule="evenodd" d="M29.8553 22.2681L28.0391 25.2759H30.2168L30.5856 24.6657V22.2681H29.8553Z" fill="#B7E1F8"/>
<path fill-rule="evenodd" clip-rule="evenodd" d="M31.9634 22.3809V25.2759H32.2483L33.3053 23.5247L33.9806 22.4054L34.0645 22.2681H32.0328L31.9634 22.3809Z" fill="#B7E1F8"/>
<path fill-rule="evenodd" clip-rule="evenodd" d="M36.1587 22.4054L34.4263 25.2759H35.7191L37.4515 22.4054L37.5339 22.2681H36.2425L36.1587 22.4054Z" fill="#B7E1F8"/>
<path d="M7.3092 35.4578H6.60352V36.8633H7.3092V35.4578Z" fill="#E50013"/>
<path fill-rule="evenodd" clip-rule="evenodd" d="M42.2639 21.8345L44.9898 21.8981L44.9724 22.4895L42.2466 22.4259L42.2639 21.8345Z" fill="#8AA1C1"/>
<path fill-rule="evenodd" clip-rule="evenodd" d="M43.6883 20.6356C44.3824 20.6515 44.929 21.2155 44.9088 21.8951L42.3955 21.8373C42.4158 21.1576 42.9942 20.6197 43.6883 20.6356Z" fill="#E50728"/>
<path fill-rule="evenodd" clip-rule="evenodd" d="M44.7975 21.3513C44.3911 21.5003 43.8517 21.5914 43.2603 21.5914C42.9725 21.5914 42.6978 21.5697 42.4447 21.5306C42.4158 21.6275 42.3999 21.7302 42.397 21.8372L44.9102 21.895C44.9146 21.7013 44.8741 21.5176 44.7975 21.3513Z" fill="#C6171F"/>
<path fill-rule="evenodd" clip-rule="evenodd" d="M13.5626 34.3862C10.9886 34.3862 8.90332 36.5365 8.90332 39.1901C8.90332 39.3043 8.90766 39.4171 8.91489 39.5285H9.78109C9.64516 37.9841 10.4058 36.4353 11.8215 35.6718C13.6956 34.661 16.0108 35.4086 16.9898 37.3406C17.344 38.039 17.4756 38.7968 17.4106 39.5285H18.2102C18.2175 39.4171 18.2218 39.3029 18.2218 39.1901C18.2218 36.538 16.1366 34.3862 13.5626 34.3862Z" fill="#DBDCDC"/>
<path fill-rule="evenodd" clip-rule="evenodd" d="M42.521 30.7522H44.1045C44.2071 30.7522 44.291 30.8361 44.291 30.9387C44.291 31.0414 44.2071 31.1253 44.1045 31.1253H42.521C42.4183 31.1253 42.3345 31.0414 42.3345 30.9387C42.3345 30.8361 42.4183 30.7522 42.521 30.7522Z" fill="#8C9798"/>
<path fill-rule="evenodd" clip-rule="evenodd" d="M31.9199 30.0395V28.4561C31.9199 28.3534 32.0038 28.2695 32.1065 28.2695C32.2091 28.2695 32.293 28.3534 32.293 28.4561V30.0395C32.293 30.1422 32.2091 30.2261 32.1065 30.2261C32.0038 30.2261 31.9199 30.1422 31.9199 30.0395Z" fill="#8C9798"/>
<path fill-rule="evenodd" clip-rule="evenodd" d="M49.4175 29.7936H51.8657C51.8657 29.7936 51.4478 28.8768 50.6163 27.7546C50.1102 27.7546 49.4175 29.1067 49.4175 29.7936Z" fill="#717171"/>
<path fill-rule="evenodd" clip-rule="evenodd" d="M50.0033 27.5854L50.5471 27.6346C51.0517 27.6794 50.9635 30.2853 50.2174 30.1956L49.7344 30.1522L50.0033 27.5854Z" fill="#4F5253"/>
<path fill-rule="evenodd" clip-rule="evenodd" d="M50.0033 27.5854L50.44 27.6245L50.1711 30.1913L49.7329 30.1522L50.0033 27.5854Z" fill="#8D8F94"/>
<path fill-rule="evenodd" clip-rule="evenodd" d="M41.8487 29.7529H51.8628V34.0579L51.8281 34.055C49.6358 33.8713 46.7509 35.9306 46.7509 38.2616V38.2934H41.8169V29.7529H41.8487ZM51.7991 29.8166H41.8805V38.2298H46.6873C46.7104 35.8872 49.5895 33.8236 51.7991 33.9885V29.8166Z" fill="#8C9798"/>
<path fill-rule="evenodd" clip-rule="evenodd" d="M45.0376 33.3089V32.301H46.0383V31.3003H47.0447V32.301H48.0454V33.3089H47.0447V34.3081H46.0383V33.3089H45.0376Z" fill="#E50013"/>
<path d="M25.861 36.1143H22.7476V36.2401H25.861V36.1143Z" fill="#595857"/>
<path d="M25.861 36.4714H22.7476V36.5972H25.861V36.4714Z" fill="#595857"/>
<path d="M25.861 36.8301H22.7476V36.9559H25.861V36.8301Z" fill="#595857"/>
<path d="M25.861 37.1873H22.7476V37.3131H25.861V37.1873Z" fill="#595857"/>
<path fill-rule="evenodd" clip-rule="evenodd" d="M47.2803 24.0496L45.2529 24.0164L42.3188 29.5823L44.9247 29.5765L47.6375 24.3244C47.4741 24.1581 47.3512 24.0583 47.2803 24.0496Z" fill="#B7E1F8"/>
</svg>
