<svg width="62" height="62" viewBox="0 0 62 62" fill="none" xmlns="http://www.w3.org/2000/svg">
<rect width="62" height="62" rx="10" fill="#F2F2F2"/>
<path d="M45.625 27.375C45.625 27.375 43.75 29.125 40.5625 31.1875C39.6875 26.125 37.25 19.875 32.5 12.25C32.5 12.25 30.9375 20.4375 25.75 28.125C23.5 24.625 22.5 21.875 22.5 21.875C6.25004 38.1875 19.75 49.75 28.25 49.75C39.125 49.75 48.6875 44.5 45.625 27.375Z" fill="#FF9D33"/>
<path d="M39.1875 41.875C40.125 39.8125 40.8125 37.125 40.9375 33.75C40.9375 33.75 39.625 34.875 37.375 36.3125C36.75 32.9375 35.0625 28.8125 31.75 23.6875C31.75 23.6875 30.6875 29.125 27.0625 34.3125C25.5 32 24.8125 30.125 24.8125 30.125C22.125 34.375 21.0625 37.75 21 40.4375C19.5 39.875 18.5625 39.4375 18.5625 39.4375C21.125 47.0625 26.4375 48.75 28.8125 48.75C33.0625 48.75 37.375 47.5 41.625 41.4375C41.625 41.375 40.6875 41.625 39.1875 41.875Z" fill="#FFCE31"/>
<path d="M23.6876 38.4375C23.6876 38.4375 25.4376 40.8125 26.7501 40.25C26.7501 40.25 29.2501 36.3125 32.8751 34.125C32.8751 34.125 32.1251 40.125 33.0001 41.1875C34.1251 42.625 37.1876 39.625 37.1876 39.625C37.1876 43.1875 33.3126 47.625 29.8126 47.625C26.4376 47.625 21.5626 43.75 23.6876 38.4375Z" fill="#FFDF85"/>
<path d="M41.1252 22.3125C42.4377 20.4375 43.3127 18.4375 43.3127 18.4375C45.5002 22.0625 44.1877 24.25 43.2502 24.9375C41.9377 25.9375 39.6252 24.5 41.1252 22.3125ZM17.2502 21.6875C15.9377 19.5 15.8127 16.75 15.8127 16.75C12.6877 21.4375 13.8752 24.0625 14.9377 24.8125C16.3127 25.875 18.6877 24.25 17.2502 21.6875ZM24.5002 16.8125C24.6877 15.3125 24.0627 13.8125 24.0627 13.8125C27.0002 15.75 27.0002 17.375 26.6252 18.0625C26.0627 18.875 24.3127 18.5 24.5002 16.8125Z" fill="#FF9D33"/>
</svg>
