<svg width="62" height="62" viewBox="0 0 62 62" fill="none" xmlns="http://www.w3.org/2000/svg">
  <rect width="62" height="62" rx="10" fill="#F2F2F2"/>
  <g transform="translate(7, 7.5)">
    <path d="M16.4873 36.1441H33.4773V23.7549C33.4773 19.1718 29.7936 15.4551 25.2514 15.4551H24.7131C20.1709 15.4551 16.4873 19.1718 16.4873 23.7549V36.1441Z" fill="#B42800"/>
    <path d="M33.4775 36.1441V23.7549C33.4775 19.1718 29.7939 15.4551 25.2517 15.4551H24.7134V36.1441H33.4775Z" fill="#C92800"/>
    <path d="M36.6941 35.5471H12.3726V39.6364H36.6941V35.5471Z" fill="#323232"/>
    <path d="M37.0544 40H12.0166V35.188H37.0544V40ZM12.7329 39.2773H36.3382V35.9107H12.7329V39.2773Z" fill="#323232"/>
    <path d="M24.2686 16.1194H24.5355C29.0778 16.1194 32.7614 19.7149 32.7614 24.1544V34.7032H31.2844V24.1544C31.2844 20.1189 28.2325 16.7882 24.2642 16.2181V16.1194H24.2686Z" fill="white"/>
    <path d="M24.9799 10.5263C25.1801 10.5263 25.3358 10.3647 25.3358 10.1672V0.359107C25.3358 0.161598 25.1757 0 24.9799 0C24.7842 0 24.624 0.161598 24.624 0.359107V10.1627C24.624 10.3647 24.7842 10.5263 24.9799 10.5263Z" fill="#FFD228"/>
    <path d="M31.36 11.8101C31.4044 11.8281 31.4534 11.837 31.4979 11.837C31.6358 11.837 31.7693 11.7518 31.8271 11.6171L35.5596 2.5676C35.6353 2.38356 35.5507 2.17259 35.3683 2.09628C35.1904 2.01997 34.9768 2.10525 34.9056 2.2893L31.1687 11.3388C31.093 11.5228 31.182 11.7383 31.36 11.8101Z" fill="#FFD228"/>
    <path d="M18.1913 11.5947C18.2491 11.7338 18.3826 11.8191 18.5205 11.8191C18.565 11.8191 18.6139 11.8101 18.6584 11.7922C18.8408 11.7159 18.9298 11.5049 18.8542 11.3208L15.1528 2.2534C15.0771 2.06935 14.868 1.98407 14.6856 2.05589C14.5032 2.1322 14.4143 2.34317 14.4899 2.52722L18.1913 11.5947Z" fill="#FFD228"/>
    <path d="M9.46258 20.3658L0.493814 16.5952C0.315863 16.5189 0.10232 16.6086 0.026691 16.7882C-0.0489385 16.9722 0.0355886 17.1832 0.217989 17.2595L9.18676 21.0301C9.23125 21.0481 9.28018 21.0571 9.32467 21.0571C9.46258 21.0571 9.59605 20.9718 9.65388 20.8326C9.73396 20.6531 9.64943 20.4421 9.46258 20.3658Z" fill="#FFD228"/>
    <path d="M49.9737 16.8825C49.8981 16.6985 49.689 16.6132 49.5066 16.685L40.5245 20.4242C40.3421 20.5005 40.2531 20.7115 40.3288 20.8956C40.3866 21.0347 40.5201 21.12 40.6624 21.12C40.7069 21.12 40.7514 21.111 40.7959 21.0931L49.7824 17.3584C49.9604 17.2776 50.0494 17.0666 49.9737 16.8825Z" fill="#FFD228"/>
    <path d="M44.2702 8.16518C44.1323 8.02154 43.9054 8.02154 43.7631 8.1607L36.8407 15.0421C36.6984 15.1812 36.6984 15.4102 36.8363 15.5538C36.9075 15.6256 37.0009 15.6615 37.0899 15.6615C37.1788 15.6615 37.2723 15.6256 37.3434 15.5583L44.2658 8.67691C44.4037 8.53776 44.4081 8.30883 44.2702 8.16518Z" fill="#FFD228"/>
    <path d="M12.5633 15.5538C12.6345 15.6211 12.7235 15.657 12.8125 15.657C12.9059 15.657 12.9949 15.6211 13.0661 15.5493C13.204 15.4057 13.1995 15.1767 13.0616 15.0376L6.14374 8.1607C6.00138 8.02154 5.77449 8.02154 5.63658 8.16518C5.49866 8.30883 5.49866 8.53776 5.64103 8.67691L12.5633 15.5538Z" fill="#FFD228"/>
  </g>
  </svg>
 
