<svg width="62" height="62" viewBox="0 0 62 62" fill="none" xmlns="http://www.w3.org/2000/svg">
<rect width="62" height="62" rx="10" fill="#F2F2F2"/>
<path d="M22.6405 12.9004L20.6093 20.7191L22.7812 24.2191L24.0233 21.9223L26.953 24.3363L28.3202 20.0004L22.6405 12.9004ZM35.8983 16.3145L33.3827 20.0941L34.2187 22.0863L35.9296 20.391L37.3437 23.7348L38.1483 22.0395L35.8983 16.3145ZM29.3827 21.3285L27.6718 26.7426L24.4452 24.0941L22.8749 27.016L20.1249 22.5863L13.2202 49.102H23.1015C26.664 47.7738 33.6718 44.6723 33.8202 40.7973C33.953 37.0629 25.3124 37.4066 25.164 33.6723C25.0468 30.6176 31.7655 27.3051 31.7655 27.3051C31.7655 27.3051 27.539 30.6879 28.0624 32.852C29.0702 36.9926 37.8749 35.0082 39.2499 39.0473C40.2655 42.0316 36.6327 47.1957 35.1718 49.102H48.7812L38.8515 23.8363L37.2812 27.1723L35.4452 22.8441L33.7187 24.5551L32.4452 21.5004L31.1171 23.4926L29.3827 21.3285Z" fill="url(#paint0_linear_0_1)"/>
<defs>
<linearGradient id="paint0_linear_0_1" x1="31.0007" y1="12.9004" x2="31.0007" y2="49.102" gradientUnits="userSpaceOnUse">
<stop stop-color="#54778F"/>
<stop offset="1" stop-color="#213B4D"/>
</linearGradient>
</defs>
</svg>
