<svg width="62" height="62" viewBox="0 0 62 62" fill="none" xmlns="http://www.w3.org/2000/svg">
<rect width="62" height="62" rx="10" fill="#F2F2F2"/>
<path d="M36.4975 24.5101C36.2977 25.3468 37.0575 25.4297 37.4049 25.8434C37.9372 26.4784 37.6101 27.5603 37.6509 28.2772C37.6622 28.474 37.8741 28.5484 38.1163 28.7166C38.652 29.0891 38.57 29.5378 38.5671 30.6126C38.5667 30.8186 38.6037 31.1041 38.3674 31.0936C37.9145 31.0734 38.3821 29.7506 38.0444 29.1791C37.9919 29.0904 37.8287 29.0151 37.6319 28.8806C37.0794 28.5034 37.2871 28.2246 37.3111 26.9396C37.3342 25.6874 36.5172 26.004 36.1813 25.2585C36.0505 24.9684 36.0425 24.6408 36.1316 24.3368C36.3423 23.6174 37.0138 23.2251 37.6736 22.9025C37.9477 22.7684 38.0726 23.1498 37.8746 23.2465C37.8695 23.2469 36.693 23.6901 36.4975 24.5101Z" fill="#424038"/>
<path d="M28.0858 20.5633C28.0173 22.6334 26.5048 22.633 25.4574 22.0321C24.6004 21.5406 24.1084 20.6689 23.6821 19.7775C23.5509 19.5033 23.931 19.3776 24.026 19.5765C24.5054 20.5781 25.1815 21.8223 26.432 21.9556C27.3702 22.0557 27.6557 21.5136 27.6872 20.5633C27.6973 20.2707 28.0938 20.3287 28.0858 20.5633Z" fill="#424038"/>
<path d="M30.8954 43.6503C19.5074 43.6503 10.2756 43.5658 10.2756 43.4615C10.2756 43.3572 19.5074 43.2727 30.8954 43.2727C42.2834 43.2727 51.5151 43.3572 51.5151 43.4615C51.5151 43.5658 42.2834 43.6503 30.8954 43.6503Z" fill="#E1E4E5"/>
<path d="M34.6469 33.9452L29.469 34.012L23.5263 32.5302L16.9915 33.7875L11.7174 33.6416L11.2939 32.3011L13.3362 30.0981L32.6512 30.3357L35.4487 32.5815L34.6469 33.9452Z" fill="#2B2A25"/>
<path d="M12.7297 35.0905C11.8781 34.2389 11.8781 32.8582 12.7297 32.0067C13.5813 31.1551 14.962 31.1551 15.8135 32.0067C16.6651 32.8582 16.6651 34.2389 15.8135 35.0905C14.962 35.9421 13.5813 35.9421 12.7297 35.0905Z" fill="#777464"/>
<path d="M13.4133 31.5571C12.7868 31.9503 12.2393 32.5903 12.2242 33.3837C12.2036 34.4703 12.7128 35.693 14.5486 35.6089C14.8383 35.5955 15.1777 35.5181 15.4287 35.4109C15.1045 35.6144 14.6311 35.7174 14.2207 35.7254C13.0164 35.7481 12.1136 34.8079 12.0909 33.6036C12.0737 32.6895 12.6216 31.896 13.4133 31.5571Z" fill="#424038"/>
<path d="M13.331 34.489C12.8116 33.9696 12.8116 33.1275 13.331 32.6081C13.8504 32.0888 14.6925 32.0888 15.2119 32.6081C15.7313 33.1275 15.7313 33.9696 15.2119 34.489C14.6925 35.0084 13.8504 35.0084 13.331 34.489Z" fill="#B7B29E"/>
<path d="M13.4074 34.4126C12.9302 33.9354 12.9302 33.1617 13.4074 32.6846C13.8846 32.2074 14.6583 32.2074 15.1355 32.6846C15.6127 33.1617 15.6127 33.9354 15.1355 34.4126C14.6583 34.8898 13.8846 34.8898 13.4074 34.4126Z" fill="#969283"/>
<path d="M13.4122 33.664C13.3481 33.1899 13.6805 32.7537 14.1546 32.6895C14.6287 32.6254 15.0649 32.9578 15.129 33.4319C15.1932 33.906 14.8608 34.3422 14.3867 34.4064C13.9126 34.4705 13.4763 34.1381 13.4122 33.664Z" fill="#777464"/>
<path d="M14.1565 34.1268C14.1578 34.1958 14.215 34.2508 14.2839 34.2496C14.3529 34.2483 14.408 34.1911 14.4067 34.1222L14.3849 32.9705C14.3836 32.9015 14.3264 32.8464 14.2574 32.8477C14.1885 32.8489 14.1334 32.9061 14.1347 32.9751L14.1565 34.1268Z" fill="#969283"/>
<path d="M13.6925 33.4218C13.6236 33.423 13.5685 33.4802 13.5698 33.5492C13.571 33.6182 13.6282 33.6732 13.6972 33.672L14.8489 33.6501C14.9178 33.6489 14.9729 33.5917 14.9717 33.5227C14.9704 33.4537 14.9132 33.3987 14.8443 33.3999L13.6925 33.4218Z" fill="#969283"/>
<path d="M13.7766 33.8812C13.7287 33.9309 13.73 34.0103 13.78 34.0583C13.8296 34.1062 13.9091 34.1049 13.957 34.0549L14.7559 33.2253C14.8039 33.1757 14.8026 33.0962 14.7526 33.0483C14.703 33.0003 14.6235 33.0016 14.5755 33.0516L13.7766 33.8812Z" fill="#969283"/>
<path d="M13.9469 33.0544C13.8973 33.0064 13.8178 33.0077 13.7699 33.0577C13.7219 33.1073 13.7232 33.1868 13.7732 33.2348L14.6028 34.0337C14.6525 34.0816 14.7319 34.0804 14.7799 34.0303C14.8278 33.9807 14.8265 33.9012 14.7765 33.8533L13.9469 33.0544Z" fill="#969283"/>
<path d="M13.7702 33.5582C13.7753 33.8349 14.004 34.0548 14.2803 34.0494C14.5569 34.0443 14.7769 33.8156 14.7714 33.5393C14.7663 33.2626 14.5376 33.0427 14.2613 33.0482C13.9851 33.0532 13.7652 33.2816 13.7702 33.5582Z" fill="#969283"/>
<path opacity="0.4" d="M16.2432 33.4042L16.0548 33.2633C16.0548 33.2633 16.0212 32.5834 15.3417 32.0906C14.721 31.6407 13.9738 31.7349 13.9738 31.7349L13.899 31.5919C13.899 31.5919 14.835 31.4607 15.4943 31.9745C16.2886 32.5931 16.2432 33.4042 16.2432 33.4042Z" fill="#969283"/>
<path d="M14.2003 32.9583C14.2007 32.9911 14.228 33.0171 14.2608 33.0163C14.2936 33.0159 14.3197 32.9885 14.3188 32.9558C14.3184 32.923 14.2911 32.8969 14.2583 32.8977C14.2259 32.8986 14.1998 32.9255 14.2003 32.9583Z" fill="#B7B29E"/>
<path d="M13.7911 33.1309C13.7915 33.1637 13.8188 33.1897 13.8516 33.1889C13.8844 33.1885 13.9105 33.1612 13.9096 33.1284C13.9092 33.0956 13.8819 33.0695 13.8491 33.0703C13.8163 33.0712 13.7902 33.0981 13.7911 33.1309Z" fill="#B7B29E"/>
<path d="M13.6031 33.5525C13.6035 33.5853 13.6308 33.6114 13.6636 33.6105C13.6964 33.6101 13.7225 33.5828 13.7217 33.55C13.7212 33.5172 13.6939 33.4911 13.6611 33.492C13.6283 33.4924 13.6022 33.5197 13.6031 33.5525Z" fill="#B7B29E"/>
<path d="M13.7867 33.9973C13.7871 34.0301 13.8144 34.0562 13.8472 34.0554C13.88 34.0549 13.9061 34.0276 13.9053 33.9948C13.9044 33.962 13.8775 33.9359 13.8447 33.9368C13.8119 33.9376 13.7858 33.9645 13.7867 33.9973Z" fill="#B7B29E"/>
<path d="M14.2271 34.1433C14.2275 34.1761 14.2549 34.2022 14.2877 34.2014C14.3205 34.2009 14.3465 34.1736 14.3457 34.1408C14.3453 34.108 14.3179 34.0819 14.2851 34.0828C14.2528 34.0836 14.2267 34.1105 14.2271 34.1433Z" fill="#B7B29E"/>
<path d="M14.6368 33.9553C14.6372 33.9881 14.6645 34.0142 14.6973 34.0134C14.7301 34.013 14.7562 33.9856 14.7554 33.9528C14.7545 33.92 14.7276 33.894 14.6948 33.8948C14.6624 33.8956 14.6364 33.9225 14.6368 33.9553Z" fill="#B7B29E"/>
<path d="M14.7935 33.5349C14.7939 33.5677 14.8213 33.5938 14.8541 33.593C14.8869 33.5925 14.9129 33.5652 14.9121 33.5324C14.9117 33.4996 14.8843 33.4735 14.8515 33.4744C14.8187 33.4752 14.7927 33.5026 14.7935 33.5349Z" fill="#B7B29E"/>
<path d="M14.6207 33.1155C14.6211 33.1483 14.6484 33.1744 14.6812 33.1735C14.714 33.1731 14.7401 33.1458 14.7392 33.113C14.7388 33.0802 14.7115 33.0541 14.6787 33.055C14.6463 33.0554 14.6202 33.0827 14.6207 33.1155Z" fill="#B7B29E"/>
<path d="M13.9963 33.5535C13.9992 33.7053 14.1245 33.826 14.2763 33.8231C14.4281 33.8201 14.5488 33.6948 14.5458 33.543C14.5429 33.3912 14.4176 33.2705 14.2658 33.2735C14.114 33.2764 13.9933 33.4017 13.9963 33.5535Z" fill="#B7B29E"/>
<path d="M30.489 35.0905C29.6374 34.2389 29.6374 32.8582 30.489 32.0067C31.3405 31.1551 32.7212 31.1551 33.5728 32.0067C34.4244 32.8582 34.4244 34.2389 33.5728 35.0905C32.7212 35.9421 31.3405 35.9421 30.489 35.0905Z" fill="#777464"/>
<path d="M31.1726 31.5571C30.5461 31.9503 29.9986 32.5903 29.9835 33.3837C29.9629 34.4703 30.4721 35.693 32.3079 35.6089C32.5976 35.5955 32.937 35.5181 33.188 35.4109C32.8638 35.6144 32.3903 35.7174 31.9799 35.7254C30.7757 35.7481 29.8729 34.8079 29.8502 33.6036C29.8329 32.6895 30.3808 31.896 31.1726 31.5571Z" fill="#424038"/>
<path d="M30.9552 34.3318C30.5232 33.7378 30.6545 32.906 31.2485 32.4739C31.8425 32.0419 32.6743 32.1732 33.1064 32.7672C33.5384 33.3612 33.4071 34.193 32.8131 34.6251C32.2191 35.0571 31.3873 34.9258 30.9552 34.3318Z" fill="#B7B29E"/>
<path d="M31.2617 34.497C30.7377 34.0717 30.6577 33.3022 31.083 32.7782C31.5083 32.2543 32.2778 32.1743 32.8018 32.5996C33.3257 33.0249 33.4057 33.7944 32.9804 34.3183C32.5551 34.8423 31.7856 34.9223 31.2617 34.497Z" fill="#969283"/>
<path d="M31.5474 34.2666C31.1507 33.9992 31.0459 33.4609 31.3133 33.0642C31.5806 32.6675 32.119 32.5627 32.5156 32.8301C32.9123 33.0975 33.0171 33.6358 32.7498 34.0325C32.4824 34.4291 31.9441 34.534 31.5474 34.2666Z" fill="#777464"/>
<path d="M31.9168 34.1268C31.918 34.1958 31.9752 34.2508 32.0442 34.2496C32.1131 34.2483 32.1682 34.1911 32.167 34.1222L32.1451 32.9705C32.1438 32.9015 32.0867 32.8464 32.0177 32.8477C31.9487 32.8489 31.8937 32.9061 31.8949 32.9751L31.9168 34.1268Z" fill="#969283"/>
<path d="M31.4523 33.4218C31.3833 33.423 31.3283 33.4802 31.3295 33.5492C31.3308 33.6182 31.388 33.6732 31.4569 33.672L32.6086 33.6501C32.6776 33.6489 32.7327 33.5917 32.7314 33.5227C32.7302 33.4537 32.673 33.3987 32.604 33.3999L31.4523 33.4218Z" fill="#969283"/>
<path d="M31.5369 33.8812C31.4889 33.9309 31.4902 34.0103 31.5402 34.0583C31.5899 34.1062 31.6693 34.1049 31.7173 34.0549L32.5162 33.2253C32.5641 33.1757 32.5629 33.0962 32.5128 33.0483C32.4632 33.0003 32.3837 33.0016 32.3358 33.0516L31.5369 33.8812Z" fill="#969283"/>
<path d="M31.7071 33.0544C31.6575 33.0064 31.578 33.0077 31.5301 33.0577C31.4822 33.1073 31.4834 33.1868 31.5335 33.2348L32.3631 34.0337C32.4127 34.0816 32.4922 34.0804 32.5401 34.0303C32.5881 33.9807 32.5868 33.9012 32.5368 33.8533L31.7071 33.0544Z" fill="#969283"/>
<path d="M32.0314 34.0494C31.7548 34.0494 31.5306 33.8252 31.5306 33.5486C31.5306 33.2721 31.7548 33.0479 32.0314 33.0479C32.308 33.0479 32.5322 33.2721 32.5322 33.5486C32.5322 33.8252 32.308 34.0494 32.0314 34.0494Z" fill="#969283"/>
<path opacity="0.4" d="M34.0025 33.4042L33.8141 33.2633C33.8141 33.2633 33.7804 32.5834 33.1009 32.0906C32.4803 31.6407 31.7331 31.7349 31.7331 31.7349L31.6582 31.5919C31.6582 31.5919 32.5942 31.4607 33.2536 31.9745C34.0479 32.5931 34.0025 33.4042 34.0025 33.4042Z" fill="#969283"/>
<path d="M31.9605 32.9583C31.9609 32.9911 31.9883 33.0171 32.0211 33.0163C32.0539 33.0159 32.0799 32.9885 32.0791 32.9558C32.0787 32.923 32.0513 32.8969 32.0185 32.8977C31.9857 32.8986 31.9601 32.9255 31.9605 32.9583Z" fill="#B7B29E"/>
<path d="M31.5508 33.1309C31.5513 33.1637 31.5786 33.1897 31.6114 33.1889C31.6442 33.1885 31.6703 33.1612 31.6694 33.1284C31.669 33.0956 31.6417 33.0695 31.6089 33.0703C31.5761 33.0712 31.55 33.0981 31.5508 33.1309Z" fill="#B7B29E"/>
<path d="M31.3628 33.5525C31.3633 33.5853 31.3906 33.6114 31.4234 33.6105C31.4562 33.6101 31.4823 33.5828 31.4814 33.55C31.481 33.5172 31.4537 33.4911 31.4209 33.492C31.3881 33.4924 31.362 33.5197 31.3628 33.5525Z" fill="#B7B29E"/>
<path d="M31.5469 33.9973C31.5474 34.0301 31.5747 34.0562 31.6075 34.0554C31.6403 34.0549 31.6663 34.0276 31.6655 33.9948C31.6651 33.962 31.6378 33.9359 31.605 33.9368C31.5726 33.9376 31.5465 33.9645 31.5469 33.9973Z" fill="#B7B29E"/>
<path d="M31.9878 34.1433C31.9883 34.1761 32.0156 34.2022 32.0484 34.2014C32.0812 34.2009 32.1073 34.1736 32.1064 34.1408C32.106 34.108 32.0787 34.0819 32.0459 34.0828C32.0135 34.0836 31.9874 34.1105 31.9878 34.1433Z" fill="#B7B29E"/>
<path d="M32.3965 33.9553C32.397 33.9881 32.4243 34.0142 32.4571 34.0134C32.4899 34.013 32.516 33.9856 32.5151 33.9528C32.5147 33.92 32.4874 33.894 32.4546 33.8948C32.4218 33.8956 32.3961 33.9225 32.3965 33.9553Z" fill="#B7B29E"/>
<path d="M32.5543 33.5349C32.5547 33.5677 32.582 33.5938 32.6148 33.593C32.6476 33.5925 32.6737 33.5652 32.6728 33.5324C32.6724 33.4996 32.6451 33.4735 32.6123 33.4744C32.5795 33.4752 32.5534 33.5026 32.5543 33.5349Z" fill="#B7B29E"/>
<path d="M32.3809 33.1155C32.3813 33.1483 32.4087 33.1744 32.4415 33.1735C32.4743 33.1731 32.5003 33.1458 32.4995 33.113C32.4991 33.0802 32.4717 33.0541 32.4389 33.055C32.4066 33.0554 32.3805 33.0827 32.3809 33.1155Z" fill="#B7B29E"/>
<path d="M31.7561 33.5535C31.7591 33.7053 31.8844 33.826 32.0362 33.8231C32.188 33.8201 32.3086 33.6948 32.3061 33.543C32.3036 33.3912 32.1779 33.2705 32.0261 33.2735C31.8739 33.2764 31.7532 33.4017 31.7561 33.5535Z" fill="#B7B29E"/>
<path d="M34.647 33.9452C34.647 33.9452 36.2403 33.9154 36.5859 32.7443C36.9315 31.5733 36.7726 31.2697 36.7726 31.2697L36.4005 31.0317L35.6953 29.3901C35.6953 29.3901 34.8287 28.9469 32.7713 28.7098C30.7134 28.4726 29.6105 28.4936 29.6105 28.4936C29.6105 28.4936 25.9228 26.326 25.184 26.1557C24.4452 25.9859 22.9369 25.6528 21.8639 25.6053C17.0178 25.39 12.3424 26.1217 12.3424 26.1217C12.3424 26.1217 10.8938 27.3133 10.5129 28.2401C10.1319 29.1668 10.126 30.4846 10.126 30.4846C10.126 30.4846 9.52892 31.3235 9.66348 31.9643C9.79803 32.6056 10.3035 33.3927 10.6113 33.4789C10.919 33.5651 11.7175 33.6421 11.7175 33.6421C11.7175 33.6421 11.6948 32.4475 12.4172 31.7289C13.3099 30.8404 15.1647 30.6789 16.1537 31.5972C17.027 32.4084 16.9917 33.788 16.9917 33.788L29.4692 34.0125C29.4692 34.0125 29.5247 32.7124 29.8943 31.9832C30.4897 30.8097 32.6123 30.4539 33.6253 31.2701C34.9633 32.3478 34.647 33.9452 34.647 33.9452Z" fill="#EF4D3C"/>
<path d="M27.4404 28.7791C27.437 29.1193 26.2197 29.0474 26.2197 29.0474L22.0485 28.8809C22.0485 28.8809 21.9779 28.3919 21.8114 27.6901C21.6448 26.9883 21.2017 26.2306 21.4455 26.1646C21.6894 26.0985 23.3461 26.1902 24.3969 26.6607C25.4477 27.1313 27.4496 27.7969 27.4404 28.7791Z" fill="#97C1BF"/>
<path d="M27.1676 28.9684C27.218 27.9874 25.2363 27.3192 24.1855 26.8487C23.2587 26.4337 21.8611 26.3138 21.3767 26.3361C21.3657 26.2428 21.3834 26.1814 21.4452 26.1646C21.6891 26.0985 23.3458 26.1902 24.3966 26.6607C25.4474 27.1313 27.6919 27.8949 27.5641 28.8687C27.5456 29.0096 27.3829 29.0844 26.8627 29.0327C26.8665 29.0428 27.1638 29.044 27.1676 28.9684Z" fill="#2B2A25"/>
<path d="M20.3236 26.1835C20.61 26.2087 20.689 26.6687 20.689 26.6687L20.9561 28.8481C20.9561 28.8481 16.3471 28.8342 16.189 28.5613C16.0305 28.2884 16.3938 26.4122 16.9421 26.2486C17.4908 26.0855 20.3236 26.1835 20.3236 26.1835Z" fill="#97C1BF"/>
<path d="M20.4166 26.8581C20.4166 26.8581 20.3375 26.3981 20.0512 26.3729C20.0512 26.3729 17.3382 26.2791 16.7083 26.4284C16.7815 26.3375 16.8597 26.274 16.9421 26.2492C17.4908 26.0857 20.3236 26.1836 20.3236 26.1836C20.61 26.2089 20.689 26.6689 20.689 26.6689L20.9561 28.8483C20.9561 28.8483 20.8463 28.8478 20.6605 28.8466L20.4166 26.8581Z" fill="#2B2A25"/>
<path d="M15.8093 26.3314C15.9927 26.4546 15.9893 26.6123 15.6184 27.5286C15.4128 28.0365 15.2984 28.4864 14.9928 28.5226C14.6871 28.5592 12.5661 28.2312 12.4661 27.804C12.366 27.3768 13.1481 26.5429 13.6358 26.4113C14.1236 26.2797 15.499 26.1229 15.8093 26.3314Z" fill="#97C1BF"/>
<path d="M15.3119 27.535C15.6828 26.6187 15.6861 26.4611 15.5028 26.3379C15.401 26.2697 15.1853 26.2403 14.9242 26.2369C15.3161 26.2184 15.6697 26.2386 15.8093 26.3324C15.9927 26.4556 15.9893 26.6133 15.6184 27.5295C15.4128 28.0375 15.2984 28.4874 14.9928 28.5235C14.9469 28.529 14.8603 28.5261 14.7459 28.5164C15.0079 28.4314 15.1202 28.0084 15.3119 27.535Z" fill="#2B2A25"/>
<path d="M34.539 29.7958C34.5916 29.5716 35.9758 29.6436 35.9758 29.6436C35.9758 29.6436 36.34 29.9732 36.4014 30.2217C36.4918 30.5863 36.4178 31.0026 36.4178 31.0026L35.4927 31.0198C35.4927 31.0202 34.4865 30.0199 34.539 29.7958Z" fill="#97C1BF"/>
<path d="M35.9559 29.7812C35.9559 29.7812 36.1741 30.0184 36.2183 30.1479C36.2624 30.277 36.2759 30.7458 36.2759 30.7458L36.0904 30.7631C36.0904 30.7631 36.0888 30.3447 35.9963 30.2076C35.8289 29.96 35.3849 29.7964 35.3849 29.7964L35.9559 29.7812Z" fill="white"/>
<path d="M10.2583 29.1727C10.2583 29.1727 11.0383 29.1395 11.1199 29.1382C11.2015 29.1365 11.326 29.2248 11.3281 29.3375C11.3302 29.4502 11.2826 30.1734 11.2637 30.2643C11.2448 30.3551 11.1241 30.4476 10.9812 30.4501C10.8382 30.4526 10.1238 30.4888 10.1238 30.4888L10.2583 29.1727Z" fill="#B52C1A"/>
<path d="M11.1279 29.2803L11.0733 30.2827L10.7806 30.2882L10.8348 29.2756L11.1279 29.2803Z" fill="#F23325"/>
<path d="M28.4905 29.7179L29.4277 30.6606L15.5395 29.8596L13.7617 28.7693L28.4905 29.7179Z" fill="#ED7D6E"/>
<path d="M35.231 29.3516L34.3059 29.5135C34.3059 29.5135 33.6087 29.3184 31.9886 29.2082C30.0523 29.077 28.6642 29.3802 28.6642 29.3802L29.673 28.7015C29.673 28.7015 30.8209 28.6755 32.2955 28.8521C33.7702 29.0287 35.231 29.3516 35.231 29.3516Z" fill="#ED7D6E"/>
<path d="M11.7047 33.6554C11.7047 33.6554 10.9067 33.5785 10.5984 33.4923C10.2902 33.4061 9.78523 32.6189 9.65068 31.9777C9.64563 31.9542 9.64184 31.9306 9.6389 31.9071L11.2565 32.0383C11.2565 32.0383 12.0458 30.5523 13.5124 30.3202C14.3446 30.1885 15.3508 30.2857 16.2607 30.8815C17.0558 31.4021 17.4759 32.4932 17.8922 32.8939C18.3085 33.2947 18.7155 33.2055 18.7155 33.2055L28.977 33.4616C28.977 33.4616 29.1641 32.5592 29.437 31.8591C29.7099 31.1594 30.2339 30.7818 31.1282 30.5195C32.0222 30.2575 32.938 30.4173 33.7504 30.8786C34.3576 31.2234 34.9652 32.4495 34.9652 32.4495L36.6055 32.6442C36.595 32.6812 36.5844 32.719 36.5727 32.7577C36.227 33.9288 34.6338 33.9586 34.6338 33.9586C34.6338 33.9586 34.9504 32.3612 33.612 31.2831C32.5991 30.4669 30.4765 30.8226 29.8811 31.9962C29.5115 32.7249 29.456 34.0255 29.456 34.0255L16.9785 33.8009C16.9785 33.8009 17.0138 32.4213 16.1404 31.6102C15.1515 30.6919 13.2971 30.8533 12.404 31.7418C11.682 32.4608 11.7047 33.6554 11.7047 33.6554Z" fill="#686866"/>
<path d="M28.3512 33.4825L28.3545 33.4547C28.3655 33.3618 28.6182 31.166 28.3251 30.2233C28.0774 29.4265 28.352 29.1834 28.5341 29.0224C28.6379 28.9307 28.7275 28.8513 28.6615 28.7125C28.4912 28.3559 26.7533 27.4019 25.3001 26.7686C23.0947 25.8078 20.8787 25.8376 20.8568 25.8381L20.8207 25.8389L21.4077 28.9051C21.4115 28.9131 21.7878 29.7318 21.7777 30.7851C21.7714 31.415 21.4623 33.2794 21.459 33.2979L21.4531 33.3328L28.3512 33.4825ZM20.8939 25.8995C21.1903 25.8999 23.2372 25.9369 25.2753 26.8249C26.8723 27.5208 28.4601 28.4333 28.606 28.739C28.6505 28.8319 28.6035 28.879 28.4933 28.9766C28.2999 29.1481 28.0072 29.4067 28.2666 30.2414C28.5387 31.116 28.3259 33.1579 28.2969 33.4198L21.5246 33.2727C21.5675 33.012 21.8324 31.3717 21.8383 30.7851C21.8484 29.7536 21.4918 28.9434 21.4645 28.8824L20.8939 25.8995Z" fill="#2B2A25"/>
<path d="M21.4886 33.3334L21.4902 33.2721C20.212 33.2393 18.2626 33.1552 18.1327 33.0559C17.8833 32.8659 17.6272 32.4757 17.3796 32.0981C17.1361 31.7268 16.8842 31.3424 16.6261 31.1238C15.8276 30.4472 15.6148 30.2012 15.5252 29.6311C15.479 29.3376 15.6303 28.4554 15.8696 27.6228C16.1518 26.6397 16.4696 26.0199 16.7194 25.9653C17.3194 25.8337 20.8221 25.8993 20.8574 25.9001L20.8587 25.8387C20.714 25.8358 17.3131 25.7723 16.7064 25.9056C16.3145 25.9918 15.9495 27.1233 15.8112 27.606C15.5698 28.4461 15.418 29.3397 15.4651 29.6407C15.5618 30.2547 15.8339 30.5326 16.587 31.1709C16.838 31.3837 17.0873 31.7642 17.3287 32.1317C17.5907 32.5312 17.8379 32.9088 18.0957 33.1047C18.2832 33.2477 21.161 33.3255 21.4886 33.3334Z" fill="#2B2A25"/>
<path d="M22.2288 30.2421C22.2158 30.3767 22.3146 30.4965 22.4491 30.5095L23.4251 30.6037C23.5601 30.6167 23.6795 30.5179 23.6925 30.3834L23.7005 30.3022C23.7135 30.1677 23.6147 30.0478 23.4802 30.0348L22.5042 29.9406C22.3697 29.9276 22.2498 30.0264 22.2368 30.1609L22.2288 30.2421Z" fill="#875F5C"/>
<path d="M22.1468 29.9486C22.1396 30.0218 22.193 30.0865 22.2662 30.0937L23.7913 30.2413C23.8645 30.2484 23.9292 30.195 23.9364 30.1218C23.9435 30.0487 23.8901 29.9839 23.817 29.9768L22.2919 29.8292C22.2187 29.8225 22.1539 29.8759 22.1468 29.9486Z" fill="#2B2A25"/>
<path d="M16.0262 29.6024C16.0131 29.737 16.1119 29.8568 16.2465 29.8699L17.2225 29.9641C17.357 29.9771 17.4768 29.8783 17.4899 29.7437L17.4979 29.6626C17.5109 29.528 17.4121 29.4082 17.2775 29.3951L16.3016 29.301C16.1666 29.2879 16.0472 29.3867 16.0342 29.5213L16.0262 29.6024Z" fill="#875F5C"/>
<path d="M15.9437 29.309C15.9365 29.3821 15.9899 29.4469 16.0631 29.454L17.5882 29.6016C17.6613 29.6088 17.7261 29.5554 17.7332 29.4822C17.7404 29.409 17.687 29.3443 17.6138 29.3371L16.0887 29.1895C16.0156 29.1828 15.9508 29.2362 15.9437 29.309Z" fill="#2B2A25"/>
<path d="M37.5192 29.2324H39.9614V36.4753H37.5192V29.2324Z" fill="#777464"/>
<path d="M12.064 36.4753H46.5337V39.8788H12.064V36.4753Z" fill="#2B2A25"/>
<path d="M51.8397 34.3506H52.3447V36.4345H51.8397V34.3506Z" fill="#E57B07"/>
<path d="M52.3449 34.5593C52.3449 34.5593 52.969 34.5833 52.9988 35.3355C53.0324 36.1811 52.3449 36.2661 52.3449 36.2661V34.5593Z" fill="#DBE4EB"/>
<path d="M52.8447 35.0758C52.878 35.1734 52.8813 35.2789 52.8746 35.3819C52.8721 35.4206 52.8679 35.4606 52.8502 35.495C52.8325 35.5295 52.7981 35.5581 52.759 35.5585C52.7013 35.559 52.6618 35.5018 52.6362 35.4501C52.6164 35.4101 52.5983 35.3697 52.5798 35.329C52.558 35.2798 52.5357 35.2306 52.5138 35.1814C52.4936 35.1368 52.4739 35.0914 52.4659 35.043C52.4495 34.9438 52.521 34.8113 52.6391 34.8383C52.7379 34.861 52.8149 34.9884 52.8447 35.0758Z" fill="white"/>
<path d="M42.4225 24.5876C42.473 24.4867 43.3833 24.4993 43.5095 24.5876C43.6361 24.6759 43.7622 25.8012 43.7622 25.8012H42.2325C42.2329 25.8012 42.3721 24.6886 42.4225 24.5876Z" fill="#3F48EF"/>
<path d="M42.1597 26.3508V25.8008H43.9148V26.3508H42.1597Z" fill="#E57B07"/>
<path d="M43.5433 25.3067C43.5547 25.3584 43.5648 25.4177 43.532 25.4593C43.5122 25.4845 43.4807 25.4972 43.4504 25.5085C43.3806 25.535 43.2927 25.5585 43.2385 25.5068C43.2107 25.4803 43.2006 25.4412 43.1926 25.4038C43.1569 25.2394 43.0236 24.8113 43.2444 24.7251C43.4933 24.628 43.5105 25.1599 43.5433 25.3067Z" fill="#3792ED"/>
<path d="M51.8311 39.8787H46.186C46.186 39.8787 46.1961 38.6526 44.8779 37.4643C43.4142 36.1456 39.5663 36.4925 39.5663 36.4925V26.3508H45.5448L51.8311 33.5184V39.8787Z" fill="#FF8E06"/>
<path d="M12.0646 35.8157H39.5669V36.475H12.0646V35.8157Z" fill="#E57B07"/>
<path d="M49.7692 33.6034H43.9484C43.6557 33.6034 43.4173 33.3465 43.4131 33.0265L43.3399 27.8806C43.3353 27.5535 43.5763 27.2856 43.8752 27.2856H45.2712C45.4176 27.2856 45.5572 27.3508 45.6581 27.4665L50.156 32.6128C50.4819 32.9853 50.2405 33.6034 49.7692 33.6034Z" fill="#97C1BF"/>
<path d="M40.9596 33.6035H42.0201C42.3346 33.6035 42.5898 33.3483 42.5898 33.0337V27.8559C42.5898 27.5414 42.3346 27.2861 42.0201 27.2861H40.9596C40.6451 27.2861 40.3899 27.5414 40.3899 27.8559V33.0342C40.3899 33.3487 40.6451 33.6035 40.9596 33.6035Z" fill="#97C1BF"/>
<path d="M49.8063 33.2049L45.3083 28.059C45.2074 27.9433 45.0674 27.8782 44.9215 27.8782H43.5255C43.4603 27.8782 43.3981 27.8908 43.34 27.9143L43.3396 27.8992C43.335 27.572 43.5759 27.3042 43.8749 27.3042H45.2709C45.4172 27.3042 45.5568 27.3694 45.6577 27.485L50.1561 32.6305C50.4357 32.9501 50.2974 33.45 49.9551 33.5863C49.9509 33.4521 49.9046 33.3171 49.8063 33.2049Z" fill="#2B2A25"/>
<path d="M42.24 28.474C42.24 28.1448 41.9961 27.8782 41.6955 27.8782H40.585C40.5164 27.8782 40.4508 27.892 40.3903 27.9177V27.9C40.3903 27.5708 40.6342 27.3042 40.9348 27.3042H42.0453C42.346 27.3042 42.5898 27.5712 42.5898 27.9V33.0257C42.5898 33.2797 42.4444 33.4967 42.24 33.5825V28.474Z" fill="#2B2A25"/>
<path d="M48.0611 39.879H52.0788C52.3084 39.879 52.4951 39.6927 52.4951 39.4627V36.96C52.4951 36.7304 52.3088 36.5437 52.0788 36.5437H48.0611C47.8315 36.5437 47.6448 36.73 47.6448 36.96V39.4631C47.6448 39.6927 47.8311 39.879 48.0611 39.879Z" fill="#E57B07"/>
<path d="M48.5047 37.7855H51.8631C51.9695 37.7855 52.0557 37.6993 52.0557 37.5929V37.0522C52.0557 36.9458 51.9695 36.8596 51.8631 36.8596H48.5047C48.3983 36.8596 48.3121 36.9458 48.3121 37.0522V37.5929C48.3121 37.6993 48.3983 37.7855 48.5047 37.7855Z" fill="#FF8E06"/>
<path d="M44.0122 34.5291H45.7051V34.8802H44.0122V34.5291Z" fill="black"/>
<path d="M30.0294 40.6529H36.1096C36.5452 40.6529 36.8984 40.2997 36.8984 39.8641V37.5418C36.8984 37.1061 36.5452 36.7529 36.1096 36.7529H30.0294C29.5938 36.7529 29.2406 37.1061 29.2406 37.5418V39.8641C29.241 40.2997 29.5938 40.6529 30.0294 40.6529Z" fill="#777464"/>
<path d="M35.1971 36.7532H35.7925V40.6532H35.1971V36.7532Z" fill="black"/>
<path d="M30.4212 36.7532H31.0166V40.6532H30.4212V36.7532Z" fill="black"/>
<path opacity="0.23" d="M47.7886 33.5821L45.6412 33.5859L43.3718 31.4339V30.1577L47.7886 33.5821Z" fill="white"/>
<path opacity="0.23" d="M47.7149 29.8279L43.3414 28.0198L43.3717 28.9238L49.7261 32.1443L47.7149 29.8279Z" fill="white"/>
<path opacity="0.23" d="M42.5884 29.1366L40.3901 28.0198V28.796L42.5884 30.3064V29.1366Z" fill="white"/>
<path opacity="0.23" d="M42.5884 32.0824L40.3901 30.4446V31.2637L42.5884 32.8981V32.1442V32.0824Z" fill="white"/>
<path d="M39.8249 42.5424C38.5534 41.271 38.5534 39.2095 39.8249 37.938C41.0963 36.6666 43.1578 36.6666 44.4293 37.938C45.7007 39.2095 45.7007 41.271 44.4293 42.5424C43.1578 43.8139 41.0963 43.8139 39.8249 42.5424Z" fill="#777464"/>
<path d="M40.5228 37.4277C39.6583 38.1152 38.9523 39.1555 39.0616 40.3354C39.2109 41.9513 40.1696 43.6808 42.8796 43.2515C43.3072 43.1838 43.7979 43.0126 44.1528 42.8112C43.7054 43.1669 43.0205 43.3986 42.4124 43.4781C40.6296 43.7115 39.1335 42.466 38.9001 40.6831C38.7231 39.33 39.4043 38.0622 40.5228 37.4277Z" fill="#424038"/>
<path d="M42.1264 42.2263C41.0295 42.2263 40.1404 41.3372 40.1404 40.2403C40.1404 39.1435 41.0295 38.2544 42.1264 38.2544C43.2232 38.2544 44.1123 39.1435 44.1123 40.2403C44.1123 41.3372 43.2232 42.2263 42.1264 42.2263Z" fill="#B7B29E"/>
<path d="M40.8367 41.53C40.1243 40.8177 40.1243 39.6628 40.8367 38.9504C41.549 38.2381 42.7039 38.2381 43.4163 38.9504C44.1286 39.6628 44.1286 40.8177 43.4163 41.53C42.7039 42.2424 41.549 42.2424 40.8367 41.53Z" fill="#969283"/>
<path d="M41.087 41.008C40.6626 40.4337 40.7841 39.6242 41.3584 39.1998C41.9327 38.7754 42.7422 38.8969 43.1666 39.4712C43.591 40.0454 43.4695 40.855 42.8952 41.2794C42.321 41.7038 41.5114 41.5823 41.087 41.008Z" fill="#777464"/>
<path d="M42.0523 41.1174C42.0658 41.2196 42.1595 41.2919 42.2621 41.2785C42.3643 41.265 42.4366 41.1712 42.4232 41.0687L42.1999 39.3636C42.1865 39.2614 42.0927 39.1891 41.9901 39.2025C41.8879 39.216 41.8156 39.3098 41.829 39.4124L42.0523 41.1174Z" fill="#969283"/>
<path d="M41.2466 40.148C41.1444 40.1614 41.0721 40.2552 41.0855 40.3578C41.099 40.46 41.1928 40.5323 41.2954 40.5189L43.0004 40.2956C43.1026 40.2821 43.1749 40.1883 43.1615 40.0858C43.148 39.9836 43.0543 39.9113 42.9517 39.9247L41.2466 40.148Z" fill="#969283"/>
<path d="M41.4485 40.8158C41.3854 40.8978 41.401 41.0151 41.483 41.0778C41.565 41.1408 41.6823 41.1253 41.7449 41.0433L42.7928 39.6796C42.8558 39.5976 42.8403 39.4803 42.7583 39.4177C42.6763 39.3546 42.559 39.3702 42.4963 39.4522L41.4485 40.8158Z" fill="#969283"/>
<path d="M41.5641 39.5607C41.4821 39.4977 41.3648 39.5132 41.3021 39.5952C41.2391 39.6772 41.2546 39.7945 41.3366 39.8572L42.7002 40.905C42.7822 40.9681 42.8996 40.9526 42.9622 40.8706C43.0253 40.7886 43.0097 40.6712 42.9277 40.6086L41.5641 39.5607Z" fill="#969283"/>
<path d="M41.8738 40.9428C41.4853 40.803 41.2837 40.3747 41.4235 39.9862C41.5633 39.5977 41.9916 39.3961 42.3801 39.5359C42.7686 39.6757 42.9702 40.104 42.8304 40.4925C42.6905 40.881 42.2623 41.0826 41.8738 40.9428Z" fill="#969283"/>
<path opacity="0.4" d="M45.0283 39.6996L44.7256 39.5218C44.7256 39.5218 44.5633 38.5185 43.4729 37.9004C42.4777 37.3361 41.384 37.5993 41.384 37.5993L41.249 37.3996C41.249 37.3996 42.616 37.0497 43.6798 37.7023C44.961 38.4882 45.0283 39.6996 45.0283 39.6996Z" fill="#969283"/>
<path d="M41.9234 39.376C41.9297 39.4243 41.9743 39.4588 42.0227 39.4521C42.071 39.4458 42.1055 39.4012 42.0988 39.3528C42.0925 39.3045 42.0479 39.27 41.9995 39.2767C41.9512 39.2834 41.9171 39.3272 41.9234 39.376Z" fill="#B7B29E"/>
<path d="M41.3483 39.7137C41.334 39.6669 41.3605 39.6173 41.4073 39.603C41.4542 39.5887 41.5038 39.6151 41.5181 39.662C41.5324 39.7088 41.5059 39.7584 41.4591 39.7727C41.4122 39.787 41.3626 39.7606 41.3483 39.7137Z" fill="#B7B29E"/>
<path d="M41.1364 40.3562C41.1427 40.4045 41.1873 40.439 41.2356 40.4323C41.284 40.426 41.3181 40.3814 41.3117 40.3331C41.3054 40.2847 41.2609 40.2502 41.2125 40.2569C41.1642 40.2633 41.1301 40.3078 41.1364 40.3562Z" fill="#B7B29E"/>
<path d="M41.482 40.9863C41.4883 41.0347 41.5329 41.0691 41.5813 41.0624C41.6296 41.0561 41.6641 41.0115 41.6574 40.9632C41.6511 40.9148 41.6065 40.8803 41.5581 40.8871C41.5098 40.8938 41.4753 40.9379 41.482 40.9863Z" fill="#B7B29E"/>
<path d="M42.1607 41.1303C42.167 41.1786 42.2116 41.2131 42.26 41.2064C42.3083 41.2001 42.3428 41.1555 42.3361 41.1071C42.3298 41.0588 42.2852 41.0247 42.2368 41.031C42.1885 41.0373 42.1544 41.0819 42.1607 41.1303Z" fill="#B7B29E"/>
<path d="M42.7369 40.7834C42.7432 40.8318 42.7878 40.8663 42.8361 40.8595C42.8845 40.8532 42.919 40.8087 42.9122 40.7603C42.9059 40.7119 42.8614 40.6775 42.813 40.6842C42.7647 40.6905 42.7306 40.7346 42.7369 40.7834Z" fill="#B7B29E"/>
<path d="M42.9001 40.133C42.9064 40.1814 42.951 40.2159 42.9993 40.2091C43.0477 40.2028 43.0817 40.1583 43.0754 40.1099C43.0691 40.0616 43.0245 40.0271 42.9762 40.0338C42.9278 40.0401 42.8938 40.0847 42.9001 40.133Z" fill="#B7B29E"/>
<path d="M42.5733 39.5393C42.5796 39.5876 42.6242 39.6221 42.6726 39.6154C42.7209 39.6091 42.7554 39.5645 42.7487 39.5162C42.7424 39.4678 42.6978 39.4333 42.6494 39.44C42.6015 39.4464 42.567 39.4909 42.5733 39.5393Z" fill="#B7B29E"/>
<path d="M41.7195 40.2935C41.749 40.5185 41.955 40.6766 42.18 40.6472C42.4049 40.6177 42.563 40.4117 42.5336 40.1867C42.5041 39.9618 42.2981 39.8037 42.0732 39.8331C41.8482 39.8625 41.6901 40.0686 41.7195 40.2935Z" fill="#B7B29E"/>
<path d="M13.7243 42.508C12.4528 41.2365 12.4528 39.1751 13.7243 37.9036C14.9958 36.6322 17.0572 36.6322 18.3287 37.9036C19.6001 39.1751 19.6001 41.2365 18.3287 42.508C17.0572 43.7795 14.9958 43.7795 13.7243 42.508Z" fill="#777464"/>
<path d="M14.4232 37.3928C13.5587 38.0803 12.8527 39.1206 12.962 40.3005C13.1113 41.9164 14.07 43.6459 16.78 43.2165C17.2076 43.1488 17.6983 42.9777 18.0532 42.7763C17.6058 43.132 16.9209 43.3637 16.3128 43.4432C14.53 43.6766 13.0339 42.4311 12.8005 40.6482C12.6235 39.2951 13.3051 38.0273 14.4232 37.3928Z" fill="#424038"/>
<path d="M14.8149 41.7784C13.9453 41.11 13.7821 39.8632 14.4505 38.9935C15.1189 38.1239 16.3657 37.9607 17.2354 38.6291C18.1051 39.2975 18.2682 40.5444 17.5998 41.414C16.9314 42.2837 15.6846 42.4468 14.8149 41.7784Z" fill="#B7B29E"/>
<path d="M14.7366 41.4956C14.0242 40.7833 14.0242 39.6283 14.7366 38.916C15.4489 38.2037 16.6038 38.2037 17.3162 38.916C18.0285 39.6283 18.0285 40.7833 17.3162 41.4956C16.6038 42.2079 15.4489 42.2079 14.7366 41.4956Z" fill="#969283"/>
<path d="M15.3539 41.3132C14.7436 40.9424 14.5495 40.147 14.9203 39.5367C15.2912 38.9265 16.0865 38.7324 16.6968 39.1032C17.307 39.474 17.5011 40.2694 17.1303 40.8797C16.7595 41.4899 15.9641 41.684 15.3539 41.3132Z" fill="#777464"/>
<path d="M15.9522 41.0823C15.9657 41.1845 16.0595 41.2568 16.162 41.2433C16.2642 41.2299 16.3366 41.1361 16.3231 41.0335L16.0998 39.3284C16.0864 39.2263 15.9926 39.1539 15.89 39.1674C15.7878 39.1808 15.7155 39.2746 15.7289 39.3772L15.9522 41.0823Z" fill="#969283"/>
<path d="M15.147 40.1133C15.0448 40.1268 14.9725 40.2205 14.9859 40.3231C14.9994 40.4253 15.0932 40.4976 15.1958 40.4842L16.9008 40.2609C17.003 40.2475 17.0753 40.1537 17.0619 40.0511C17.0484 39.9489 16.9546 39.8766 16.852 39.89L15.147 40.1133Z" fill="#969283"/>
<path d="M15.3479 40.7806C15.2848 40.8626 15.3004 40.9799 15.3824 41.0426C15.4644 41.1057 15.5817 41.0901 15.6443 41.0081L16.6922 39.6445C16.7553 39.5625 16.7397 39.4452 16.6577 39.3825C16.5757 39.3194 16.4584 39.335 16.3957 39.417L15.3479 40.7806Z" fill="#969283"/>
<path d="M15.4634 39.5261C15.3814 39.463 15.2641 39.4786 15.2015 39.5606C15.1384 39.6425 15.154 39.7599 15.236 39.8225L16.5992 40.8704C16.6812 40.9334 16.7985 40.9179 16.8611 40.8359C16.9242 40.7539 16.9086 40.6366 16.8267 40.5739L15.4634 39.5261Z" fill="#969283"/>
<path d="M15.5688 40.7966C15.2414 40.545 15.1799 40.0756 15.4316 39.7482C15.6832 39.4208 16.1526 39.3594 16.48 39.611C16.8074 39.8627 16.8688 40.3321 16.6172 40.6594C16.3655 40.9868 15.8961 41.0483 15.5688 40.7966Z" fill="#969283"/>
<path opacity="0.4" d="M18.9277 39.6642L18.625 39.4864C18.625 39.4864 18.4627 38.4831 17.3724 37.865C16.3771 37.3007 15.2834 37.5639 15.2834 37.5639L15.1484 37.3642C15.1484 37.3642 16.5154 37.0143 17.5792 37.6669C18.8605 38.4532 18.9277 39.6642 18.9277 39.6642Z" fill="#969283"/>
<path d="M15.8234 39.3414C15.8297 39.3898 15.8743 39.4243 15.9226 39.4175C15.971 39.4112 16.0051 39.3667 15.9988 39.3183C15.9925 39.27 15.9479 39.2359 15.8995 39.2422C15.8512 39.2485 15.8171 39.2927 15.8234 39.3414Z" fill="#B7B29E"/>
<path d="M15.2447 39.665C15.251 39.7134 15.2956 39.7479 15.344 39.7411C15.3923 39.7348 15.4268 39.6902 15.4201 39.6419C15.4138 39.5935 15.3692 39.5591 15.3208 39.5658C15.2725 39.5721 15.2384 39.6167 15.2447 39.665Z" fill="#B7B29E"/>
<path d="M15.0357 40.3217C15.042 40.37 15.0866 40.4045 15.135 40.3978C15.1833 40.3915 15.2178 40.3469 15.2111 40.2985C15.2048 40.2502 15.1602 40.2161 15.1118 40.2224C15.0635 40.2287 15.0294 40.2733 15.0357 40.3217Z" fill="#B7B29E"/>
<path d="M15.3824 40.9513C15.3887 40.9997 15.4333 41.0341 15.4816 41.0274C15.53 41.0211 15.5645 40.9765 15.5578 40.9282C15.5514 40.8798 15.5069 40.8458 15.4585 40.8521C15.4102 40.8584 15.3761 40.9029 15.3824 40.9513Z" fill="#B7B29E"/>
<path d="M16.0611 41.0954C16.0674 41.1438 16.112 41.1783 16.1604 41.1715C16.2087 41.1652 16.2432 41.1207 16.2365 41.0723C16.2302 41.024 16.1856 40.9895 16.1372 40.9962C16.0889 41.0025 16.0548 41.0471 16.0611 41.0954Z" fill="#B7B29E"/>
<path d="M16.6363 40.7487C16.6426 40.797 16.6872 40.8315 16.7356 40.8248C16.7839 40.8185 16.8184 40.7739 16.8117 40.7255C16.8054 40.6772 16.7608 40.6431 16.7124 40.6494C16.6641 40.6557 16.63 40.6999 16.6363 40.7487Z" fill="#B7B29E"/>
<path d="M16.8053 40.1148C16.7894 40.0684 16.8141 40.0179 16.8605 40.002C16.9068 39.9862 16.9573 40.0108 16.9732 40.0572C16.9891 40.1035 16.9644 40.154 16.918 40.1699C16.8717 40.1858 16.8212 40.1611 16.8053 40.1148Z" fill="#B7B29E"/>
<path d="M16.4738 39.5045C16.4801 39.5529 16.5247 39.5874 16.573 39.5806C16.6214 39.5743 16.6555 39.5298 16.6492 39.4814C16.6428 39.433 16.5983 39.399 16.5499 39.4053C16.502 39.4116 16.4675 39.4562 16.4738 39.5045Z" fill="#B7B29E"/>
<path d="M15.6185 40.2589C15.6479 40.4838 15.8539 40.6419 16.0789 40.6125C16.3038 40.5831 16.4619 40.377 16.4325 40.1521C16.4031 39.9271 16.197 39.769 15.9721 39.7984C15.7471 39.8279 15.589 40.0339 15.6185 40.2589Z" fill="#B7B29E"/>
<path d="M38.1288 22.6738H39.0518V30.4061H38.1288V22.6738Z" fill="#777464"/>
<path d="M39.0518 24.5166V25.1255L38.1288 25.8012V24.5166H39.0518Z" fill="#424038"/>
<path d="M40.3018 21.7006C40.2139 21.6505 22.1461 18.2505 22.1461 18.2505L21.6722 19.2235L37.8684 24.7129C37.8684 24.7129 39.166 25.1687 39.7896 24.1957C40.4136 23.2227 40.3018 21.7006 40.3018 21.7006Z" fill="#777464"/>
<path d="M38.5509 23.7857C38.1675 23.7857 37.8567 23.4748 37.8567 23.0914C37.8567 22.708 38.1675 22.3972 38.5509 22.3972C38.9343 22.3972 39.2451 22.708 39.2451 23.0914C39.2451 23.4748 38.9343 23.7857 38.5509 23.7857Z" fill="#424038"/>
<path d="M14.0835 23.9539H32.2358V24.2982H14.0835V23.9539Z" fill="#424038"/>
<path d="M31.8873 23.9539H32.2358V34.7708H31.8873V23.9539Z" fill="#424038"/>
<path d="M33.7549 35.8159L32.2365 34.3379H31.8947L30.1223 35.8159L30.6576 35.8205L32.0536 34.7706L33.2524 35.823L33.7549 35.8159Z" fill="#424038"/>
<path d="M14.0835 23.9736H14.4321V34.7906H14.0835V23.9736Z" fill="#424038"/>
<path d="M15.9507 35.8363L14.4323 34.3579H14.0905L12.3185 35.8363L12.8538 35.841L14.2498 34.791L15.4486 35.8435L15.9507 35.8363Z" fill="#424038"/>
<path d="M22.5293 20.0076H23.0474V24.2982H22.5293V20.0076Z" fill="#424038"/>
<path d="M24.0604 17.5985C24.4994 17.6687 24.8173 18.0552 24.8017 18.4996C24.7706 19.3873 24.7214 20.721 24.7062 20.7534C24.689 20.7913 22.2855 20.7698 21.2452 20.7589C20.9841 20.7559 20.7743 20.5436 20.7743 20.2825V17.6313C20.7743 17.3382 21.0363 17.1145 21.326 17.1612L24.0604 17.5985Z" fill="#777464"/>
<path d="M22.1865 19.4557C21.9154 19.1846 21.9154 18.7451 22.1865 18.474C22.4576 18.2029 22.8972 18.2029 23.1683 18.474C23.4394 18.7451 23.4394 19.1846 23.1683 19.4557C22.8972 19.7268 22.4576 19.7268 22.1865 19.4557Z" fill="#424038"/>
<path d="M24.7589 18.7427C24.7929 18.749 24.7526 20.2678 24.7526 20.2678L26.1313 20.7349L25.11 18.8087L24.7589 18.7427Z" fill="#424038"/>
</svg>
