<svg width="62" height="62" viewBox="0 0 62 62" fill="none" xmlns="http://www.w3.org/2000/svg">
<rect width="62" height="62" rx="10" fill="#F2F2F2"/>
<path d="M18.3243 17.3628C17.904 17.3628 17.3581 17.5573 16.5776 18.0633C16.8875 18.4291 17.2157 18.8201 17.8643 19.5677C18.316 20.0883 18.772 20.606 19.1164 20.9808C19.1193 20.9841 19.1207 20.9851 19.1235 20.9883L21.5371 19.5874L20.3925 18.4821C19.5103 17.7474 18.9359 17.3988 18.4067 17.3654C18.3792 17.3637 18.3518 17.3628 18.3243 17.3628ZM27.7056 18.5411C27.6368 18.5403 27.5679 18.5406 27.4991 18.5419C26.6819 18.5569 25.921 18.7161 25.4099 18.9656L20.155 22.0154C20.3464 22.0579 20.5367 22.1089 20.7243 22.1733C22.0739 22.636 23.3097 23.5969 24.5968 24.8842L41.5062 41.5639L47.8326 38.0926L31.1985 19.7016C30.5223 19.0891 29.4415 18.6932 28.3319 18.5771C28.1238 18.5554 27.9147 18.5434 27.7055 18.5412L27.7056 18.5411ZM15.5464 19.0266C14.1758 20.6456 13.9393 21.9318 14.349 23.4801C14.4031 23.6846 14.5878 23.9767 14.8469 24.298C15.0234 24.0453 15.208 23.7983 15.4005 23.5576C15.7122 23.1673 16.0556 22.8401 16.4228 22.5765L16.4145 22.5608L16.6307 22.4351C16.7356 22.3682 16.8432 22.3058 16.9534 22.2481L17.8806 21.7098C17.5171 21.3066 17.1576 20.8997 16.8022 20.4894C16.3813 20.0038 15.9626 19.5162 15.5464 19.0266ZM29.9286 20.0765L34.4923 24.8944C30.8918 24.5009 30.0556 25.9257 29.0996 27.5663L24.6203 22.9332L29.9286 20.0765ZM19.1018 23.2837C19.0458 23.2824 18.9898 23.2824 18.9339 23.2838C18.3889 23.2979 17.8239 23.4446 17.1954 23.7436C16.9583 23.9225 16.7275 24.1495 16.4993 24.4351C14.486 26.9558 14.1204 29.0551 14.5084 30.9568C14.8963 32.8586 16.1128 34.6018 17.4706 36.1486C18.5107 37.3336 19.7253 38.0229 21.2575 38.3306C22.7898 38.6384 24.651 38.5422 26.8809 38.0591C29.4782 37.4966 32.0379 38.7169 34.366 40.2204C36.4065 41.5383 38.3251 43.1181 39.9114 44.1228L40.5981 42.6435L23.6043 25.8802L23.6026 25.8785C22.3898 24.6657 21.2928 23.8547 20.2681 23.5033C19.8759 23.3688 19.4927 23.2929 19.1018 23.2837ZM47.78 39.7255L42.0417 42.8743L41.2229 44.6373L46.7567 41.6365L47.7799 39.7256L47.78 39.7255Z" fill="url(#paint0_linear_0_1)"/>
<defs>
<linearGradient id="paint0_linear_0_1" x1="31" y1="17.3628" x2="31" y2="44.6373" gradientUnits="userSpaceOnUse">
<stop stop-color="#6FE19F"/>
<stop offset="1" stop-color="#27AE60"/>
</linearGradient>
</defs>
</svg>
