<svg width="195" height="160" viewBox="0 0 195 160" fill="none" xmlns="http://www.w3.org/2000/svg">
<g clip-path="url(#clip0_1582_2879)">
<path d="M162.809 38.5859C162.191 36.0644 159.672 34.5145 157.177 35.1391L127.459 42.5416C125.65 42.9811 123.818 41.8708 123.383 40.0432C122.948 38.2389 124.047 36.4114 125.833 35.9487L141.402 31.9467C143.783 31.3453 145.225 28.9163 144.676 26.5105C144.104 24.0352 141.631 22.4853 139.181 23.1099L114.294 29.3789C112.622 29.7953 110.951 28.7544 110.562 27.0888C110.173 25.4463 111.18 23.7808 112.783 23.3644L163.954 10.0861C166.701 9.36893 168.327 6.52358 167.571 3.77075C166.839 1.08733 164.114 -0.485712 161.458 0.185144L109.554 13.4635L99.7094 7.21757C98.7936 6.63924 97.7404 6.33851 96.6872 6.33851C95.634 6.33851 94.5808 6.61611 93.665 7.21757L83.82 13.4635L31.9162 0.162011C29.2603 -0.508845 26.5358 1.0642 25.8031 3.74762C25.0476 6.50044 26.6731 9.36893 29.4206 10.0629L80.5918 23.3412C82.2173 23.7576 83.2018 25.4232 82.8126 27.0657C82.4234 28.7544 80.7291 29.7953 79.0807 29.3558L54.1934 23.0868C51.7436 22.4622 49.2709 24.0121 48.6985 26.4873C48.149 28.8932 49.6143 31.3221 51.9725 31.9236L67.5414 35.9256C69.3272 36.3882 70.4262 38.2157 69.9912 40.0201C69.5562 41.8476 67.7245 42.9811 65.9158 42.5185L36.1976 35.1159C33.702 34.4913 31.1835 36.0412 30.5653 38.5627C29.9472 41.0611 31.4583 43.6057 33.931 44.2534L61.726 51.4478V74.095C61.726 76.8709 63.9468 79.1148 66.6943 79.1148H66.8087H83.4079C85.3082 79.1148 86.8651 77.5649 86.8651 75.6217V56.1901C86.8651 54.5014 88.2159 53.1134 89.9102 53.1134H96.6872H103.464C105.136 53.1134 106.509 54.4782 106.509 56.1901V75.6217C106.509 77.5418 108.043 79.1148 109.967 79.1148H126.566C129.313 79.1148 131.534 76.8709 131.534 74.095V51.4709L159.443 44.2534C161.916 43.6289 163.427 41.0842 162.809 38.5859Z" fill="white"/>
<path d="M26.1236 25.539L38.1666 28.5463C40.8225 29.2171 43.5012 27.5747 44.1652 24.8913C44.8292 22.2078 43.2036 19.5013 40.5477 18.8304L28.5048 15.8231C25.8489 15.1523 23.1701 16.7947 22.5062 19.4781C21.8422 22.1616 23.4678 24.8681 26.1236 25.539Z" fill="white"/>
<path d="M23.667 40.5674C26.1554 39.526 27.337 36.6436 26.3063 34.1294C25.2755 31.6152 22.4227 30.4213 19.9344 31.4627C17.446 32.5041 16.2644 35.3865 17.2951 37.9007C18.3258 40.4149 21.1786 41.6088 23.667 40.5674Z" fill="white"/>
<path d="M172.585 19.4549C171.876 16.7946 169.151 15.2216 166.495 15.9387L154.521 19.2236C151.888 19.9407 150.331 22.6935 151.041 25.377C151.751 28.0373 154.475 29.6103 157.131 28.8932L169.105 25.6083C171.738 24.868 173.295 22.1152 172.585 19.4549Z" fill="white"/>
<path d="M175.063 40.5953C177.69 39.9939 179.337 37.3548 178.741 34.7007C178.146 32.0467 175.534 30.3827 172.907 30.9841C170.281 31.5855 168.634 34.2245 169.229 36.8786C169.824 39.5327 172.436 41.1967 175.063 40.5953Z" fill="white"/>
<path d="M102.251 68.9132C103.844 68.9132 105.136 67.6083 105.136 65.9985C105.136 64.3887 103.844 63.0837 102.251 63.0837C100.658 63.0837 99.366 64.3887 99.366 65.9985C99.366 67.6083 100.658 68.9132 102.251 68.9132Z" fill="white"/>
<path d="M0 98.6389H6.75414V111.27L16.2328 98.6389H24.0173L14.1722 111.663L26.3068 127H17.6752L6.75414 113.629V127H0V98.6389Z" fill="white"/>
<path d="M43.7989 98.6389H35.9916L24.3149 125.08L24.0173 126.977H31.2064L33.3586 121.402H45.5847L47.4621 126.977H54.72L43.7989 98.6389ZM35.3963 116.636L39.8151 105.81L43.7989 116.636H35.3963Z" fill="white"/>
<path d="M127.733 98.6389H119.926L108.249 125.08L107.952 126.977H115.164L117.316 121.402H129.542L131.42 127H138.654L127.733 98.6389ZM119.331 116.636L123.75 105.81L127.733 116.636H119.331Z" fill="white"/>
<path d="M76.9056 117.862C75.28 113.999 73.2194 113.467 73.2194 113.467C76.0356 113.467 78.3022 111.177 78.3022 108.332V106.342C78.3022 102.086 74.8908 98.6389 70.678 98.6389H57.0782V127H63.8323V115.433C68.0909 114.763 69.2585 117.469 69.2585 117.469L73.1965 127H81.0039C81.0268 127 78.5312 121.726 76.9056 117.862ZM67.9535 110.39H63.8323V103.659H67.9535C69.7851 103.659 71.2962 105.162 71.2962 107.036C71.2962 108.887 69.7851 110.39 67.9535 110.39Z" fill="white"/>
<path d="M82.1257 98.6389H107.769L92.7263 121.402H107.769V127H80.752L96.2751 103.659H82.1257V98.6389Z" fill="white"/>
<path d="M111.958 127H107.379L109.303 122.743L111.958 127Z" fill="white"/>
<path d="M140.761 98.6389V127H147.492V109.257L155.666 119.667L164.091 109.257V127H170.754V98.6389H164.091L155.666 109.257L147.492 98.6389H140.761Z" fill="white"/>
<path d="M183.323 98.6389H176.592V127H183.323V98.6389Z" fill="white"/>
<path d="M194.954 98.6389H180.805V103.636H194.954V98.6389Z" fill="white"/>
<path d="M195.023 121.98H180.874V126.977H195.023V121.98Z" fill="white"/>
<path d="M194.359 109.604H180.21V114.601H194.359V109.604Z" fill="white"/>
</g>
<path d="M22.3873 156L18.5093 146.2H19.9093L23.8573 156H22.3873ZM14.4913 156L18.4393 146.2H19.8393L15.9613 156H14.4913ZM16.3533 153.382V152.15H21.9953V153.382H16.3533ZM32.1303 156L36.0643 146.2H37.5343L33.5163 156H32.1303ZM31.9903 156L27.9723 146.2H29.4423L33.3623 156H31.9903ZM38.8966 156L38.9246 149H40.2406L40.2266 156H38.8966ZM39.5686 147.516C39.354 147.516 39.1673 147.437 39.0086 147.278C38.85 147.11 38.7706 146.919 38.7706 146.704C38.7706 146.48 38.85 146.293 39.0086 146.144C39.1673 145.985 39.354 145.906 39.5686 145.906C39.7926 145.906 39.9793 145.985 40.1286 146.144C40.2873 146.293 40.3666 146.48 40.3666 146.704C40.3666 146.919 40.2873 147.11 40.1286 147.278C39.9793 147.437 39.7926 147.516 39.5686 147.516ZM43.2138 152.234C43.2138 151.478 43.3585 150.862 43.6478 150.386C43.9371 149.91 44.3105 149.555 44.7678 149.322C45.2251 149.089 45.7058 148.972 46.2098 148.972V150.232C45.7898 150.232 45.3885 150.297 45.0058 150.428C44.6325 150.549 44.3245 150.755 44.0818 151.044C43.8485 151.324 43.7318 151.707 43.7318 152.192L43.2138 152.234ZM42.4018 156V149H43.7318V156H42.4018ZM50.2105 156.168C49.5105 156.168 48.9692 155.991 48.5865 155.636C48.2039 155.272 48.0125 154.754 48.0125 154.082V146.816H49.3425V153.886C49.3425 154.231 49.4265 154.497 49.5945 154.684C49.7719 154.861 50.0239 154.95 50.3505 154.95C50.4439 154.95 50.5465 154.931 50.6585 154.894C50.7705 154.857 50.9059 154.782 51.0645 154.67L51.5685 155.706C51.3259 155.865 51.0925 155.981 50.8685 156.056C50.6539 156.131 50.4345 156.168 50.2105 156.168ZM46.8225 150.148V149H51.3305V150.148H46.8225ZM57.8675 156L57.7835 154.712V149H59.0995V156H57.8675ZM52.9395 153.004V149H54.2695V152.584L52.9395 153.004ZM54.2695 152.584C54.2695 153.209 54.3395 153.69 54.4795 154.026C54.6288 154.362 54.8341 154.595 55.0955 154.726C55.3568 154.857 55.6508 154.927 55.9775 154.936C56.5468 154.936 56.9901 154.735 57.3075 154.334C57.6248 153.933 57.7835 153.368 57.7835 152.64H58.3575C58.3575 153.377 58.2501 154.012 58.0355 154.544C57.8208 155.067 57.5081 155.468 57.0975 155.748C56.6961 156.028 56.2108 156.168 55.6415 156.168C54.8015 156.168 54.1388 155.907 53.6535 155.384C53.1775 154.861 52.9395 154.068 52.9395 153.004L54.2695 152.584ZM65.465 156L65.395 154.782V152.346C65.395 151.833 65.3343 151.408 65.213 151.072C65.101 150.727 64.9237 150.465 64.681 150.288C64.4477 150.111 64.135 150.022 63.743 150.022C63.379 150.022 63.057 150.097 62.777 150.246C62.5063 150.395 62.2823 150.629 62.105 150.946L60.901 150.498C61.069 150.181 61.2837 149.896 61.545 149.644C61.8063 149.392 62.119 149.196 62.483 149.056C62.8563 148.907 63.2857 148.832 63.771 148.832C64.4243 148.832 64.9703 148.958 65.409 149.21C65.857 149.462 66.1883 149.84 66.403 150.344C66.627 150.839 66.7343 151.455 66.725 152.192L66.711 156H65.465ZM63.421 156.168C62.5903 156.168 61.9417 155.981 61.475 155.608C61.0177 155.225 60.789 154.698 60.789 154.026C60.789 153.307 61.027 152.761 61.503 152.388C61.9883 152.005 62.6603 151.814 63.519 151.814H65.465V152.864H63.883C63.239 152.864 62.7863 152.967 62.525 153.172C62.2637 153.368 62.133 153.643 62.133 153.998C62.133 154.325 62.2543 154.581 62.497 154.768C62.749 154.945 63.0943 155.034 63.533 155.034C63.9157 155.034 64.2423 154.945 64.513 154.768C64.793 154.591 65.0077 154.357 65.157 154.068C65.3157 153.769 65.395 153.438 65.395 153.074H66.025C66.025 154.026 65.8057 154.782 65.367 155.342C64.9283 155.893 64.2797 156.168 63.421 156.168ZM68.6256 156V146.2H69.9556V156H68.6256ZM79.1533 156.168C78.6306 156.168 78.1546 156.107 77.7253 155.986C77.3053 155.865 76.9366 155.701 76.6193 155.496C76.3113 155.281 76.0546 155.043 75.8493 154.782C75.6439 154.521 75.4993 154.245 75.4153 153.956L76.7453 153.522C76.8853 153.905 77.1513 154.236 77.5433 154.516C77.9353 154.796 78.4159 154.941 78.9853 154.95C79.6759 154.95 80.2173 154.815 80.6093 154.544C81.0106 154.264 81.2113 153.895 81.2113 153.438C81.2113 153.018 81.0386 152.677 80.6933 152.416C80.3479 152.145 79.8906 151.94 79.3213 151.8L78.1873 151.506C77.7393 151.385 77.3286 151.212 76.9553 150.988C76.5913 150.764 76.3019 150.479 76.0873 150.134C75.8726 149.789 75.7653 149.373 75.7653 148.888C75.7653 147.992 76.0546 147.292 76.6333 146.788C77.2213 146.284 78.0659 146.032 79.1673 146.032C79.8019 146.032 80.3526 146.135 80.8193 146.34C81.2859 146.536 81.6686 146.797 81.9673 147.124C82.2753 147.451 82.4946 147.81 82.6253 148.202L81.2953 148.65C81.1366 148.23 80.8659 147.894 80.4833 147.642C80.1006 147.381 79.6293 147.25 79.0693 147.25C78.4813 147.25 78.0146 147.39 77.6693 147.67C77.3333 147.95 77.1653 148.333 77.1653 148.818C77.1653 149.229 77.2959 149.546 77.5573 149.77C77.8279 149.985 78.1873 150.148 78.6353 150.26L79.7693 150.54C80.6839 150.764 81.3886 151.137 81.8833 151.66C82.3873 152.173 82.6393 152.738 82.6393 153.354C82.6393 153.886 82.5039 154.367 82.2333 154.796C81.9719 155.216 81.5799 155.552 81.0573 155.804C80.5439 156.047 79.9093 156.168 79.1533 156.168ZM88.7494 156L88.6794 154.782V152.346C88.6794 151.833 88.6187 151.408 88.4974 151.072C88.3854 150.727 88.2081 150.465 87.9654 150.288C87.7321 150.111 87.4194 150.022 87.0274 150.022C86.6634 150.022 86.3414 150.097 86.0614 150.246C85.7907 150.395 85.5667 150.629 85.3894 150.946L84.1854 150.498C84.3534 150.181 84.5681 149.896 84.8294 149.644C85.0907 149.392 85.4034 149.196 85.7674 149.056C86.1407 148.907 86.5701 148.832 87.0554 148.832C87.7087 148.832 88.2547 148.958 88.6934 149.21C89.1414 149.462 89.4727 149.84 89.6874 150.344C89.9114 150.839 90.0187 151.455 90.0094 152.192L89.9954 156H88.7494ZM86.7054 156.168C85.8747 156.168 85.2261 155.981 84.7594 155.608C84.3021 155.225 84.0734 154.698 84.0734 154.026C84.0734 153.307 84.3114 152.761 84.7874 152.388C85.2727 152.005 85.9447 151.814 86.8034 151.814H88.7494V152.864H87.1674C86.5234 152.864 86.0707 152.967 85.8094 153.172C85.5481 153.368 85.4174 153.643 85.4174 153.998C85.4174 154.325 85.5387 154.581 85.7814 154.768C86.0334 154.945 86.3787 155.034 86.8174 155.034C87.2001 155.034 87.5267 154.945 87.7974 154.768C88.0774 154.591 88.2921 154.357 88.4414 154.068C88.6001 153.769 88.6794 153.438 88.6794 153.074H89.3094C89.3094 154.026 89.0901 154.782 88.6514 155.342C88.2127 155.893 87.5641 156.168 86.7054 156.168ZM92.61 156V148.23C92.61 147.493 92.7874 146.937 93.142 146.564C93.4967 146.181 94.0334 145.99 94.752 145.99C94.9667 145.99 95.2 146.027 95.452 146.102C95.704 146.167 95.9607 146.261 96.222 146.382L95.732 147.404C95.536 147.311 95.3634 147.245 95.214 147.208C95.074 147.161 94.9527 147.138 94.85 147.138C94.542 147.138 94.3134 147.241 94.164 147.446C94.0147 147.642 93.94 147.95 93.94 148.37V156H92.61ZM91.364 150.106V149H95.872V150.106H91.364ZM100.412 156.168C99.7302 156.168 99.1282 156.014 98.6056 155.706C98.0829 155.389 97.6722 154.955 97.3736 154.404C97.0749 153.853 96.9256 153.219 96.9256 152.5C96.9256 151.781 97.0749 151.147 97.3736 150.596C97.6722 150.045 98.0829 149.616 98.6056 149.308C99.1376 148.991 99.7442 148.832 100.426 148.832C101.06 148.832 101.62 148.995 102.106 149.322C102.6 149.639 102.983 150.097 103.254 150.694C103.534 151.282 103.674 151.977 103.674 152.78H102.344C102.353 152.183 102.278 151.679 102.12 151.268C101.97 150.857 101.746 150.549 101.448 150.344C101.158 150.129 100.808 150.022 100.398 150.022C99.9589 150.022 99.5809 150.125 99.2636 150.33C98.9462 150.526 98.6989 150.811 98.5216 151.184C98.3536 151.548 98.2696 151.996 98.2696 152.528C98.2696 153.023 98.3676 153.452 98.5636 153.816C98.7596 154.171 99.0256 154.451 99.3616 154.656C99.6976 154.852 100.08 154.95 100.51 154.95C100.967 154.95 101.345 154.843 101.644 154.628C101.952 154.413 102.194 154.138 102.372 153.802L103.562 154.348C103.375 154.712 103.132 155.034 102.834 155.314C102.535 155.585 102.18 155.795 101.77 155.944C101.368 156.093 100.916 156.168 100.412 156.168ZM97.7936 152.78L97.8076 151.688H102.932V152.78H97.7936ZM107.915 156.168C107.215 156.168 106.674 155.991 106.291 155.636C105.909 155.272 105.717 154.754 105.717 154.082V146.816H107.047V153.886C107.047 154.231 107.131 154.497 107.299 154.684C107.477 154.861 107.729 154.95 108.055 154.95C108.149 154.95 108.251 154.931 108.363 154.894C108.475 154.857 108.611 154.782 108.769 154.67L109.273 155.706C109.031 155.865 108.797 155.981 108.573 156.056C108.359 156.131 108.139 156.168 107.915 156.168ZM104.527 150.148V149H109.035V150.148H104.527ZM111.666 158.968C111.461 158.968 111.232 158.931 110.98 158.856C110.738 158.781 110.486 158.683 110.224 158.562L110.714 157.47C110.92 157.563 111.097 157.633 111.246 157.68C111.405 157.727 111.531 157.75 111.624 157.75C111.858 157.75 112.054 157.685 112.212 157.554C112.38 157.423 112.516 157.241 112.618 157.008L113.43 155.09L115.922 149H117.35L114.032 156.868C113.855 157.297 113.668 157.671 113.472 157.988C113.276 158.305 113.034 158.548 112.744 158.716C112.464 158.884 112.105 158.968 111.666 158.968ZM113.066 156L110 149H111.414L113.948 155.076L114.354 156H113.066ZM129.341 156L125.463 146.2H126.863L130.811 156H129.341ZM121.445 156L125.393 146.2H126.793L122.915 156H121.445ZM123.307 153.382V152.15H128.949V153.382H123.307ZM134.586 156.168C134.091 156.168 133.648 156.093 133.256 155.944C132.873 155.795 132.546 155.594 132.276 155.342C132.014 155.09 131.818 154.805 131.688 154.488L132.836 153.984C132.985 154.273 133.209 154.511 133.508 154.698C133.806 154.885 134.138 154.978 134.502 154.978C134.903 154.978 135.234 154.903 135.496 154.754C135.757 154.605 135.888 154.395 135.888 154.124C135.888 153.863 135.79 153.657 135.594 153.508C135.398 153.359 135.113 153.237 134.74 153.144L134.082 152.976C133.428 152.799 132.92 152.533 132.556 152.178C132.201 151.823 132.024 151.422 132.024 150.974C132.024 150.293 132.243 149.765 132.682 149.392C133.12 149.019 133.769 148.832 134.628 148.832C135.048 148.832 135.43 148.893 135.776 149.014C136.13 149.135 136.429 149.308 136.672 149.532C136.924 149.756 137.101 150.022 137.204 150.33L136.084 150.834C135.972 150.554 135.78 150.349 135.51 150.218C135.239 150.078 134.922 150.008 134.558 150.008C134.184 150.008 133.89 150.092 133.676 150.26C133.461 150.419 133.354 150.643 133.354 150.932C133.354 151.091 133.442 151.245 133.62 151.394C133.806 151.534 134.077 151.651 134.432 151.744L135.188 151.926C135.645 152.038 136.023 152.211 136.322 152.444C136.62 152.668 136.844 152.925 136.994 153.214C137.143 153.494 137.218 153.788 137.218 154.096C137.218 154.516 137.101 154.885 136.868 155.202C136.644 155.51 136.331 155.748 135.93 155.916C135.538 156.084 135.09 156.168 134.586 156.168ZM141.319 156.168C140.825 156.168 140.381 156.093 139.989 155.944C139.607 155.795 139.28 155.594 139.009 155.342C138.748 155.09 138.552 154.805 138.421 154.488L139.569 153.984C139.719 154.273 139.943 154.511 140.241 154.698C140.54 154.885 140.871 154.978 141.235 154.978C141.637 154.978 141.968 154.903 142.229 154.754C142.491 154.605 142.621 154.395 142.621 154.124C142.621 153.863 142.523 153.657 142.327 153.508C142.131 153.359 141.847 153.237 141.473 153.144L140.815 152.976C140.162 152.799 139.653 152.533 139.289 152.178C138.935 151.823 138.757 151.422 138.757 150.974C138.757 150.293 138.977 149.765 139.415 149.392C139.854 149.019 140.503 148.832 141.361 148.832C141.781 148.832 142.164 148.893 142.509 149.014C142.864 149.135 143.163 149.308 143.405 149.532C143.657 149.756 143.835 150.022 143.937 150.33L142.817 150.834C142.705 150.554 142.514 150.349 142.243 150.218C141.973 150.078 141.655 150.008 141.291 150.008C140.918 150.008 140.624 150.092 140.409 150.26C140.195 150.419 140.087 150.643 140.087 150.932C140.087 151.091 140.176 151.245 140.353 151.394C140.54 151.534 140.811 151.651 141.165 151.744L141.921 151.926C142.379 152.038 142.757 152.211 143.055 152.444C143.354 152.668 143.578 152.925 143.727 153.214C143.877 153.494 143.951 153.788 143.951 154.096C143.951 154.516 143.835 154.885 143.601 155.202C143.377 155.51 143.065 155.748 142.663 155.916C142.271 156.084 141.823 156.168 141.319 156.168ZM145.645 156L145.673 149H146.989L146.975 156H145.645ZM146.317 147.516C146.102 147.516 145.916 147.437 145.757 147.278C145.598 147.11 145.519 146.919 145.519 146.704C145.519 146.48 145.598 146.293 145.757 146.144C145.916 145.985 146.102 145.906 146.317 145.906C146.541 145.906 146.728 145.985 146.877 146.144C147.036 146.293 147.115 146.48 147.115 146.704C147.115 146.919 147.036 147.11 146.877 147.278C146.728 147.437 146.541 147.516 146.317 147.516ZM151.656 156.168C151.161 156.168 150.718 156.093 150.326 155.944C149.943 155.795 149.617 155.594 149.346 155.342C149.085 155.09 148.889 154.805 148.758 154.488L149.906 153.984C150.055 154.273 150.279 154.511 150.578 154.698C150.877 154.885 151.208 154.978 151.572 154.978C151.973 154.978 152.305 154.903 152.566 154.754C152.827 154.605 152.958 154.395 152.958 154.124C152.958 153.863 152.86 153.657 152.664 153.508C152.468 153.359 152.183 153.237 151.81 153.144L151.152 152.976C150.499 152.799 149.99 152.533 149.626 152.178C149.271 151.823 149.094 151.422 149.094 150.974C149.094 150.293 149.313 149.765 149.752 149.392C150.191 149.019 150.839 148.832 151.698 148.832C152.118 148.832 152.501 148.893 152.846 149.014C153.201 149.135 153.499 149.308 153.742 149.532C153.994 149.756 154.171 150.022 154.274 150.33L153.154 150.834C153.042 150.554 152.851 150.349 152.58 150.218C152.309 150.078 151.992 150.008 151.628 150.008C151.255 150.008 150.961 150.092 150.746 150.26C150.531 150.419 150.424 150.643 150.424 150.932C150.424 151.091 150.513 151.245 150.69 151.394C150.877 151.534 151.147 151.651 151.502 151.744L152.258 151.926C152.715 152.038 153.093 152.211 153.392 152.444C153.691 152.668 153.915 152.925 154.064 153.214C154.213 153.494 154.288 153.788 154.288 154.096C154.288 154.516 154.171 154.885 153.938 155.202C153.714 155.51 153.401 155.748 153 155.916C152.608 156.084 152.16 156.168 151.656 156.168ZM158.599 156.168C157.899 156.168 157.358 155.991 156.975 155.636C156.593 155.272 156.401 154.754 156.401 154.082V146.816H157.731V153.886C157.731 154.231 157.815 154.497 157.983 154.684C158.161 154.861 158.413 154.95 158.739 154.95C158.833 154.95 158.935 154.931 159.047 154.894C159.159 154.857 159.295 154.782 159.453 154.67L159.957 155.706C159.715 155.865 159.481 155.981 159.257 156.056C159.043 156.131 158.823 156.168 158.599 156.168ZM155.211 150.148V149H159.719V150.148H155.211ZM165.726 156L165.656 154.782V152.346C165.656 151.833 165.595 151.408 165.474 151.072C165.362 150.727 165.184 150.465 164.942 150.288C164.708 150.111 164.396 150.022 164.004 150.022C163.64 150.022 163.318 150.097 163.038 150.246C162.767 150.395 162.543 150.629 162.366 150.946L161.162 150.498C161.33 150.181 161.544 149.896 161.806 149.644C162.067 149.392 162.38 149.196 162.744 149.056C163.117 148.907 163.546 148.832 164.032 148.832C164.685 148.832 165.231 148.958 165.67 149.21C166.118 149.462 166.449 149.84 166.664 150.344C166.888 150.839 166.995 151.455 166.986 152.192L166.972 156H165.726ZM163.682 156.168C162.851 156.168 162.202 155.981 161.736 155.608C161.278 155.225 161.05 154.698 161.05 154.026C161.05 153.307 161.288 152.761 161.764 152.388C162.249 152.005 162.921 151.814 163.78 151.814H165.726V152.864H164.144C163.5 152.864 163.047 152.967 162.786 153.172C162.524 153.368 162.394 153.643 162.394 153.998C162.394 154.325 162.515 154.581 162.758 154.768C163.01 154.945 163.355 155.034 163.794 155.034C164.176 155.034 164.503 154.945 164.774 154.768C165.054 154.591 165.268 154.357 165.418 154.068C165.576 153.769 165.656 153.438 165.656 153.074H166.286C166.286 154.026 166.066 154.782 165.628 155.342C165.189 155.893 164.54 156.168 163.682 156.168ZM168.886 156V149H170.132L170.216 150.288V156H168.886ZM173.73 156V152.416L175.06 151.996V156H173.73ZM173.73 152.416C173.73 151.781 173.656 151.301 173.506 150.974C173.366 150.638 173.166 150.405 172.904 150.274C172.652 150.143 172.358 150.073 172.022 150.064C171.453 150.064 171.01 150.265 170.692 150.666C170.375 151.067 170.216 151.632 170.216 152.36H169.642C169.642 151.623 169.75 150.993 169.964 150.47C170.179 149.938 170.487 149.532 170.888 149.252C171.299 148.972 171.789 148.832 172.358 148.832C173.198 148.832 173.856 149.093 174.332 149.616C174.818 150.129 175.06 150.923 175.06 151.996L173.73 152.416ZM179.662 156.168C178.962 156.168 178.42 155.991 178.038 155.636C177.655 155.272 177.464 154.754 177.464 154.082V146.816H178.794V153.886C178.794 154.231 178.878 154.497 179.046 154.684C179.223 154.861 179.475 154.95 179.802 154.95C179.895 154.95 179.998 154.931 180.11 154.894C180.222 154.857 180.357 154.782 180.516 154.67L181.02 155.706C180.777 155.865 180.544 155.981 180.32 156.056C180.105 156.131 179.886 156.168 179.662 156.168ZM176.274 150.148V149H180.782V150.148H176.274Z" fill="white"/>
<defs>
<clipPath id="clip0_1582_2879">
<rect width="195" height="127" fill="white"/>
</clipPath>
</defs>
</svg>
