<svg width="195" height="127" viewBox="0 0 195 127" fill="none" xmlns="http://www.w3.org/2000/svg">
<g clip-path="url(#clip0_1166_2627)">
<path d="M162.809 38.5856C162.191 36.0641 159.672 34.5142 157.177 35.1388L127.459 42.5414C125.65 42.9809 123.818 41.8705 123.383 40.043C122.948 38.2386 124.047 36.4111 125.833 35.9485L141.402 31.9465C143.783 31.345 145.225 28.916 144.676 26.5102C144.104 24.035 141.631 22.4851 139.181 23.1097L114.294 29.3787C112.622 29.7951 110.951 28.7541 110.562 27.0885C110.173 25.4461 111.18 23.7805 112.783 23.3641L163.954 10.0858C166.701 9.36869 168.327 6.52333 167.571 3.77051C166.839 1.08708 164.114 -0.485956 161.458 0.1849L109.554 13.4632L99.7094 7.21732C98.7936 6.639 97.7404 6.33827 96.6872 6.33827C95.634 6.33827 94.5808 6.61586 93.665 7.21732L83.82 13.4632L31.9162 0.161767C29.2603 -0.509089 26.5358 1.06395 25.8031 3.74738C25.0476 6.5002 26.6731 9.36869 29.4206 10.0627L80.5918 23.341C82.2173 23.7574 83.2018 25.423 82.8126 27.0654C82.4234 28.7541 80.7291 29.7951 79.0807 29.3556L54.1934 23.0865C51.7436 22.4619 49.2709 24.0119 48.6985 26.4871C48.149 28.8929 49.6143 31.3219 51.9725 31.9233L67.5414 35.9253C69.3272 36.388 70.4262 38.2155 69.9912 40.0199C69.5562 41.8474 67.7245 42.9809 65.9158 42.5182L36.1976 35.1157C33.702 34.4911 31.1835 36.041 30.5653 38.5625C29.9472 41.0609 31.4583 43.6055 33.931 44.2532L61.726 51.4476V74.0947C61.726 76.8707 63.9468 79.1146 66.6943 79.1146H66.8087H83.4079C85.3082 79.1146 86.8651 77.5647 86.8651 75.6215V56.1898C86.8651 54.5011 88.2159 53.1131 89.9102 53.1131H96.6872H103.464C105.136 53.1131 106.509 54.478 106.509 56.1898V75.6215C106.509 77.5415 108.043 79.1146 109.967 79.1146H126.566C129.313 79.1146 131.534 76.8707 131.534 74.0947V51.4707L159.443 44.2532C161.916 43.6286 163.427 41.084 162.809 38.5856Z" fill="white"/>
<path d="M26.1236 25.5387L38.1666 28.546C40.8225 29.2169 43.5012 27.5744 44.1652 24.891C44.8292 22.2076 43.2036 19.501 40.5477 18.8302L28.5048 15.8229C25.8489 15.152 23.1701 16.7945 22.5062 19.4779C21.8422 22.1613 23.4678 24.8679 26.1236 25.5387Z" fill="white"/>
<path d="M23.6669 40.5672C26.1553 39.5257 27.337 36.6433 26.3062 34.1291C25.2755 31.6149 22.4227 30.421 19.9343 31.4625C17.4459 32.5039 16.2643 35.3863 17.295 37.9005C18.3258 40.4147 21.1786 41.6086 23.6669 40.5672Z" fill="white"/>
<path d="M172.585 19.4547C171.875 16.7944 169.151 15.2214 166.495 15.9385L154.521 19.2234C151.888 19.9405 150.331 22.6933 151.041 25.3767C151.75 28.037 154.475 29.6101 157.131 28.8929L169.105 25.6081C171.738 24.8678 173.295 22.115 172.585 19.4547Z" fill="white"/>
<path d="M175.063 40.595C177.69 39.9936 179.337 37.3546 178.741 34.7005C178.146 32.0464 175.534 30.3824 172.907 30.9838C170.281 31.5852 168.634 34.2243 169.229 36.8784C169.824 39.5324 172.436 41.1965 175.063 40.595Z" fill="white"/>
<path d="M102.251 68.913C103.844 68.913 105.136 67.608 105.136 65.9982C105.136 64.3885 103.844 63.0835 102.251 63.0835C100.658 63.0835 99.366 64.3885 99.366 65.9982C99.366 67.608 100.658 68.913 102.251 68.913Z" fill="white"/>
<path d="M0 98.6392H6.75414V111.27L16.2328 98.6392H24.0173L14.1722 111.663L26.3068 127H17.6752L6.75414 113.629V127H0V98.6392Z" fill="white"/>
<path d="M43.7989 98.6392H35.9916L24.315 125.08L24.0173 126.977H31.2065L33.3587 121.402H45.5848L47.4622 126.977H54.72L43.7989 98.6392ZM35.3963 116.637L39.8151 105.81L43.7989 116.637H35.3963Z" fill="white"/>
<path d="M127.733 98.6392H119.926L108.249 125.08L107.952 126.977H115.164L117.316 121.402H129.542L131.419 127H138.654L127.733 98.6392ZM119.331 116.637L123.749 105.81L127.733 116.637H119.331Z" fill="white"/>
<path d="M76.9055 117.863C75.28 113.999 73.2194 113.467 73.2194 113.467C76.0355 113.467 78.3021 111.177 78.3021 108.332V106.342C78.3021 102.086 74.8907 98.6392 70.678 98.6392H57.0781V127H63.8323V115.434C68.0908 114.763 69.2585 117.469 69.2585 117.469L73.1965 127H81.0038C81.0267 127 78.5311 121.726 76.9055 117.863ZM67.9534 110.391H63.8323V103.659H67.9534C69.7851 103.659 71.2962 105.163 71.2962 107.036C71.2962 108.887 69.7851 110.391 67.9534 110.391Z" fill="white"/>
<path d="M82.1257 98.6392H107.769L92.7262 121.402H107.769V127H80.752L96.275 103.659H82.1257V98.6392Z" fill="white"/>
<path d="M111.958 127H107.379L109.303 122.744L111.958 127Z" fill="white"/>
<path d="M140.761 98.6392V127H147.492V109.257L155.666 119.667L164.091 109.257V127H170.754V98.6392H164.091L155.666 109.257L147.492 98.6392H140.761Z" fill="white"/>
<path d="M183.323 98.6392H176.592V127H183.323V98.6392Z" fill="white"/>
<path d="M194.954 98.6392H180.805V103.636H194.954V98.6392Z" fill="white"/>
<path d="M195.023 121.98H180.874V126.977H195.023V121.98Z" fill="white"/>
<path d="M194.359 109.604H180.209V114.601H194.359V109.604Z" fill="white"/>
</g>
<defs>
<clipPath id="clip0_1166_2627">
<rect width="195" height="127" fill="white"/>
</clipPath>
</defs>
</svg>
