<svg width="157" height="115" viewBox="0 0 157 115" fill="none" xmlns="http://www.w3.org/2000/svg">
<path d="M0.0229101 34.0336C0.182198 36.3072 0.852022 38.5157 1.98257 40.4948C4.36523 44.6793 8.45121 47.7089 12.8519 49.5097C18.3499 51.7595 24.4787 51.8288 30.3136 51.3272C35.733 50.8612 41.0972 49.7812 46.5366 49.5586C50.7431 49.424 54.9539 49.5244 59.1492 49.8594C67.2886 50.4371 75.3942 51.509 83.4476 52.8085C85.6287 53.1561 87.8051 53.5296 89.977 53.929C90.1823 53.9471 90.3854 53.9848 90.5834 54.0416C90.6229 54.0578 90.6863 54.0452 90.7224 54.0679C90.788 54.1092 90.4572 53.9632 90.6577 54.1289C90.9371 54.422 91.1862 54.7426 91.4013 55.0858L94.3756 58.9135C95.2285 60.0111 96.0201 61.3447 97.1225 62.2099C97.8998 62.8104 98.8375 63.1673 99.8173 63.2356C100.797 63.3039 101.775 63.0805 102.628 62.5937C103.52 62.0305 104.23 61.2233 104.676 60.2679C105.36 59.0131 106.176 57.835 107.111 56.7536C110.649 52.6255 115.567 50.0865 119.68 46.6132C121.673 44.9996 123.373 43.0559 124.708 40.8666C125.846 38.8855 126.554 36.6867 126.785 34.4136C127.277 29.7973 125.861 25.0897 123.478 21.1626C120.887 16.9436 117.164 13.536 112.733 11.327C107.754 8.7908 102.246 7.55542 96.724 6.9398C90.8614 6.28619 84.9306 6.28823 79.0394 6.35421C72.4279 6.42781 65.8284 6.71856 59.2407 7.22645C52.6442 7.73704 46.0736 8.46279 39.5291 9.40372C33.2493 10.3066 26.8927 11.2476 20.7457 12.8452C15.3154 14.2565 9.90033 16.4625 5.84527 20.4594C2.23978 24.0132 -0.267905 28.8764 0.0229101 34.0336Z" fill="#219653"/>
<path d="M30.3772 35.5022C30.1087 35.4901 29.8457 35.4226 29.6046 35.3039C29.3635 35.1851 29.1496 35.0178 28.9764 34.8123C28.8031 34.6069 28.6743 34.3678 28.598 34.1101C28.5217 33.8525 28.4995 33.5818 28.5329 33.3151L28.6725 32.2167C28.6991 32.006 28.6742 31.792 28.5998 31.593C28.5255 31.3941 28.4039 31.2162 28.2456 31.0746L27.4205 30.3373C27.1503 30.096 26.9531 29.7838 26.851 29.4362C26.749 29.0886 26.7463 28.7193 26.8432 28.3702C26.9401 28.0211 27.1327 27.7061 27.3993 27.4608C27.666 27.2155 27.9959 27.0497 28.3519 26.9821L29.4396 26.7755C29.6481 26.736 29.8439 26.6463 30.0101 26.5143C30.1762 26.3822 30.3078 26.2118 30.3935 26.0176L30.8399 25.0037C30.9861 24.6722 31.2221 24.3883 31.5212 24.1839C31.8203 23.9796 32.1706 23.863 32.5326 23.8473C32.8945 23.8316 33.2536 23.9174 33.5692 24.0951C33.8849 24.2728 34.1446 24.5353 34.3189 24.8528L34.8511 25.8234C34.9532 26.0098 35.0991 26.1685 35.2762 26.2859C35.4534 26.4033 35.6564 26.4758 35.8678 26.4972L36.969 26.6084C37.3294 26.6449 37.6725 26.7815 37.9594 27.0028C38.2463 27.2241 38.4655 27.5212 38.5923 27.8606C38.7191 28.2 38.7484 28.5681 38.6769 28.9232C38.6053 29.2784 38.4359 29.6065 38.1876 29.8704L37.4292 30.6767C37.2836 30.8312 37.1779 31.0188 37.1211 31.2233C37.0643 31.4279 37.0581 31.6432 37.1032 31.8506L37.3371 32.9333C37.4137 33.2873 37.3897 33.6557 37.2679 33.9968C37.1461 34.3379 36.9313 34.6381 36.6477 34.8635C36.3642 35.0889 36.0233 35.2305 35.6635 35.2723C35.3037 35.3141 34.9394 35.2543 34.6118 35.0999L33.6104 34.628C33.4184 34.5371 33.2072 34.4943 32.9949 34.5035C32.7827 34.5126 32.5759 34.5733 32.3924 34.6804L31.4356 35.2376C31.1153 35.425 30.748 35.5168 30.3772 35.5022Z" fill="white"/>
<path d="M45.9689 35.0492C45.4749 35.0264 45.0078 34.8179 44.661 34.4653C44.4515 34.2434 44.2952 33.9768 44.204 33.6855C44.1128 33.3943 44.089 33.0861 44.1345 32.7843L44.2626 31.7765C44.2898 31.5619 44.2645 31.3438 44.1888 31.1412C44.113 30.9385 43.9892 30.7573 43.8279 30.6132L43.0625 29.9293C42.8368 29.7366 42.6568 29.496 42.5358 29.225C42.4148 28.954 42.3557 28.6594 42.3629 28.3627C42.3796 27.9232 42.5451 27.5024 42.8323 27.1693C43.1195 26.8361 43.5113 26.6104 43.9435 26.5291L45.0186 26.3249C45.2312 26.2845 45.4308 26.1931 45.6002 26.0584C45.7695 25.9237 45.9036 25.7498 45.9908 25.5518L46.3914 24.6419C46.5347 24.2966 46.7704 23.9975 47.0727 23.7775C47.375 23.5576 47.7322 23.4253 48.1048 23.3952C48.47 23.3745 48.8336 23.4579 49.1533 23.6358C49.473 23.8136 49.7356 24.0786 49.9106 24.3998L50.4366 25.3592C50.5407 25.5491 50.6895 25.7108 50.8701 25.8303C51.0506 25.9499 51.2576 26.0238 51.473 26.0456L52.4936 26.1487C52.7897 26.1718 53.0768 26.2607 53.3341 26.409C53.5914 26.5572 53.8124 26.761 53.9809 27.0055C54.2254 27.371 54.3386 27.8086 54.3019 28.2467C54.2653 28.6849 54.0811 29.0976 53.7793 29.4174L53.0297 30.2143C52.8816 30.3718 52.774 30.5629 52.7161 30.7712C52.6583 30.9795 52.6519 31.1987 52.6975 31.41L52.9136 32.4097C52.9828 32.6982 52.9872 32.9985 52.9262 33.289C52.8653 33.5794 52.7407 33.8526 52.5614 34.089C52.2904 34.4363 51.9091 34.6809 51.4805 34.7823C51.0518 34.8837 50.6013 34.836 50.2035 34.6469L49.2124 34.1799C49.0169 34.0878 48.802 34.0446 48.5861 34.054C48.3701 34.0634 48.1598 34.1251 47.973 34.2338L47.0273 34.7846C46.707 34.972 46.3397 35.0639 45.9689 35.0492Z" fill="white"/>
<path d="M61.6008 34.9829C61.3323 34.9708 61.0693 34.9033 60.8282 34.7846C60.5871 34.6658 60.3732 34.4985 60.2 34.293C60.0268 34.0876 59.8979 33.8485 59.8216 33.5909C59.7453 33.3332 59.7232 33.0625 59.7566 32.7959L59.8961 31.6974C59.9228 31.4867 59.8978 31.2727 59.8235 31.0737C59.7491 30.8748 59.6276 30.6969 59.4693 30.5553L58.6442 29.8181C58.374 29.5767 58.1767 29.2646 58.0747 28.9169C57.9726 28.5693 57.9699 28.2 58.0668 27.8509C58.1637 27.5018 58.3564 27.1868 58.623 26.9415C58.8896 26.6962 59.2195 26.5304 59.5755 26.4628L60.6632 26.2562C60.8717 26.2167 61.0675 26.127 61.2337 25.995C61.3999 25.8629 61.5315 25.6925 61.6171 25.4983L62.0636 24.4844C62.2098 24.1529 62.4457 23.869 62.7449 23.6646C63.044 23.4603 63.3943 23.3437 63.7562 23.328C64.1181 23.3123 64.4772 23.3982 64.7929 23.5758C65.1085 23.7535 65.3682 24.016 65.5425 24.3336L66.0748 25.3041C66.1768 25.4905 66.3227 25.6492 66.4999 25.7666C66.677 25.884 66.88 25.9565 67.0914 25.9779L68.1926 26.0891C68.5531 26.1256 68.8961 26.2622 69.183 26.4835C69.4699 26.7048 69.6891 27.0019 69.8159 27.3413C69.9427 27.6807 69.972 28.0488 69.9005 28.4039C69.829 28.7591 69.6595 29.0872 69.4113 29.3511L68.6529 30.1574C68.5073 30.3119 68.4015 30.4995 68.3447 30.704C68.2879 30.9086 68.2817 31.1239 68.3268 31.3313L68.5608 32.414C68.6374 32.768 68.6134 33.1364 68.4915 33.4775C68.3697 33.8186 68.1549 34.1188 67.8714 34.3442C67.5878 34.5696 67.2469 34.7112 66.8871 34.753C66.5273 34.7948 66.1631 34.735 65.8354 34.5806L64.834 34.1088C64.642 34.0178 64.4308 33.975 64.2185 33.9842C64.0063 33.9933 63.7995 34.054 63.616 34.1611L62.6592 34.7183C62.3389 34.9057 61.9716 34.9976 61.6008 34.9829Z" fill="white"/>
<path opacity="0.2" d="M76.8054 34.5706C76.5369 34.5585 76.2739 34.4909 76.0328 34.3722C75.7917 34.2535 75.5778 34.0861 75.4046 33.8807C75.2313 33.6753 75.1025 33.4362 75.0262 33.1785C74.9499 32.9208 74.9278 32.6502 74.9612 32.3835L75.1007 31.2851C75.1274 31.0744 75.1024 30.8603 75.0281 30.6614C74.9537 30.4625 74.8322 30.2846 74.6739 30.143L73.8488 29.4057C73.5786 29.1643 73.3813 28.8522 73.2793 28.5046C73.1772 28.1569 73.1745 27.7877 73.2714 27.4386C73.3683 27.0895 73.561 26.7745 73.8276 26.5292C74.0942 26.2838 74.4241 26.118 74.7801 26.0505L75.8678 25.8439C76.0763 25.8043 76.2721 25.7147 76.4383 25.5826C76.6045 25.4506 76.736 25.2801 76.8217 25.0859L77.2682 24.072C77.4143 23.7406 77.6503 23.4566 77.9494 23.2523C78.2485 23.0479 78.5989 22.9313 78.9608 22.9156C79.3227 22.9 79.6818 22.9858 79.9974 23.1635C80.3131 23.3412 80.5728 23.6037 80.7471 23.9212L81.2793 24.8918C81.3814 25.0781 81.5273 25.2369 81.7044 25.3542C81.8816 25.4716 82.0846 25.5441 82.296 25.5655L83.3972 25.6768C83.7577 25.7133 84.1007 25.8499 84.3876 26.0711C84.6745 26.2924 84.8937 26.5896 85.0205 26.929C85.1473 27.2683 85.1766 27.6364 85.1051 27.9916C85.0336 28.3468 84.8641 28.6749 84.6158 28.9387L83.8574 29.745C83.7119 29.8995 83.6061 30.0871 83.5493 30.2917C83.4924 30.4962 83.4863 30.7115 83.5314 30.919L83.7654 32.0017C83.8419 32.3557 83.818 32.7241 83.6961 33.0652C83.5743 33.4063 83.3595 33.7065 83.076 33.9319C82.7924 34.1573 82.4515 34.2989 82.0917 34.3406C81.7319 34.3824 81.3676 34.3227 81.04 34.1683L80.0386 33.6964C79.8466 33.6055 79.6354 33.5627 79.4231 33.5718C79.2109 33.5809 79.0041 33.6417 78.8206 33.7487L77.8638 34.3059C77.5435 34.4934 77.1762 34.5852 76.8054 34.5706Z" fill="black"/>
<path opacity="0.2" d="M92.0095 34.1582C91.741 34.1461 91.478 34.0786 91.2369 33.9599C90.9958 33.8411 90.7819 33.6738 90.6087 33.4683C90.4355 33.2629 90.3066 33.0238 90.2303 32.7661C90.154 32.5085 90.1319 32.2378 90.1653 31.9712L90.3048 30.8727C90.3314 30.662 90.3065 30.448 90.2322 30.249C90.1578 30.0501 90.0363 29.8722 89.878 29.7306L89.0529 28.9933C88.7827 28.752 88.5854 28.4398 88.4834 28.0922C88.3813 27.7446 88.3786 27.3753 88.4755 27.0262C88.5724 26.6771 88.7651 26.3621 89.0317 26.1168C89.2983 25.8715 89.6282 25.7057 89.9842 25.6381L91.0719 25.4315C91.2804 25.392 91.4762 25.3023 91.6424 25.1703C91.8086 25.0382 91.9401 24.8678 92.0258 24.6736L92.4723 23.6597C92.6185 23.3282 92.8544 23.0443 93.1535 22.8399C93.4526 22.6356 93.8029 22.519 94.1649 22.5033C94.5268 22.4876 94.8859 22.5735 95.2015 22.7512C95.5172 22.9289 95.7769 23.1913 95.9512 23.5088L96.4834 24.4795C96.5855 24.6658 96.7314 24.8245 96.9086 24.9419C97.0857 25.0593 97.2887 25.1318 97.5001 25.1532L98.6013 25.2645C98.9617 25.3009 99.3048 25.4375 99.5917 25.6588C99.8786 25.8801 100.098 26.1772 100.225 26.5166C100.351 26.856 100.381 27.2241 100.309 27.5793C100.238 27.9344 100.068 28.2625 99.8199 28.5264L99.0615 29.3327C98.9159 29.4872 98.8102 29.6748 98.7534 29.8793C98.6966 30.0839 98.6904 30.2992 98.7355 30.5066L98.9695 31.5893C99.046 31.9433 99.022 32.3117 98.9002 32.6528C98.7784 32.9939 98.5636 33.2941 98.28 33.5195C97.9965 33.7449 97.6556 33.8865 97.2958 33.9283C96.936 33.9701 96.5717 33.9104 96.2441 33.7559L95.2427 33.2841C95.0507 33.1931 94.8395 33.1503 94.6272 33.1595C94.415 33.1686 94.2082 33.2293 94.0247 33.3364L93.0679 33.8936C92.7476 34.081 92.3803 34.1728 92.0095 34.1582Z" fill="black"/>
<path d="M138.614 111.262L135.225 111.261L133.613 98.1914L138.614 98.1917L138.614 111.262Z" fill="#F8A97D"/>
<path d="M138.523 110.154L134.908 108.686L134.801 108.642L132.805 110.154C131.709 110.154 130.656 110.577 129.864 111.335C129.073 112.092 128.605 113.126 128.557 114.221C128.552 114.281 128.552 114.344 128.552 114.407V114.547H139.478V110.154H138.523Z" fill="#2F2E41"/>
<path d="M130.678 108.108L127.481 109.233L121.623 97.4384L126.34 95.7788L130.678 108.108Z" fill="#F8A97D"/>
<path d="M130.225 107.093L126.327 106.908L126.212 106.902L124.831 108.992C123.797 109.355 122.944 110.104 122.449 111.081C121.954 112.058 121.855 113.189 122.174 114.238C122.189 114.296 122.21 114.355 122.23 114.415L122.277 114.546L132.583 110.92L131.126 106.777L130.225 107.093Z" fill="#2F2E41"/>
<path d="M139.811 54.9061C142.911 54.7859 139.071 79.4902 139.071 79.4902C139.071 79.4902 140.195 101.18 139.956 102.318C139.718 103.456 139.926 106.526 139.926 106.526C139.319 105.42 133.053 106.255 133.053 106.255L132.201 84.2726L127.848 66.6599L121.815 78.466L127.598 96.5877C127.598 96.5877 129.94 98.7548 129.691 99.6112C129.442 100.468 123.307 102.399 122.18 102.443C121.053 102.486 121.562 101.055 121.507 99.6463C121.452 98.2372 116.148 85.1773 114.282 80.7337C112.416 76.2902 113.867 70.0245 114.819 65.4716C115.771 60.9188 120.782 52.3745 120.782 52.3745C127.002 45.3594 136.711 55.0263 139.811 54.9061Z" fill="#2F2E41"/>
<path d="M102.032 34.9418C102.201 35.2662 102.44 35.5495 102.731 35.7716C103.022 35.9938 103.359 36.1494 103.717 36.2275C104.074 36.3056 104.445 36.3043 104.802 36.2237C105.159 36.1431 105.494 35.9852 105.784 35.761L113.239 40.6248L113.216 35.9993L106.14 32.0897C105.732 31.6282 105.168 31.3327 104.556 31.2592C103.943 31.1857 103.326 31.3392 102.819 31.6908C102.313 32.0423 101.953 32.5675 101.808 33.1666C101.662 33.7658 101.742 34.3974 102.032 34.9418Z" fill="#F8A97D"/>
<path d="M138.2 58.8665C130.512 58.8667 126.276 57.3278 124.026 55.9537C121.275 54.2735 120.804 52.5016 120.786 52.4269L120.78 52.4055L121.048 49.036L121.165 48.7737C121.705 47.5659 121.776 46.2006 121.366 44.943L121.358 44.9171L121.36 44.8901L123.157 21.5764L129.519 19.4926L131.369 17.6332L139.609 17.5137L140.757 19.8412L147.253 22.2866L144.061 41.2823L142.532 43.9192L143.147 46.7917L143.143 46.8176L141.136 58.7965L141.025 58.8013C140.036 58.8456 139.094 58.8674 138.2 58.8665Z" fill="#333333"/>
<path d="M118.312 44.3217L115.296 42.5336L115.107 42.2606C114.723 41.7082 114.215 41.2534 113.623 40.9329C113.032 40.6124 112.373 40.435 111.701 40.4151L111.666 40.414L107.512 37.9718L109.234 32.9277L115.745 34.8515L120.285 23.5714C120.535 22.9519 120.951 22.4137 121.488 22.0167C122.025 21.6196 122.661 21.3793 123.327 21.3224C123.992 21.2656 124.66 21.3944 125.257 21.6946C125.853 21.9947 126.355 22.4545 126.706 23.0227C127.065 23.6166 127.251 24.2991 127.244 24.9933V32.374L127.216 32.4106L118.312 44.3217Z" fill="#333333"/>
<path d="M138.475 54.5285C138.54 54.168 138.683 53.8261 138.894 53.5268C139.104 53.2274 139.378 52.978 139.696 52.796C140.014 52.614 140.368 52.504 140.733 52.4735C141.098 52.443 141.465 52.493 141.808 52.6198L147.458 45.741L148.826 50.1596L143.251 56.0144C143 56.5774 142.551 57.0287 141.989 57.2827C141.427 57.5367 140.792 57.5759 140.203 57.3927C139.615 57.2096 139.114 56.8168 138.795 56.2889C138.477 55.7611 138.363 55.1347 138.475 54.5285Z" fill="#F8A97D"/>
<path d="M146.922 53.6589L143.171 49.9072L145.559 44.0888L149.019 39.3633C145.332 37.568 142.564 33.315 140.558 29.7943L140.535 29.7548L141.035 25.8428C141.151 24.9279 141.518 24.0627 142.094 23.3423C142.595 22.7158 143.239 22.2183 143.971 21.8915C144.704 21.5647 145.504 21.418 146.305 21.4637C147.105 21.5095 147.884 21.7464 148.574 22.1545C149.265 22.5626 149.847 23.1302 150.274 23.8097L156.999 38.761L156.924 38.874L151.514 48.0958L150.038 49.0533L146.922 53.6589Z" fill="#333333"/>
<path d="M141.405 9.6717C141.158 11.4745 140.205 13.1053 138.756 14.2059C137.307 15.3066 135.48 15.787 133.677 15.5416C131.874 15.2962 130.242 14.3451 129.14 12.8972C128.038 11.4494 127.556 9.62317 127.799 7.81986L127.812 7.7224C128.097 5.9432 129.069 4.34711 130.52 3.27846C131.971 2.2098 133.783 1.75421 135.567 2.00998C137.35 2.26575 138.962 3.21237 140.054 4.64565C141.146 6.07892 141.63 7.88396 141.403 9.67141L141.405 9.6717Z" fill="#F8A97D"/>
<path d="M139.658 13.2081C140.011 12.4919 140.373 11.7229 140.274 10.9308C140.175 10.1386 139.398 9.38147 138.635 9.61689C138.179 9.75767 137.834 10.2081 137.357 10.2312C136.701 10.2629 136.325 9.51201 136.121 8.88773L135.289 6.3452C134.491 6.96762 133.564 7.40607 132.577 7.62925C131.589 7.85243 130.564 7.85483 129.576 7.6363C128.804 7.45975 128.023 7.11552 127.57 6.46569C127.117 5.81586 127.12 4.80787 127.741 4.31648C128.046 4.07553 128.452 3.984 128.743 3.72689C128.923 3.5674 129.048 3.35401 129.098 3.11829C129.148 2.88257 129.12 2.63705 129.02 2.41807C128.919 2.19908 128.751 2.01826 128.54 1.90237C128.328 1.78647 128.086 1.74166 127.847 1.77457L129.941 1.51284L129.317 0.384374C129.554 0.545787 129.822 0.655902 130.105 0.707668C130.387 0.759435 130.677 0.751715 130.956 0.685C131.519 0.583554 132.05 0.351575 132.601 0.196875C133.937 -0.144283 135.348 -0.0400219 136.619 0.493819C137.89 1.02766 138.953 1.9619 139.645 3.15459C140.16 2.98252 140.715 2.97108 141.237 3.1218C141.759 3.27251 142.223 3.57827 142.567 3.99855C143.128 4.71005 143.28 5.65954 143.302 6.5651C143.343 8.35061 142.954 10.1197 142.167 11.7232C141.941 12.2325 141.617 12.6922 141.213 13.0758C141.01 13.266 140.768 13.4094 140.503 13.496C140.238 13.5825 139.958 13.6101 139.682 13.5768" fill="#2F2E41"/>
</svg>
