<svg width="32" height="32" viewBox="0 0 32 32" fill="none" xmlns="http://www.w3.org/2000/svg">
<mask id="mask0_1166_3534" style="mask-type:alpha" maskUnits="userSpaceOnUse" x="0" y="0" width="32" height="32">
<rect width="32" height="32" fill="#D9D9D9"/>
</mask>
<g mask="url(#mask0_1166_3534)">
<path d="M14.6666 30.6002V27.9335C11.8888 27.6224 9.50568 26.4726 7.51724 24.4842C5.5279 22.4948 4.37768 20.1113 4.06657 17.3335H1.3999V14.6668H4.06657C4.37768 11.889 5.5279 9.50548 7.51724 7.51615C9.50568 5.5277 11.8888 4.37792 14.6666 4.06681V1.40015H17.3332V4.06681C20.111 4.37792 22.4946 5.5277 24.4839 7.51615C26.4724 9.50548 27.6221 11.889 27.9332 14.6668H30.5999V17.3335H27.9332C27.6221 20.1113 26.4724 22.4948 24.4839 24.4842C22.4946 26.4726 20.111 27.6224 17.3332 27.9335V30.6002H14.6666ZM15.9999 25.3335C18.5777 25.3335 20.7777 24.4224 22.5999 22.6001C24.4221 20.7779 25.3332 18.5779 25.3332 16.0001C25.3332 13.4224 24.4221 11.2224 22.5999 9.40015C20.7777 7.57793 18.5777 6.66681 15.9999 6.66681C13.4221 6.66681 11.2221 7.57793 9.3999 9.40015C7.57768 11.2224 6.66657 13.4224 6.66657 16.0001C6.66657 18.5779 7.57768 20.7779 9.3999 22.6001C11.2221 24.4224 13.4221 25.3335 15.9999 25.3335ZM15.9999 21.3335C14.5332 21.3335 13.2777 20.8113 12.2332 19.7668C11.1888 18.7224 10.6666 17.4668 10.6666 16.0001C10.6666 14.5335 11.1888 13.2779 12.2332 12.2335C13.2777 11.189 14.5332 10.6668 15.9999 10.6668C17.4666 10.6668 18.7221 11.189 19.7666 12.2335C20.811 13.2779 21.3332 14.5335 21.3332 16.0001C21.3332 17.4668 20.811 18.7224 19.7666 19.7668C18.7221 20.8113 17.4666 21.3335 15.9999 21.3335Z" fill="black"/>
</g>
</svg>
