<svg width="24" height="25" viewBox="0 0 24 25" fill="none" xmlns="http://www.w3.org/2000/svg">
<mask id="mask0_1166_3813" style="mask-type:alpha" maskUnits="userSpaceOnUse" x="0" y="0" width="24" height="25">
<rect y="0.19458" width="24" height="24" fill="#D9D9D9"/>
</mask>
<g mask="url(#mask0_1166_3813)">
<path d="M2 6.19458V1.19458H7V3.19458H4V6.19458H2ZM20 6.19458V3.19458H17V1.19458H22V6.19458H20ZM2 23.1946V18.1946H4V21.1946H7V23.1946H2ZM17 23.1946V21.1946H20V18.1946H22V23.1946H17ZM7 20.1946C6.45 20.1946 5.97933 19.9989 5.588 19.6076C5.196 19.2156 5 18.7446 5 18.1946V6.19458C5 5.64458 5.196 5.17391 5.588 4.78258C5.97933 4.39058 6.45 4.19458 7 4.19458H17C17.55 4.19458 18.021 4.39058 18.413 4.78258C18.8043 5.17391 19 5.64458 19 6.19458V18.1946C19 18.7446 18.8043 19.2156 18.413 19.6076C18.021 19.9989 17.55 20.1946 17 20.1946H7ZM9 10.1946H15V8.19458H9V10.1946ZM9 13.1946H15V11.1946H9V13.1946ZM9 16.1946H15V14.1946H9V16.1946Z" fill="#828282"/>
</g>
</svg>
