<svg width="24" height="25" viewBox="0 0 24 25" fill="none" xmlns="http://www.w3.org/2000/svg">
<mask id="mask0_1166_3646" style="mask-type:alpha" maskUnits="userSpaceOnUse" x="0" y="0" width="24" height="25">
<rect y="0.875244" width="24" height="24" fill="#D9D9D9"/>
</mask>
<g mask="url(#mask0_1166_3646)">
<path d="M9 3.87524V1.87524H15V3.87524H9ZM11 14.8752H13V8.87524H11V14.8752ZM12 22.8752C10.7667 22.8752 9.604 22.6379 8.512 22.1632C7.42067 21.6879 6.46667 21.0419 5.65 20.2252C4.83333 19.4086 4.18733 18.4546 3.712 17.3632C3.23733 16.2712 3 15.1086 3 13.8752C3 12.6419 3.23733 11.4792 3.712 10.3872C4.18733 9.29591 4.83333 8.34191 5.65 7.52524C6.46667 6.70858 7.42067 6.06291 8.512 5.58824C9.604 5.11291 10.7667 4.87524 12 4.87524C13.0333 4.87524 14.025 5.04191 14.975 5.37524C15.925 5.70858 16.8167 6.19191 17.65 6.82524L19.05 5.42524L20.45 6.82524L19.05 8.22524C19.6833 9.05858 20.1667 9.95024 20.5 10.9002C20.8333 11.8502 21 12.8419 21 13.8752C21 15.1086 20.7627 16.2712 20.288 17.3632C19.8127 18.4546 19.1667 19.4086 18.35 20.2252C17.5333 21.0419 16.5793 21.6879 15.488 22.1632C14.396 22.6379 13.2333 22.8752 12 22.8752Z" fill="#BDBDBD"/>
</g>
</svg>
