<?xml version="1.0" standalone="no"?>
<!DOCTYPE svg PUBLIC "-//W3C//DTD SVG 20010904//EN"
 "http://www.w3.org/TR/2001/REC-SVG-20010904/DTD/svg10.dtd">
<svg version="1.0" xmlns="http://www.w3.org/2000/svg"
 width="32.000000pt" height="32.000000pt" viewBox="0 0 32.000000 32.000000"
 preserveAspectRatio="xMidYMid meet">

<g transform="translate(0.000000,32.000000) scale(0.100000,-0.100000)"
fill="#000000" stroke="none">
<path d="M29 304 c-11 -14 -10 -18 8 -32 20 -16 21 -19 8 -57 -9 -26 -11 -43
-4 -51 5 -6 15 -45 22 -85 l12 -74 83 -3 c50 -2 89 2 97 8 7 6 16 39 20 73 4
34 10 67 14 72 4 6 8 36 9 68 1 66 -19 97 -62 97 -22 0 -59 -33 -68 -62 -3 -7
-14 -5 -31 7 -15 10 -38 15 -51 13 -14 -3 -31 -1 -38 4 -9 7 -8 8 5 4 14 -4
18 -1 15 11 -4 23 -23 27 -39 7z m243 -11 c21 -18 24 -53 6 -71 -7 -7 -32 -12
-56 -12 l-45 0 6 37 c10 58 52 80 89 46z m-133 -40 c41 -24 34 -37 -22 -41
-51 -3 -71 15 -47 43 16 19 32 19 69 -2z m-69 -74 c0 -5 -4 -9 -10 -9 -5 0
-10 7 -10 16 0 8 5 12 10 9 6 -3 10 -10 10 -16z m40 6 c0 -8 -7 -15 -15 -15
-8 0 -15 7 -15 15 0 8 7 15 15 15 8 0 15 -7 15 -15z m50 0 c0 -8 -7 -15 -15
-15 -8 0 -15 7 -15 15 0 8 7 15 15 15 8 0 15 -7 15 -15z m50 0 c0 -8 -9 -15
-20 -15 -20 0 -26 11 -13 23 12 13 33 7 33 -8z m50 0 c0 -8 -9 -15 -20 -15
-11 0 -20 7 -20 15 0 8 9 15 20 15 11 0 20 -7 20 -15z m30 0 c0 -8 -4 -15 -10
-15 -5 0 -10 7 -10 15 0 8 5 15 10 15 6 0 10 -7 10 -15z m-196 -47 c3 -7 7
-39 10 -71 5 -44 3 -58 -6 -55 -12 4 -22 34 -31 101 -4 28 -2 37 9 37 8 0 16
-6 18 -12z m46 -42 c0 -30 3 -61 6 -70 4 -10 1 -16 -9 -16 -16 0 -27 40 -27
101 0 28 4 39 15 39 11 0 15 -13 15 -54z m44 -13 c-4 -38 -8 -70 -10 -72 -10
-12 -19 16 -22 74 -4 61 -3 65 17 65 21 0 21 -3 15 -67z m42 21 c-3 -26 -6
-57 -6 -70 0 -15 -6 -24 -15 -24 -17 0 -19 21 -9 94 5 31 11 46 22 46 12 0 13
-9 8 -46z m39 -16 c-7 -61 -18 -88 -31 -75 -4 3 -3 36 1 72 5 48 10 65 22 65
12 0 14 -10 8 -62z"/>
</g>
</svg>
