<svg width="115" height="96" viewBox="0 0 115 96" fill="none" xmlns="http://www.w3.org/2000/svg">
<path d="M6.56563 91.252C5.56963 91.252 4.69363 91.054 3.93763 90.658C3.19363 90.25 2.61163 89.68 2.19163 88.948C1.78363 88.216 1.57963 87.364 1.57963 86.392H3.66763C3.66763 86.98 3.78763 87.496 4.02763 87.94C4.27963 88.372 4.62763 88.714 5.07163 88.966C5.51563 89.206 6.02563 89.326 6.60163 89.326C7.18963 89.326 7.70563 89.206 8.14963 88.966C8.60563 88.714 8.95363 88.372 9.19363 87.94C9.43363 87.496 9.55363 86.98 9.55363 86.392H11.6416C11.6416 87.364 11.4316 88.216 11.0116 88.948C10.6036 89.68 10.0156 90.25 9.24763 90.658C8.49163 91.054 7.59763 91.252 6.56563 91.252ZM1.57963 86.392V78.4H3.66763V86.392H1.57963ZM9.55363 86.392V78.4H11.6416V86.392H9.55363ZM14.163 94.6V82H16.053L16.179 83.656V94.6H14.163ZM19.023 91.216C18.267 91.216 17.613 91.024 17.061 90.64C16.521 90.244 16.107 89.692 15.819 88.984C15.531 88.276 15.387 87.448 15.387 86.5C15.387 85.54 15.531 84.712 15.819 84.016C16.107 83.308 16.521 82.762 17.061 82.378C17.613 81.982 18.267 81.784 19.023 81.784C19.839 81.784 20.547 81.982 21.147 82.378C21.759 82.762 22.233 83.308 22.569 84.016C22.917 84.712 23.091 85.54 23.091 86.5C23.091 87.448 22.917 88.276 22.569 88.984C22.233 89.692 21.759 90.244 21.147 90.64C20.547 91.024 19.839 91.216 19.023 91.216ZM18.519 89.38C18.999 89.38 19.425 89.26 19.797 89.02C20.169 88.768 20.463 88.426 20.679 87.994C20.907 87.562 21.021 87.064 21.021 86.5C21.021 85.936 20.913 85.438 20.697 85.006C20.493 84.574 20.205 84.238 19.833 83.998C19.461 83.758 19.029 83.638 18.537 83.638C18.081 83.638 17.673 83.758 17.313 83.998C16.953 84.238 16.671 84.574 16.467 85.006C16.275 85.438 16.179 85.936 16.179 86.5C16.179 87.064 16.275 87.562 16.467 87.994C16.671 88.426 16.947 88.768 17.295 89.02C17.655 89.26 18.063 89.38 18.519 89.38ZM24.8133 91L24.8313 78.4H26.8473L26.8293 91H24.8133ZM33.3508 91.216C32.4388 91.216 31.6288 91.018 30.9208 90.622C30.2248 90.214 29.6788 89.656 29.2828 88.948C28.8868 88.24 28.6888 87.424 28.6888 86.5C28.6888 85.576 28.8808 84.76 29.2648 84.052C29.6608 83.344 30.2068 82.792 30.9028 82.396C31.6108 81.988 32.4148 81.784 33.3148 81.784C34.2268 81.784 35.0308 81.988 35.7268 82.396C36.4228 82.792 36.9688 83.344 37.3648 84.052C37.7608 84.76 37.9588 85.576 37.9588 86.5C37.9588 87.424 37.7608 88.24 37.3648 88.948C36.9688 89.656 36.4228 90.214 35.7268 90.622C35.0428 91.018 34.2508 91.216 33.3508 91.216ZM33.3508 89.272C33.8308 89.272 34.2508 89.158 34.6108 88.93C34.9828 88.69 35.2708 88.36 35.4748 87.94C35.6908 87.52 35.7988 87.04 35.7988 86.5C35.7988 85.96 35.6908 85.48 35.4748 85.06C35.2708 84.64 34.9768 84.316 34.5928 84.088C34.2208 83.848 33.7948 83.728 33.3148 83.728C32.8348 83.728 32.4088 83.848 32.0368 84.088C31.6648 84.316 31.3708 84.64 31.1548 85.06C30.9508 85.48 30.8488 85.96 30.8488 86.5C30.8488 87.04 30.9508 87.52 31.1548 87.94C31.3708 88.36 31.6648 88.69 32.0368 88.93C32.4208 89.158 32.8588 89.272 33.3508 89.272ZM45.3338 91L45.2438 86.374C45.2438 85.762 45.1778 85.252 45.0458 84.844C44.9138 84.436 44.7098 84.124 44.4338 83.908C44.1578 83.692 43.7858 83.584 43.3178 83.584C42.8978 83.584 42.5258 83.674 42.2018 83.854C41.8778 84.034 41.6078 84.31 41.3918 84.682L39.5918 84.052C39.7958 83.656 40.0598 83.284 40.3838 82.936C40.7078 82.588 41.1158 82.312 41.6078 82.108C42.0998 81.892 42.6878 81.784 43.3718 81.784C44.2358 81.784 44.9558 81.946 45.5318 82.27C46.1198 82.594 46.5578 83.074 46.8458 83.71C47.1338 84.346 47.2778 85.132 47.2778 86.068V91H45.3338ZM42.7778 91.216C41.7098 91.216 40.8758 90.976 40.2758 90.496C39.6878 90.016 39.3938 89.338 39.3938 88.462C39.3938 87.526 39.7058 86.812 40.3298 86.32C40.9658 85.828 41.8478 85.582 42.9758 85.582H45.8018L45.8198 87.13H43.6058C42.8018 87.13 42.2378 87.244 41.9138 87.472C41.6018 87.688 41.4458 88 41.4458 88.408C41.4458 88.756 41.5838 89.032 41.8598 89.236C42.1478 89.428 42.5438 89.524 43.0478 89.524C43.4918 89.524 43.8758 89.422 44.1998 89.218C44.5358 89.002 44.7938 88.726 44.9738 88.39C45.1538 88.042 45.2438 87.67 45.2438 87.274H45.9998C45.9998 88.498 45.7358 89.464 45.2078 90.172C44.6918 90.868 43.8818 91.216 42.7778 91.216ZM55.8328 91L55.7428 89.326V78.4H57.7408V91H55.8328ZM52.8988 91.216C52.0828 91.216 51.3688 91.024 50.7568 90.64C50.1568 90.244 49.6828 89.692 49.3348 88.984C48.9988 88.276 48.8308 87.448 48.8308 86.5C48.8308 85.54 48.9988 84.712 49.3348 84.016C49.6828 83.308 50.1568 82.762 50.7568 82.378C51.3688 81.982 52.0828 81.784 52.8988 81.784C53.6548 81.784 54.3028 81.982 54.8428 82.378C55.3948 82.762 55.8148 83.308 56.1028 84.016C56.3908 84.712 56.5348 85.54 56.5348 86.5C56.5348 87.448 56.3908 88.276 56.1028 88.984C55.8148 89.692 55.3948 90.244 54.8428 90.64C54.3028 91.024 53.6548 91.216 52.8988 91.216ZM53.4028 89.38C53.8588 89.38 54.2608 89.26 54.6088 89.02C54.9688 88.768 55.2448 88.426 55.4368 87.994C55.6408 87.562 55.7428 87.064 55.7428 86.5C55.7428 85.936 55.6408 85.438 55.4368 85.006C55.2448 84.574 54.9688 84.238 54.6088 83.998C54.2608 83.758 53.8528 83.638 53.3848 83.638C52.9048 83.638 52.4788 83.758 52.1068 83.998C51.7348 84.238 51.4408 84.574 51.2248 85.006C51.0208 85.438 50.9128 85.936 50.9008 86.5C50.9128 87.064 51.0208 87.562 51.2248 87.994C51.4408 88.426 51.7348 88.768 52.1068 89.02C52.4908 89.26 52.9228 89.38 53.4028 89.38ZM64.6893 91V78.4H66.7773V91H64.6893ZM69.3914 91V82H71.2814L71.4074 83.656V91H69.3914ZM75.4934 91V86.392L77.5094 85.852V91H75.4934ZM81.6134 91V86.392L83.6114 85.852V91H81.6134ZM75.4934 86.392C75.4934 85.672 75.4094 85.12 75.2414 84.736C75.0854 84.34 74.8574 84.064 74.5574 83.908C74.2694 83.752 73.9274 83.674 73.5314 83.674C72.8594 83.662 72.3374 83.884 71.9654 84.34C71.5934 84.796 71.4074 85.45 71.4074 86.302H70.6514C70.6514 85.354 70.7894 84.544 71.0654 83.872C71.3414 83.188 71.7374 82.672 72.2534 82.324C72.7694 81.964 73.3814 81.784 74.0894 81.784C75.1814 81.784 76.0214 82.12 76.6094 82.792C77.2094 83.452 77.5094 84.472 77.5094 85.852L75.4934 86.392ZM81.6134 86.392C81.6134 85.672 81.5294 85.12 81.3614 84.736C81.1934 84.34 80.9594 84.064 80.6594 83.908C80.3714 83.752 80.0354 83.674 79.6514 83.674C78.9674 83.662 78.4394 83.884 78.0674 84.34C77.6954 84.796 77.5094 85.45 77.5094 86.302H76.7534C76.7534 85.354 76.8914 84.544 77.1674 83.872C77.4434 83.188 77.8394 82.672 78.3554 82.324C78.8714 81.964 79.4834 81.784 80.1914 81.784C81.2834 81.784 82.1294 82.12 82.7294 82.792C83.3294 83.452 83.6234 84.472 83.6114 85.852L81.6134 86.392ZM91.2127 91L91.1227 86.374C91.1227 85.762 91.0567 85.252 90.9247 84.844C90.7927 84.436 90.5887 84.124 90.3127 83.908C90.0367 83.692 89.6647 83.584 89.1967 83.584C88.7767 83.584 88.4047 83.674 88.0807 83.854C87.7567 84.034 87.4867 84.31 87.2707 84.682L85.4707 84.052C85.6747 83.656 85.9387 83.284 86.2627 82.936C86.5867 82.588 86.9947 82.312 87.4867 82.108C87.9787 81.892 88.5667 81.784 89.2507 81.784C90.1147 81.784 90.8347 81.946 91.4107 82.27C91.9987 82.594 92.4367 83.074 92.7247 83.71C93.0127 84.346 93.1567 85.132 93.1567 86.068V91H91.2127ZM88.6567 91.216C87.5887 91.216 86.7547 90.976 86.1547 90.496C85.5667 90.016 85.2727 89.338 85.2727 88.462C85.2727 87.526 85.5847 86.812 86.2087 86.32C86.8447 85.828 87.7267 85.582 88.8547 85.582H91.6807L91.6987 87.13H89.4847C88.6807 87.13 88.1167 87.244 87.7927 87.472C87.4807 87.688 87.3247 88 87.3247 88.408C87.3247 88.756 87.4627 89.032 87.7387 89.236C88.0267 89.428 88.4227 89.524 88.9267 89.524C89.3707 89.524 89.7547 89.422 90.0787 89.218C90.4147 89.002 90.6727 88.726 90.8527 88.39C91.0327 88.042 91.1227 87.67 91.1227 87.274H91.8787C91.8787 88.498 91.6147 89.464 91.0867 90.172C90.5707 90.868 89.7607 91.216 88.6567 91.216ZM99.0837 94.834C98.4477 94.834 97.8717 94.78 97.3557 94.672C96.8517 94.564 96.4257 94.438 96.0777 94.294C95.7297 94.15 95.4597 94.012 95.2677 93.88L96.0417 92.26C96.2097 92.344 96.4317 92.446 96.7077 92.566C96.9957 92.698 97.3317 92.812 97.7157 92.908C98.0997 93.004 98.5317 93.052 99.0117 93.052C99.5277 93.052 99.9897 92.944 100.398 92.728C100.806 92.524 101.124 92.206 101.352 91.774C101.58 91.342 101.694 90.79 101.694 90.118V82H103.71V90.064C103.71 91.084 103.518 91.948 103.134 92.656C102.75 93.376 102.21 93.916 101.514 94.276C100.818 94.648 100.008 94.834 99.0837 94.834ZM98.7777 90.82C97.9617 90.82 97.2477 90.634 96.6357 90.262C96.0357 89.89 95.5617 89.374 95.2137 88.714C94.8777 88.042 94.7097 87.268 94.7097 86.392C94.7097 85.456 94.8777 84.646 95.2137 83.962C95.5617 83.278 96.0357 82.744 96.6357 82.36C97.2477 81.976 97.9617 81.784 98.7777 81.784C99.5097 81.784 100.146 81.976 100.686 82.36C101.238 82.744 101.664 83.284 101.964 83.98C102.264 84.664 102.414 85.474 102.414 86.41C102.414 87.298 102.264 88.072 101.964 88.732C101.664 89.392 101.238 89.908 100.686 90.28C100.146 90.64 99.5097 90.82 98.7777 90.82ZM99.3357 89.11C99.7917 89.11 100.188 88.99 100.524 88.75C100.872 88.51 101.142 88.186 101.334 87.778C101.526 87.358 101.622 86.878 101.622 86.338C101.622 85.786 101.526 85.306 101.334 84.898C101.142 84.478 100.872 84.154 100.524 83.926C100.176 83.686 99.7737 83.566 99.3177 83.566C98.8377 83.566 98.4117 83.686 98.0397 83.926C97.6797 84.154 97.3917 84.478 97.1757 84.898C96.9717 85.306 96.8697 85.786 96.8697 86.338C96.8697 86.878 96.9717 87.358 97.1757 87.778C97.3917 88.186 97.6857 88.51 98.0577 88.75C98.4297 88.99 98.8557 89.11 99.3357 89.11ZM109.865 91.216C108.989 91.216 108.209 91.018 107.525 90.622C106.841 90.214 106.307 89.656 105.923 88.948C105.539 88.24 105.347 87.424 105.347 86.5C105.347 85.576 105.545 84.76 105.941 84.052C106.337 83.344 106.877 82.792 107.561 82.396C108.245 81.988 109.037 81.784 109.937 81.784C110.729 81.784 111.449 81.994 112.097 82.414C112.745 82.822 113.255 83.416 113.627 84.196C114.011 84.976 114.203 85.906 114.203 86.986H112.169C112.181 86.206 112.091 85.564 111.899 85.06C111.719 84.556 111.455 84.184 111.107 83.944C110.759 83.692 110.345 83.566 109.865 83.566C109.361 83.566 108.929 83.68 108.569 83.908C108.221 84.136 107.951 84.472 107.759 84.916C107.567 85.348 107.471 85.894 107.471 86.554C107.471 87.142 107.585 87.646 107.813 88.066C108.041 88.486 108.347 88.81 108.731 89.038C109.127 89.254 109.565 89.362 110.045 89.362C110.573 89.362 111.011 89.242 111.359 89.002C111.707 88.75 111.977 88.432 112.169 88.048L114.023 88.84C113.771 89.32 113.453 89.74 113.069 90.1C112.685 90.46 112.223 90.736 111.683 90.928C111.143 91.12 110.537 91.216 109.865 91.216ZM106.661 86.986L106.679 85.384H113.159V86.986H106.661Z" fill="black"/>
<rect x="25" width="66" height="66" rx="33" fill="#F2F2F2"/>
<mask id="mask0_1116_3619" style="mask-type:alpha" maskUnits="userSpaceOnUse" x="40" y="15" width="36" height="36">
<rect x="40" y="15" width="36" height="36" fill="#D9D9D9"/>
</mask>
<g mask="url(#mask0_1116_3619)">
<path d="M44.5 48C43.675 48 42.969 47.7065 42.382 47.1195C41.794 46.5315 41.5 45.825 41.5 45V27C41.5 26.175 41.794 25.469 42.382 24.882C42.969 24.294 43.675 24 44.5 24H49.225L52 21H61V27H65.5V31.5H71.5V45C71.5 45.825 71.2065 46.5315 70.6195 47.1195C70.0315 47.7065 69.325 48 68.5 48H44.5ZM56.5 42.75C58.375 42.75 59.969 42.094 61.282 40.782C62.594 39.469 63.25 37.875 63.25 36C63.25 34.125 62.594 32.531 61.282 31.218C59.969 29.906 58.375 29.25 56.5 29.25C54.625 29.25 53.031 29.906 51.718 31.218C50.406 32.531 49.75 34.125 49.75 36C49.75 37.875 50.406 39.469 51.718 40.782C53.031 42.094 54.625 42.75 56.5 42.75ZM56.5 39.75C55.45 39.75 54.5625 39.3875 53.8375 38.6625C53.1125 37.9375 52.75 37.05 52.75 36C52.75 34.95 53.1125 34.0625 53.8375 33.3375C54.5625 32.6125 55.45 32.25 56.5 32.25C57.55 32.25 58.4375 32.6125 59.1625 33.3375C59.8875 34.0625 60.25 34.95 60.25 36C60.25 37.05 59.8875 37.9375 59.1625 38.6625C58.4375 39.3875 57.55 39.75 56.5 39.75ZM68.5 27V24H65.5V21H68.5V18H71.5V21H74.5V24H71.5V27H68.5Z" fill="#828282"/>
</g>
</svg>
