<svg width="36" height="36" viewBox="0 0 36 36" fill="none" xmlns="http://www.w3.org/2000/svg">
<mask id="mask0_1116_3622" style="mask-type:alpha" maskUnits="userSpaceOnUse" x="0" y="0" width="36" height="36">
<rect width="36" height="36" fill="#D9D9D9"/>
</mask>
<g mask="url(#mask0_1116_3622)">
<path d="M4.5 33C3.675 33 2.969 32.7065 2.382 32.1195C1.794 31.5315 1.5 30.825 1.5 30V12C1.5 11.175 1.794 10.469 2.382 9.882C2.969 9.294 3.675 9 4.5 9H9.225L12 6H21V12H25.5V16.5H31.5V30C31.5 30.825 31.2065 31.5315 30.6195 32.1195C30.0315 32.7065 29.325 33 28.5 33H4.5ZM16.5 27.75C18.375 27.75 19.969 27.094 21.282 25.782C22.594 24.469 23.25 22.875 23.25 21C23.25 19.125 22.594 17.531 21.282 16.218C19.969 14.906 18.375 14.25 16.5 14.25C14.625 14.25 13.031 14.906 11.718 16.218C10.406 17.531 9.75 19.125 9.75 21C9.75 22.875 10.406 24.469 11.718 25.782C13.031 27.094 14.625 27.75 16.5 27.75ZM16.5 24.75C15.45 24.75 14.5625 24.3875 13.8375 23.6625C13.1125 22.9375 12.75 22.05 12.75 21C12.75 19.95 13.1125 19.0625 13.8375 18.3375C14.5625 17.6125 15.45 17.25 16.5 17.25C17.55 17.25 18.4375 17.6125 19.1625 18.3375C19.8875 19.0625 20.25 19.95 20.25 21C20.25 22.05 19.8875 22.9375 19.1625 23.6625C18.4375 24.3875 17.55 24.75 16.5 24.75ZM28.5 12V9H25.5V6H28.5V3H31.5V6H34.5V9H31.5V12H28.5Z" fill="#828282"/>
</g>
</svg>
