<svg width="50" height="40" viewBox="0 0 50 40" fill="none" xmlns="http://www.w3.org/2000/svg">
<g clip-path="url(#clip0_0_3671)">
<path d="M16.4873 25.1441H33.4773V12.7549C33.4773 8.17183 29.7936 4.45508 25.2514 4.45508H24.7131C20.1709 4.45508 16.4873 8.17183 16.4873 12.7549V25.1441Z" fill="black"/>
<path d="M33.4775 25.1441V12.7549C33.4775 8.17183 29.7939 4.45508 25.2517 4.45508H24.7134V25.1441H33.4775Z" fill="black"/>
<path d="M36.6941 24.5471H12.3726V28.6364H36.6941V24.5471Z" fill="black"/>
<path d="M37.0544 29H12.0166V24.188H37.0544V29ZM12.7329 28.2773H36.3382V24.9107H12.7329V28.2773Z" fill="black"/>
<path d="M24.2686 5.11963H24.5355C29.0778 5.11963 32.7614 8.71519 32.7614 13.1546V23.7034H31.2844V13.1546C31.2844 9.11918 28.2325 5.78847 24.2642 5.21838V5.11963H24.2686Z" fill="white"/>
<path d="M24.9799 10.5263C25.1801 10.5263 25.3358 10.3647 25.3358 10.1672V0.359107C25.3358 0.161598 25.1757 0 24.9799 0C24.7842 0 24.624 0.161598 24.624 0.359107V10.1627C24.624 10.3647 24.7842 10.5263 24.9799 10.5263Z" fill="black"/>
<path d="M31.36 0.810112C31.4044 0.828068 31.4534 0.837046 31.4979 0.837046C31.6358 0.837046 31.7693 0.751757 31.8271 0.617092L35.5596 -8.4324C35.6353 -8.61644 35.5507 -8.82741 35.3683 -8.90372C35.1904 -8.98003 34.9768 -8.89475 34.9056 -8.7107L31.1687 0.338785C31.093 0.522827 31.182 0.738291 31.36 0.810112Z" fill="black"/>
<path d="M18.1913 0.594416C18.2491 0.733569 18.3826 0.818857 18.5205 0.818857C18.565 0.818857 18.6139 0.80988 18.6584 0.791924C18.8408 0.715614 18.9298 0.504639 18.8542 0.320597L15.1528 -8.74685C15.0771 -8.93089 14.868 -9.01618 14.6856 -8.94436C14.5032 -8.86805 14.4143 -8.65707 14.4899 -8.47303L18.1913 0.594416Z" fill="black"/>
<path d="M9.46258 9.36579L0.493814 5.59517C0.315863 5.51886 0.10232 5.60864 0.026691 5.78819C-0.0489385 5.97224 0.0355886 6.18321 0.217989 6.25952L9.18676 10.0301C9.23125 10.0481 9.28018 10.0571 9.32467 10.0571C9.46258 10.0571 9.59605 9.97179 9.65388 9.83263C9.73396 9.65308 9.64943 9.4421 9.46258 9.36579Z" fill="black"/>
<path d="M49.9737 5.88255C49.8981 5.69851 49.689 5.61322 49.5066 5.68504L40.5245 9.42424C40.3421 9.50055 40.2531 9.71152 40.3288 9.89556C40.3866 10.0347 40.5201 10.12 40.6624 10.12C40.7069 10.12 40.7514 10.111 40.7959 10.0931L49.7824 6.35836C49.9604 6.27756 50.0494 6.06659 49.9737 5.88255Z" fill="black"/>
<path d="M44.2702 -2.83457C44.1323 -2.97821 43.9054 -2.97821 43.7631 -2.83906L36.8407 4.04232C36.6984 4.18148 36.6984 4.41041 36.8363 4.55405C36.9075 4.62587 37.0009 4.66178 37.0899 4.66178C37.1788 4.66178 37.2723 4.62587 37.3434 4.55854L44.2658 -2.32284C44.4037 -2.462 44.4081 -2.69093 44.2702 -2.83457Z" fill="black"/>
<path d="M12.5633 4.55405C12.6345 4.62138 12.7235 4.65729 12.8125 4.65729C12.9059 4.65729 12.9949 4.62138 13.0661 4.54956C13.204 4.40592 13.1995 4.17699 13.0616 4.03783L6.14374 -2.83906C6.00138 -2.97821 5.77449 -2.97821 5.63658 -2.83457C5.49866 -2.69093 5.49866 -2.462 5.64103 -2.32284L12.5633 4.55405Z" fill="black"/>
</g>
<defs>
<clipPath id="clip0_0_3671">
<rect width="50" height="40" fill="white"/>
</clipPath>
</defs>
</svg>
