<svg width="24" height="25" viewBox="0 0 24 25" fill="none" xmlns="http://www.w3.org/2000/svg">
<mask id="mask0_0_3703" style="mask-type:alpha" maskUnits="userSpaceOnUse" x="0" y="0" width="24" height="25">
<rect y="0.414062" width="24" height="24" fill="#D9D9D9"/>
</mask>
<g mask="url(#mask0_0_3703)">
<path d="M7 19.4141H9V17.4141H7V19.4141ZM7 15.4141H9V11.4141H7V15.4141ZM11 19.4141H13V15.4141H11V19.4141ZM11 13.4141H13V11.4141H11V13.4141ZM15 19.4141H17V17.4141H15V19.4141ZM15 15.4141H17V11.4141H15V15.4141ZM6 22.4141C5.45 22.4141 4.97933 22.2184 4.588 21.8271C4.196 21.4351 4 20.9641 4 20.4141V8.41406L10 2.41406H18C18.55 2.41406 19.021 2.60973 19.413 3.00106C19.8043 3.39306 20 3.86406 20 4.41406V20.4141C20 20.9641 19.8043 21.4351 19.413 21.8271C19.021 22.2184 18.55 22.4141 18 22.4141H6Z" fill="#1C1B1F"/>
</g>
</svg>
