<svg width="24" height="25" viewBox="0 0 24 25" fill="none" xmlns="http://www.w3.org/2000/svg">
<mask id="mask0_0_3719" style="mask-type:alpha" maskUnits="userSpaceOnUse" x="0" y="0" width="24" height="25">
<rect y="0.0839844" width="24" height="24" fill="#D9D9D9"/>
</mask>
<g mask="url(#mask0_0_3719)">
<path d="M12 19.084C9.65 17.3507 7.89567 15.6673 6.737 14.034C5.579 12.4007 5 10.8007 5 9.23398C5 8.05065 5.21267 7.01298 5.638 6.12098C6.06267 5.22965 6.60833 4.48398 7.275 3.88398C7.94167 3.28398 8.69167 2.83398 9.525 2.53398C10.3583 2.23398 11.1833 2.08398 12 2.08398C12.8167 2.08398 13.6417 2.23398 14.475 2.53398C15.3083 2.83398 16.0583 3.28398 16.725 3.88398C17.3917 4.48398 17.9377 5.22965 18.363 6.12098C18.7877 7.01298 19 8.05065 19 9.23398C19 10.8007 18.4207 12.4007 17.262 14.034C16.104 15.6673 14.35 17.3507 12 19.084ZM12 11.084C12.55 11.084 13.021 10.888 13.413 10.496C13.8043 10.1047 14 9.63398 14 9.08398C14 8.53398 13.8043 8.06298 13.413 7.67098C13.021 7.27965 12.55 7.08398 12 7.08398C11.45 7.08398 10.9793 7.27965 10.588 7.67098C10.196 8.06298 10 8.53398 10 9.08398C10 9.63398 10.196 10.1047 10.588 10.496C10.9793 10.888 11.45 11.084 12 11.084ZM5 22.084V20.084H19V22.084H5Z" fill="#1C1B1F"/>
</g>
</svg>
