<svg width="30" height="24" viewBox="0 0 30 24" fill="none" xmlns="http://www.w3.org/2000/svg">
<g clip-path="url(#clip0_1166_3364)">
<path d="M9.89258 20.4681H20.0865V13.0346C20.0865 10.2847 17.8764 8.05469 15.1511 8.05469H14.8281C12.1027 8.05469 9.89258 10.2847 9.89258 13.0346V20.4681Z" fill="black"/>
<path d="M20.0866 20.4681V13.0346C20.0866 10.2847 17.8764 8.05469 15.1511 8.05469H14.8281V20.4681H20.0866Z" fill="black"/>
<path d="M22.0163 20.1099H7.42334V22.5635H22.0163V20.1099Z" fill="black"/>
<path d="M22.2326 22.7817H7.20996V19.8945H22.2326V22.7817ZM7.63971 22.3481H21.8029V20.3282H7.63971V22.3481Z" fill="black"/>
<path d="M14.5613 8.45361H14.7214C17.4468 8.45361 19.6569 10.6109 19.6569 13.2746V19.6039H18.7707V13.2746C18.7707 10.8533 16.9396 8.85492 14.5586 8.51287V8.45361H14.5613Z" fill="white"/>
<path d="M14.988 11.6976C15.1081 11.6976 15.2015 11.6007 15.2015 11.4822V5.5973C15.2015 5.47879 15.1054 5.38184 14.988 5.38184C14.8705 5.38184 14.7744 5.47879 14.7744 5.5973V11.4795C14.7744 11.6007 14.8705 11.6976 14.988 11.6976Z" fill="black"/>
<path d="M18.8161 5.868C18.8428 5.87877 18.8721 5.88416 18.8988 5.88416C18.9816 5.88416 19.0616 5.83299 19.0963 5.75219L21.3359 0.322496C21.3812 0.21207 21.3305 0.0854853 21.2211 0.0396992C21.1143 -0.00608695 20.9862 0.0450857 20.9435 0.155511L18.7013 5.5852C18.6559 5.69563 18.7093 5.82491 18.8161 5.868Z" fill="black"/>
<path d="M10.9148 5.73849C10.9495 5.82198 11.0295 5.87315 11.1123 5.87315C11.139 5.87315 11.1684 5.86776 11.195 5.85699C11.3045 5.8112 11.3579 5.68462 11.3125 5.57419L9.09165 0.133727C9.04628 0.0233018 8.92082 -0.0278709 8.81138 0.0152219C8.70194 0.061008 8.64855 0.187593 8.69393 0.298018L10.9148 5.73849Z" fill="black"/>
<path d="M5.67765 11.0014L0.296386 8.73904C0.189615 8.69325 0.0614899 8.74712 0.0161122 8.85485C-0.0292655 8.96528 0.0214508 9.09186 0.130891 9.13765L5.51215 11.4C5.53885 11.4108 5.56821 11.4162 5.5949 11.4162C5.67765 11.4162 5.75773 11.365 5.79243 11.2815C5.84047 11.1738 5.78976 11.0472 5.67765 11.0014Z" fill="black"/>
<path d="M29.9843 8.91156C29.939 8.80113 29.8135 8.74996 29.7041 8.79305L24.3148 11.0366C24.2054 11.0824 24.152 11.2089 24.1974 11.3194C24.2321 11.4029 24.3121 11.454 24.3975 11.454C24.4242 11.454 24.4509 11.4486 24.4776 11.4379L29.8696 9.19705C29.9763 9.14857 30.0297 9.02199 29.9843 8.91156Z" fill="black"/>
<path d="M26.5621 3.68119C26.4794 3.59501 26.3433 3.59501 26.2578 3.6785L22.1044 7.80733C22.019 7.89082 22.019 8.02818 22.1018 8.11436C22.1445 8.15746 22.2005 8.179 22.2539 8.179C22.3073 8.179 22.3634 8.15746 22.4061 8.11706L26.5595 3.98823C26.6422 3.90473 26.6449 3.76738 26.5621 3.68119Z" fill="black"/>
<path d="M7.53811 8.11436C7.58082 8.15476 7.6342 8.17631 7.68759 8.17631C7.74364 8.17631 7.79703 8.15476 7.83974 8.11167C7.92248 8.02548 7.91981 7.88813 7.83707 7.80463L3.68634 3.6785C3.60092 3.59501 3.46479 3.59501 3.38204 3.68119C3.2993 3.76738 3.2993 3.90473 3.38471 3.98823L7.53811 8.11436Z" fill="black"/>
</g>
<defs>
<clipPath id="clip0_1166_3364">
<rect width="30" height="24" fill="white"/>
</clipPath>
</defs>
</svg>
