<svg width="24" height="24" viewBox="0 0 24 24" fill="none" xmlns="http://www.w3.org/2000/svg">
<path d="M2.375 21.625V11.875L5 4.37495H8.925V2.07495H15.075V4.37495H19L21.625 11.875V21.625H17.9V19.6749H6.1V21.625H2.375ZM6.2 10.15H17.8L16.85 7.39995H7.15L6.2 10.15ZM7.7 15.775C8.1 15.775 8.44167 15.6333 8.725 15.35C9.00833 15.0666 9.15 14.725 9.15 14.325C9.15 13.925 9.00833 13.5833 8.725 13.3C8.44167 13.0166 8.1 12.875 7.7 12.875C7.3 12.875 6.95833 13.0166 6.675 13.3C6.39167 13.5833 6.25 13.925 6.25 14.325C6.25 14.725 6.39167 15.0666 6.675 15.35C6.95833 15.6333 7.3 15.775 7.7 15.775V15.775ZM16.3 15.775C16.7 15.775 17.0417 15.6333 17.325 15.35C17.6083 15.0666 17.75 14.725 17.75 14.325C17.75 13.925 17.6083 13.5833 17.325 13.3C17.0417 13.0166 16.7 12.875 16.3 12.875C15.9 12.875 15.5583 13.0166 15.275 13.3C14.9917 13.5833 14.85 13.925 14.85 14.325C14.85 14.725 14.9917 15.0666 15.275 15.35C15.5583 15.6333 15.9 15.775 16.3 15.775Z" fill="black"/>
</svg>
