<svg width="40" height="40" viewBox="0 0 40 40" fill="none" xmlns="http://www.w3.org/2000/svg">
<mask id="mask0_1166_8222" style="mask-type:alpha" maskUnits="userSpaceOnUse" x="0" y="0" width="40" height="40">
<rect width="40" height="40" fill="#D9D9D9"/>
</mask>
<g mask="url(#mask0_1166_8222)">
<path d="M19.9163 29.9999C20.4997 29.9999 20.993 29.7983 21.3963 29.3949C21.7986 28.9927 21.9997 28.4999 21.9997 27.9166C21.9997 27.3333 21.7986 26.8405 21.3963 26.4383C20.993 26.0349 20.4997 25.8333 19.9163 25.8333C19.333 25.8333 18.8397 26.0349 18.4363 26.4383C18.0341 26.8405 17.833 27.3333 17.833 27.9166C17.833 28.4999 18.0341 28.9927 18.4363 29.3949C18.8397 29.7983 19.333 29.9999 19.9163 29.9999ZM18.4163 23.5833H21.4997C21.4997 22.6666 21.6041 21.9444 21.813 21.4166C22.0208 20.8888 22.6108 20.1666 23.583 19.2499C24.3052 18.5277 24.8747 17.8399 25.2913 17.1866C25.708 16.5344 25.9163 15.7499 25.9163 14.8333C25.9163 13.2777 25.3469 12.0833 24.208 11.2499C23.0691 10.4166 21.7219 9.99992 20.1663 9.99992C18.583 9.99992 17.2986 10.4166 16.313 11.2499C15.3263 12.0833 14.6386 13.0833 14.2497 14.2499L16.9997 15.3333C17.1386 14.8333 17.4513 14.2916 17.938 13.7083C18.4236 13.1249 19.1663 12.8333 20.1663 12.8333C21.0552 12.8333 21.7219 13.076 22.1663 13.5616C22.6108 14.0483 22.833 14.5833 22.833 15.1666C22.833 15.7221 22.6663 16.2427 22.333 16.7283C21.9997 17.2149 21.583 17.6666 21.083 18.0833C19.8608 19.1666 19.1108 19.986 18.833 20.5416C18.5552 21.0971 18.4163 22.111 18.4163 23.5833ZM19.9997 36.6666C17.6941 36.6666 15.5275 36.2288 13.4997 35.3533C11.4719 34.4788 9.70801 33.2916 8.20801 31.7916C6.70801 30.2916 5.52079 28.5277 4.64634 26.4999C3.77079 24.4721 3.33301 22.3055 3.33301 19.9999C3.33301 17.6944 3.77079 15.5277 4.64634 13.4999C5.52079 11.4721 6.70801 9.70825 8.20801 8.20825C9.70801 6.70825 11.4719 5.52047 13.4997 4.64492C15.5275 3.77047 17.6941 3.33325 19.9997 3.33325C22.3052 3.33325 24.4719 3.77047 26.4997 4.64492C28.5275 5.52047 30.2913 6.70825 31.7913 8.20825C33.2913 9.70825 34.4786 11.4721 35.353 13.4999C36.2286 15.5277 36.6663 17.6944 36.6663 19.9999C36.6663 22.3055 36.2286 24.4721 35.353 26.4999C34.4786 28.5277 33.2913 30.2916 31.7913 31.7916C30.2913 33.2916 28.5275 34.4788 26.4997 35.3533C24.4719 36.2288 22.3052 36.6666 19.9997 36.6666Z" fill="#1C1B1F"/>
</g>
</svg>
