<svg width="38" height="38" viewBox="0 0 38 38" fill="none" xmlns="http://www.w3.org/2000/svg">
<mask id="mask0_1166_3402" style="mask-type:alpha" maskUnits="userSpaceOnUse" x="0" y="0" width="38" height="38">
<rect width="38" height="38" fill="#D9D9D9"/>
</mask>
<g mask="url(#mask0_1166_3402)">
<path d="M17.7332 13.2603L23.2748 3.76025C25.6762 4.39359 27.8074 5.5547 29.6683 7.24359C31.5282 8.93248 32.8804 10.938 33.7248 13.2603H17.7332ZM13.3394 17.2186L7.9165 7.71859C9.3415 6.31998 10.9977 5.21164 12.885 4.39359C14.7713 3.57553 16.8096 3.1665 18.9998 3.1665C19.3429 3.1665 19.7387 3.18603 20.1873 3.22509C20.6359 3.2652 21.045 3.31164 21.4144 3.36442L13.3394 17.2186ZM3.68109 22.9582C3.52275 22.3248 3.39767 21.6783 3.30584 21.0186C3.21295 20.3589 3.1665 19.6859 3.1665 18.9998C3.1665 17.1262 3.46998 15.3582 4.07692 13.6957C4.68386 12.0332 5.5415 10.5158 6.64984 9.14359L14.6457 22.9582H3.68109ZM14.7644 34.2394C12.363 33.6061 10.2255 32.445 8.35192 30.7561C6.47831 29.0672 5.11928 27.0616 4.27484 24.7394H20.2269L14.7644 34.2394ZM18.9998 34.8332C18.604 34.8332 18.2018 34.8068 17.7933 34.754C17.3838 34.7012 16.9943 34.6484 16.6248 34.5957L24.6603 20.7811L30.0832 30.2811C28.6582 31.6797 27.0025 32.788 25.1163 33.6061C23.2289 34.4241 21.1901 34.8332 18.9998 34.8332ZM31.3498 28.8561L23.354 15.0415H34.3186C34.4769 15.6748 34.6025 16.3214 34.6954 16.9811C34.7873 17.6408 34.8332 18.3137 34.8332 18.9998C34.8332 20.8471 34.5102 22.6151 33.8642 24.304C33.2171 25.9929 32.379 27.5103 31.3498 28.8561Z" fill="black"/>
</g>
</svg>
