<svg width="38" height="38" viewBox="0 0 38 38" fill="none" xmlns="http://www.w3.org/2000/svg">
<path d="M3.76025 34.2398V18.8023L7.9165 6.92731H14.1311V3.28564H23.8686V6.92731H30.0832L34.2394 18.8023V34.2398H28.3415V31.1523H9.65817V34.2398H3.76025ZM9.8165 16.0711H28.1832L26.679 11.7169H11.3207L9.8165 16.0711ZM12.1915 24.9773C12.8248 24.9773 13.3658 24.753 13.8144 24.3044C14.263 23.8558 14.4873 23.3148 14.4873 22.6815C14.4873 22.0481 14.263 21.5072 13.8144 21.0586C13.3658 20.61 12.8248 20.3856 12.1915 20.3856C11.5582 20.3856 11.0172 20.61 10.5686 21.0586C10.12 21.5072 9.89567 22.0481 9.89567 22.6815C9.89567 23.3148 10.12 23.8558 10.5686 24.3044C11.0172 24.753 11.5582 24.9773 12.1915 24.9773ZM25.8082 24.9773C26.4415 24.9773 26.9825 24.753 27.4311 24.3044C27.8797 23.8558 28.104 23.3148 28.104 22.6815C28.104 22.0481 27.8797 21.5072 27.4311 21.0586C26.9825 20.61 26.4415 20.3856 25.8082 20.3856C25.1748 20.3856 24.6339 20.61 24.1853 21.0586C23.7366 21.5072 23.5123 22.0481 23.5123 22.6815C23.5123 23.3148 23.7366 23.8558 24.1853 24.3044C24.6339 24.753 25.1748 24.9773 25.8082 24.9773Z" fill="black"/>
</svg>
