<svg width="40" height="40" viewBox="0 0 40 40" fill="none" xmlns="http://www.w3.org/2000/svg">
<mask id="mask0_1166_3442" style="mask-type:alpha" maskUnits="userSpaceOnUse" x="0" y="0" width="40" height="40">
<rect width="40" height="40" fill="#D9D9D9"/>
</mask>
<g mask="url(#mask0_1166_3442)">
<path d="M28.3332 11.6665H31.6665V8.33317H28.3332V11.6665ZM29.9998 34.9998C27.6943 34.9998 25.7293 34.1876 24.1048 32.5632C22.4793 30.9376 21.6665 28.9721 21.6665 26.6665C21.6665 24.3609 22.4793 22.3954 24.1048 20.7698C25.7293 19.1454 27.6943 18.3332 29.9998 18.3332C32.3054 18.3332 34.271 19.1454 35.8965 20.7698C37.521 22.3954 38.3332 24.3609 38.3332 26.6665C38.3332 28.9721 37.521 30.9376 35.8965 32.5632C34.271 34.1876 32.3054 34.9998 29.9998 34.9998ZM29.1665 31.6665H30.8332V27.4998H34.9998V25.8332H30.8332V21.6665H29.1665V25.8332H24.9998V27.4998H29.1665V31.6665ZM38.3332 18.5415C37.2498 17.3748 35.986 16.4926 34.5415 15.8948C33.0971 15.2982 31.5832 14.9998 29.9998 14.9998C29.6943 14.9998 29.4098 15.0065 29.1465 15.0198C28.8821 15.0343 28.611 15.0693 28.3332 15.1248V13.3332L16.6665 4.9165V1.6665H38.3332V18.5415ZM1.6665 31.6665V14.9998L13.3332 6.6665L24.9998 14.9998V16.1248C22.9998 17.0693 21.3887 18.5065 20.1665 20.4365C18.9443 22.3676 18.3332 24.4443 18.3332 26.6665C18.3332 27.5276 18.4237 28.3821 18.6048 29.2298C18.7848 30.0765 19.0693 30.8887 19.4582 31.6665H16.6665V21.6665H9.99984V31.6665H1.6665Z" fill="#1C1B1F"/>
</g>
</svg>
