<svg width="24" height="24" viewBox="0 0 24 24" fill="none" xmlns="http://www.w3.org/2000/svg">
<mask id="mask0_1166_3549" style="mask-type:alpha" maskUnits="userSpaceOnUse" x="0" y="0" width="24" height="24">
<rect width="24" height="24" fill="#D9D9D9"/>
</mask>
<g mask="url(#mask0_1166_3549)">
<path d="M10.9998 22.9503V20.9503C8.91647 20.717 7.12914 19.8546 5.63781 18.3633C4.14581 16.8713 3.28314 15.0836 3.0498 13.0003H1.0498V11.0003H3.0498C3.28314 8.91696 4.14581 7.12929 5.63781 5.63729C7.12914 4.14596 8.91647 3.28363 10.9998 3.05029V1.05029H12.9998V3.05029C15.0831 3.28363 16.8708 4.14596 18.3628 5.63729C19.8541 7.12929 20.7165 8.91696 20.9498 11.0003H22.9498V13.0003H20.9498C20.7165 15.0836 19.8541 16.8713 18.3628 18.3633C16.8708 19.8546 15.0831 20.717 12.9998 20.9503V22.9503H10.9998ZM11.9998 19.0003C13.9331 19.0003 15.5831 18.317 16.9498 16.9503C18.3165 15.5836 18.9998 13.9336 18.9998 12.0003C18.9998 10.067 18.3165 8.41696 16.9498 7.05029C15.5831 5.68363 13.9331 5.00029 11.9998 5.00029C10.0665 5.00029 8.41647 5.68363 7.04981 7.05029C5.68314 8.41696 4.99981 10.067 4.99981 12.0003C4.99981 13.9336 5.68314 15.5836 7.04981 16.9503C8.41647 18.317 10.0665 19.0003 11.9998 19.0003ZM11.9998 16.0003C10.8998 16.0003 9.95814 15.6086 9.17481 14.8253C8.39147 14.042 7.99981 13.1003 7.99981 12.0003C7.99981 10.9003 8.39147 9.95863 9.17481 9.17529C9.95814 8.39196 10.8998 8.00029 11.9998 8.00029C13.0998 8.00029 14.0415 8.39196 14.8248 9.17529C15.6081 9.95863 15.9998 10.9003 15.9998 12.0003C15.9998 13.1003 15.6081 14.042 14.8248 14.8253C14.0415 15.6086 13.0998 16.0003 11.9998 16.0003Z" fill="black"/>
</g>
</svg>
