<svg width="40" height="40" viewBox="0 0 40 40" fill="none" xmlns="http://www.w3.org/2000/svg">
<path d="M20 1.6665L5 8.33317V18.3332C5 27.5832 11.4 36.2332 20 38.3332C28.6 36.2332 35 27.5832 35 18.3332V8.33317L20 1.6665ZM20 9.4665C20.8333 9.4665 21.5833 10.1832 21.5833 11.0498V16.8498L30 22.0998V24.2165L21.5833 21.5832V27.3665L23.6833 28.9498V30.5332L20 29.4665L16.3167 30.5332V28.9498L18.4167 27.3665V21.5832L10 24.2165V22.0998L18.4167 16.8498V11.0498C18.4167 10.1832 19.1667 9.4665 20 9.4665Z" fill="black"/>
</svg>
