<svg width="34" height="41" viewBox="0 0 34 41" fill="none" xmlns="http://www.w3.org/2000/svg">
<path d="M27.9524 38.4611C25.7861 40.5611 23.4208 40.2295 21.144 39.2348C18.7345 38.2179 16.524 38.1737 13.9819 39.2348C10.7987 40.6053 9.11873 40.2074 7.21768 38.4611C-3.56969 27.3421 -1.97811 10.4095 10.2682 9.79055C13.2524 9.94529 15.3303 11.4263 17.0766 11.559C19.685 11.0284 22.1829 9.50318 24.9682 9.70213C28.3061 9.96739 30.8261 11.2937 32.484 13.6811C25.5872 17.8148 27.2229 26.9 33.545 29.4421C32.285 32.7579 30.6493 36.0516 27.9303 38.4832L27.9524 38.4611ZM16.8556 9.65792C16.524 4.72845 20.525 0.661078 25.1229 0.263184C25.764 5.96634 19.9503 10.2106 16.8556 9.65792Z" fill="black"/>
</svg>
