<svg width="35" height="35" viewBox="0 0 35 35" fill="none" xmlns="http://www.w3.org/2000/svg">
<path d="M34.0613 13.8781H32.6854V13.8078H17.3125V20.5799H26.9658C25.5575 24.522 21.7732 27.3519 17.3125 27.3519C11.6527 27.3519 7.06386 22.8036 7.06386 17.1938C7.06386 11.584 11.6527 7.03573 17.3125 7.03573C19.925 7.03573 22.3019 8.0126 24.1116 9.60827L28.943 4.81958C25.8923 2.00155 21.8116 0.263672 17.3125 0.263672C7.87948 0.263672 0.231445 7.84415 0.231445 17.1938C0.231445 26.5435 7.87948 34.124 17.3125 34.124C26.7455 34.124 34.3935 26.5435 34.3935 17.1938C34.3935 16.0587 34.2757 14.9506 34.0613 13.8781Z" fill="#FFC107"/>
<path d="M2.20068 9.31368L7.81266 13.393C9.33116 9.66668 13.0087 7.03573 17.3123 7.03573C19.9248 7.03573 22.3017 8.0126 24.1114 9.60827L28.9428 4.81958C25.8921 2.00155 21.8114 0.263672 17.3123 0.263672C10.7515 0.263672 5.06176 3.93497 2.20068 9.31368Z" fill="#FF3D00"/>
<path d="M17.3128 34.1244C21.7249 34.1244 25.7338 32.4508 28.7648 29.7293L23.4782 25.2953C21.7057 26.6314 19.5397 27.3541 17.3128 27.3523C12.8701 27.3523 9.09772 24.5445 7.67657 20.626L2.10645 24.8797C4.93336 30.3625 10.6743 34.1244 17.3128 34.1244Z" fill="#4CAF50"/>
<path d="M34.0608 13.8779H32.685V13.8076H17.312V20.5797H26.9654C26.2917 22.4559 25.0782 24.0954 23.4749 25.2956L23.4774 25.2939L28.764 29.7279C28.3899 30.0648 34.3931 25.6587 34.3931 17.1936C34.3931 16.0585 34.2752 14.9504 34.0608 13.8779Z" fill="#1976D2"/>
</svg>
